<svg xmlns="http://www.w3.org/2000/svg" xmlns:xlink="http://www.w3.org/1999/xlink" width="871" zoomAndPan="magnify" viewBox="0 0 653.25 91.5" height="122" preserveAspectRatio="xMidYMid meet" version="1.0"><defs><g/></defs><g fill="#ecece2" fill-opacity="1"><g transform="translate(227.965617, 52.72225)"><g><path d="M 16.640625 -12.65625 C 17.816406 -12.195312 18.691406 -11.5 19.265625 -10.5625 C 19.835938 -9.625 20.125 -8.507812 20.125 -7.21875 C 20.125 -4.914062 19.328125 -3.132812 17.734375 -1.875 C 16.140625 -0.625 13.898438 0 11.015625 0 L 2.71875 0 C 2.6875 -3.507812 2.65625 -7.148438 2.625 -10.921875 C 2.601562 -14.703125 2.550781 -18.664062 2.46875 -22.8125 C 3.613281 -23.070312 4.820312 -23.257812 6.09375 -23.375 C 7.363281 -23.488281 8.628906 -23.546875 9.890625 -23.546875 C 12.941406 -23.546875 15.160156 -22.988281 16.546875 -21.875 C 17.929688 -20.769531 18.625 -19.253906 18.625 -17.328125 C 18.625 -15.453125 17.960938 -13.894531 16.640625 -12.65625 Z M 6.171875 -20.390625 L 6.171875 -13.515625 L 13.953125 -13.515625 C 14.390625 -13.984375 14.710938 -14.453125 14.921875 -14.921875 C 15.140625 -15.398438 15.25 -16 15.25 -16.71875 C 15.25 -19.28125 13.445312 -20.5625 9.84375 -20.5625 C 8.78125 -20.5625 7.898438 -20.53125 7.203125 -20.46875 C 6.515625 -20.414062 6.171875 -20.390625 6.171875 -20.390625 Z M 15.515625 -3.796875 C 15.890625 -4.285156 16.144531 -4.796875 16.28125 -5.328125 C 16.425781 -5.867188 16.5 -6.46875 16.5 -7.125 C 16.5 -8.28125 16.15625 -9.171875 15.46875 -9.796875 C 14.78125 -10.429688 13.742188 -10.75 12.359375 -10.75 L 6.171875 -10.75 L 6.171875 -3.03125 L 11.109375 -3.03125 C 12.890625 -3.03125 14.359375 -3.285156 15.515625 -3.796875 Z M 15.515625 -3.796875 "/></g></g></g><g fill="#ecece2" fill-opacity="1"><g transform="translate(265.156108, 52.72225)"><g><path d="M 2.71875 0 C 2.6875 -3.488281 2.65625 -7.125 2.625 -10.90625 C 2.601562 -14.695312 2.550781 -18.625 2.46875 -22.6875 C 3.007812 -22.820312 3.617188 -22.925781 4.296875 -23 C 4.972656 -23.070312 5.890625 -23.109375 7.046875 -23.109375 L 17.578125 -23.109375 C 17.671875 -22.710938 17.71875 -22.207031 17.71875 -21.59375 C 17.71875 -20.988281 17.671875 -20.488281 17.578125 -20.09375 L 6.171875 -20.09375 L 6.171875 -13.171875 L 15.984375 -13.171875 C 16.066406 -12.773438 16.109375 -12.285156 16.109375 -11.703125 C 16.109375 -11.128906 16.066406 -10.640625 15.984375 -10.234375 L 6.171875 -10.234375 L 6.171875 -3.03125 L 17.84375 -3.03125 C 17.957031 -2.625 18.015625 -2.117188 18.015625 -1.515625 C 18.015625 -0.910156 17.957031 -0.40625 17.84375 0 Z M 2.71875 0 "/></g></g></g><g fill="#ecece2" fill-opacity="1"><g transform="translate(300.01441, 52.72225)"><g><path d="M 16.640625 -12.65625 C 17.816406 -12.195312 18.691406 -11.5 19.265625 -10.5625 C 19.835938 -9.625 20.125 -8.507812 20.125 -7.21875 C 20.125 -4.914062 19.328125 -3.132812 17.734375 -1.875 C 16.140625 -0.625 13.898438 0 11.015625 0 L 2.71875 0 C 2.6875 -3.507812 2.65625 -7.148438 2.625 -10.921875 C 2.601562 -14.703125 2.550781 -18.664062 2.46875 -22.8125 C 3.613281 -23.070312 4.820312 -23.257812 6.09375 -23.375 C 7.363281 -23.488281 8.628906 -23.546875 9.890625 -23.546875 C 12.941406 -23.546875 15.160156 -22.988281 16.546875 -21.875 C 17.929688 -20.769531 18.625 -19.253906 18.625 -17.328125 C 18.625 -15.453125 17.960938 -13.894531 16.640625 -12.65625 Z M 6.171875 -20.390625 L 6.171875 -13.515625 L 13.953125 -13.515625 C 14.390625 -13.984375 14.710938 -14.453125 14.921875 -14.921875 C 15.140625 -15.398438 15.25 -16 15.25 -16.71875 C 15.25 -19.28125 13.445312 -20.5625 9.84375 -20.5625 C 8.78125 -20.5625 7.898438 -20.53125 7.203125 -20.46875 C 6.515625 -20.414062 6.171875 -20.390625 6.171875 -20.390625 Z M 15.515625 -3.796875 C 15.890625 -4.285156 16.144531 -4.796875 16.28125 -5.328125 C 16.425781 -5.867188 16.5 -6.46875 16.5 -7.125 C 16.5 -8.28125 16.15625 -9.171875 15.46875 -9.796875 C 14.78125 -10.429688 13.742188 -10.75 12.359375 -10.75 L 6.171875 -10.75 L 6.171875 -3.03125 L 11.109375 -3.03125 C 12.890625 -3.03125 14.359375 -3.285156 15.515625 -3.796875 Z M 15.515625 -3.796875 "/></g></g></g><g fill="#ecece2" fill-opacity="1"><g transform="translate(337.204901, 52.72225)"><g><path d="M 2.71875 0.09375 C 2.6875 -3.425781 2.65625 -7.085938 2.625 -10.890625 C 2.601562 -14.691406 2.550781 -18.648438 2.46875 -22.765625 C 3.675781 -23.222656 4.910156 -23.425781 6.171875 -23.375 L 6.171875 -0.09375 C 5.890625 0 5.429688 0.0703125 4.796875 0.125 C 4.160156 0.1875 3.46875 0.175781 2.71875 0.09375 Z M 2.71875 0.09375 "/></g></g></g><g fill="#ecece2" fill-opacity="1"><g transform="translate(361.654633, 52.72225)"><g><path d="M 2.71875 0 C 2.6875 -3.488281 2.65625 -7.132812 2.625 -10.9375 C 2.601562 -14.738281 2.550781 -18.695312 2.46875 -22.8125 C 3.53125 -23.039062 4.726562 -23.21875 6.0625 -23.34375 C 7.40625 -23.476562 8.785156 -23.546875 10.203125 -23.546875 C 14.234375 -23.546875 17.289062 -22.53125 19.375 -20.5 C 21.46875 -18.46875 22.515625 -15.535156 22.515625 -11.703125 C 22.515625 -7.898438 21.5 -5 19.46875 -3 C 17.4375 -1 14.488281 0 10.625 0 Z M 6.171875 -3.03125 L 10.890625 -3.03125 C 13.128906 -3.03125 14.972656 -3.390625 16.421875 -4.109375 C 17.253906 -5.109375 17.847656 -6.226562 18.203125 -7.46875 C 18.566406 -8.707031 18.75 -10.117188 18.75 -11.703125 C 18.75 -14.554688 18.015625 -16.738281 16.546875 -18.25 C 15.078125 -19.757812 12.84375 -20.515625 9.84375 -20.515625 C 8.78125 -20.515625 7.898438 -20.484375 7.203125 -20.421875 C 6.515625 -20.367188 6.171875 -20.34375 6.171875 -20.34375 Z M 6.171875 -3.03125 "/></g></g></g><g fill="#ecece2" fill-opacity="1"><g transform="translate(401.35008, 52.72225)"><g><path d="M 13.515625 -23.109375 L 21.984375 -0.296875 C 21.472656 -0.0976562 20.867188 0.0703125 20.171875 0.21875 C 19.484375 0.363281 18.878906 0.421875 18.359375 0.390625 L 15.984375 -6.171875 L 6.21875 -6.171875 L 3.9375 0.390625 C 3.414062 0.421875 2.828125 0.363281 2.171875 0.21875 C 1.523438 0.0703125 0.945312 -0.0976562 0.4375 -0.296875 L 8.90625 -23.109375 C 9.53125 -23.222656 10.296875 -23.28125 11.203125 -23.28125 C 12.117188 -23.28125 12.890625 -23.222656 13.515625 -23.109375 Z M 7.265625 -9.078125 L 14.953125 -9.078125 L 11.015625 -19.828125 Z M 7.265625 -9.078125 "/></g></g></g></svg>