<svg xmlns="http://www.w3.org/2000/svg" xmlns:xlink="http://www.w3.org/1999/xlink" width="78" zoomAndPan="magnify" viewBox="0 0 58.5 128.250003" height="171" preserveAspectRatio="xMidYMid meet" version="1.0"><path stroke-linecap="round" transform="matrix(2.385858, 0, 0, 2.385858, 0.000000000000015852, 30.214947)" fill="none" stroke-linejoin="round" d="M 6.300144 5.000123 L 20.99939 5.000123 L 19.000305 11.999374 L 7.377456 11.999374 M 20.000666 16.000817 L 7.999612 16.000817 L 6.000527 2.999402 L 2.999445 2.999402 M 8.999972 20.000623 C 8.999972 20.552377 8.553003 20.999347 7.999612 20.999347 C 7.447858 20.999347 6.999251 20.552377 6.999251 20.000623 C 6.999251 19.447232 7.447858 19.000262 7.999612 19.000262 C 8.553003 19.000262 8.999972 19.447232 8.999972 20.000623 Z M 20.000666 20.000623 C 20.000666 20.552377 19.552059 20.999347 19.000305 20.999347 C 18.446914 20.999347 17.999945 20.552377 17.999945 20.000623 C 17.999945 19.447232 18.446914 19.000262 19.000305 19.000262 C 19.552059 19.000262 20.000666 19.447232 20.000666 20.000623 Z M 20.000666 20.000623 " stroke="#b4d3d5" stroke-width="2" stroke-opacity="1" stroke-miterlimit="4"/></svg>