<svg xmlns="http://www.w3.org/2000/svg" xmlns:xlink="http://www.w3.org/1999/xlink" width="871" zoomAndPan="magnify" viewBox="0 0 653.25 91.5" height="122" preserveAspectRatio="xMidYMid meet" version="1.0"><defs><g/></defs><g fill="#ecece2" fill-opacity="1"><g transform="translate(204.694907, 52.72225)"><g><path d="M 12.78125 0.609375 C 10.332031 0.609375 8.265625 0.0976562 6.578125 -0.921875 C 4.898438 -1.953125 3.628906 -3.390625 2.765625 -5.234375 C 1.898438 -7.078125 1.46875 -9.191406 1.46875 -11.578125 C 1.46875 -15.441406 2.488281 -18.429688 4.53125 -20.546875 C 6.582031 -22.660156 9.4375 -23.71875 13.09375 -23.71875 C 15.800781 -23.71875 18.03125 -23.171875 19.78125 -22.078125 C 19.613281 -20.921875 19.171875 -19.925781 18.453125 -19.09375 C 16.804688 -20.039062 14.929688 -20.515625 12.828125 -20.515625 C 11.796875 -20.515625 10.820312 -20.414062 9.90625 -20.21875 C 9 -20.019531 8.203125 -19.742188 7.515625 -19.390625 C 6.878906 -18.585938 6.332031 -17.566406 5.875 -16.328125 C 5.414062 -15.085938 5.1875 -13.503906 5.1875 -11.578125 C 5.1875 -8.816406 5.882812 -6.617188 7.28125 -4.984375 C 8.675781 -3.359375 10.710938 -2.546875 13.390625 -2.546875 C 14.367188 -2.546875 15.316406 -2.675781 16.234375 -2.9375 C 17.160156 -3.195312 17.984375 -3.554688 18.703125 -4.015625 C 18.960938 -3.640625 19.207031 -3.1875 19.4375 -2.65625 C 19.664062 -2.125 19.828125 -1.65625 19.921875 -1.25 C 19.023438 -0.644531 17.945312 -0.1875 16.6875 0.125 C 15.4375 0.445312 14.132812 0.609375 12.78125 0.609375 Z M 12.78125 0.609375 "/></g></g></g><g fill="#ecece2" fill-opacity="1"><g transform="translate(241.280778, 52.72225)"><g><path d="M 11.796875 0.609375 C 8.828125 0.609375 6.5625 -0.0507812 5 -1.375 C 3.445312 -2.707031 2.660156 -4.695312 2.640625 -7.34375 C 2.640625 -9.070312 2.613281 -11.160156 2.5625 -13.609375 C 2.519531 -16.054688 2.472656 -19.109375 2.421875 -22.765625 C 3.628906 -23.222656 4.867188 -23.425781 6.140625 -23.375 L 6.140625 -7.6875 C 6.140625 -4.207031 8.164062 -2.46875 12.21875 -2.46875 C 15.882812 -2.46875 17.757812 -4.222656 17.84375 -7.734375 C 17.875 -9.742188 17.859375 -12.050781 17.796875 -14.65625 C 17.742188 -17.269531 17.6875 -19.972656 17.625 -22.765625 C 18.832031 -23.222656 20.070312 -23.425781 21.34375 -23.375 L 21.21875 -8.078125 C 21.1875 -5.222656 20.363281 -3.0625 18.75 -1.59375 C 17.132812 -0.125 14.816406 0.609375 11.796875 0.609375 Z M 11.796875 0.609375 "/></g></g></g><g fill="#ecece2" fill-opacity="1"><g transform="translate(280.760294, 52.72225)"><g><path d="M 2.71875 0.09375 C 2.6875 -3.425781 2.65625 -7.078125 2.625 -10.859375 C 2.601562 -14.648438 2.550781 -18.632812 2.46875 -22.8125 C 3.53125 -23.039062 4.726562 -23.21875 6.0625 -23.34375 C 7.40625 -23.476562 8.785156 -23.546875 10.203125 -23.546875 C 13.109375 -23.546875 15.335938 -22.925781 16.890625 -21.6875 C 18.441406 -20.445312 19.21875 -18.644531 19.21875 -16.28125 C 19.21875 -11.300781 16.066406 -8.8125 9.765625 -8.8125 L 6.171875 -8.8125 L 6.171875 -0.09375 C 5.890625 0 5.429688 0.0703125 4.796875 0.125 C 4.160156 0.1875 3.46875 0.175781 2.71875 0.09375 Z M 6.171875 -11.796875 L 10.0625 -11.796875 C 11.90625 -11.796875 13.300781 -12.023438 14.25 -12.484375 C 15.09375 -13.347656 15.515625 -14.585938 15.515625 -16.203125 C 15.515625 -17.609375 15 -18.675781 13.96875 -19.40625 C 12.945312 -20.144531 11.515625 -20.515625 9.671875 -20.515625 C 8.609375 -20.515625 7.757812 -20.484375 7.125 -20.421875 C 6.488281 -20.367188 6.171875 -20.34375 6.171875 -20.34375 Z M 6.171875 -11.796875 "/></g></g></g><g fill="#ecece2" fill-opacity="1"><g transform="translate(316.611929, 52.72225)"><g><path d="M 12.78125 0.609375 C 10.332031 0.609375 8.265625 0.0976562 6.578125 -0.921875 C 4.898438 -1.953125 3.628906 -3.390625 2.765625 -5.234375 C 1.898438 -7.078125 1.46875 -9.191406 1.46875 -11.578125 C 1.46875 -15.441406 2.488281 -18.429688 4.53125 -20.546875 C 6.582031 -22.660156 9.4375 -23.71875 13.09375 -23.71875 C 15.800781 -23.71875 18.03125 -23.171875 19.78125 -22.078125 C 19.613281 -20.921875 19.171875 -19.925781 18.453125 -19.09375 C 16.804688 -20.039062 14.929688 -20.515625 12.828125 -20.515625 C 11.796875 -20.515625 10.820312 -20.414062 9.90625 -20.21875 C 9 -20.019531 8.203125 -19.742188 7.515625 -19.390625 C 6.878906 -18.585938 6.332031 -17.566406 5.875 -16.328125 C 5.414062 -15.085938 5.1875 -13.503906 5.1875 -11.578125 C 5.1875 -8.816406 5.882812 -6.617188 7.28125 -4.984375 C 8.675781 -3.359375 10.710938 -2.546875 13.390625 -2.546875 C 14.367188 -2.546875 15.316406 -2.675781 16.234375 -2.9375 C 17.160156 -3.195312 17.984375 -3.554688 18.703125 -4.015625 C 18.960938 -3.640625 19.207031 -3.1875 19.4375 -2.65625 C 19.664062 -2.125 19.828125 -1.65625 19.921875 -1.25 C 19.023438 -0.644531 17.945312 -0.1875 16.6875 0.125 C 15.4375 0.445312 14.132812 0.609375 12.78125 0.609375 Z M 12.78125 0.609375 "/></g></g></g><g fill="#ecece2" fill-opacity="1"><g transform="translate(353.1978, 52.72225)"><g><path d="M 13.515625 -23.109375 L 21.984375 -0.296875 C 21.472656 -0.0976562 20.867188 0.0703125 20.171875 0.21875 C 19.484375 0.363281 18.878906 0.421875 18.359375 0.390625 L 15.984375 -6.171875 L 6.21875 -6.171875 L 3.9375 0.390625 C 3.414062 0.421875 2.828125 0.363281 2.171875 0.21875 C 1.523438 0.0703125 0.945312 -0.0976562 0.4375 -0.296875 L 8.90625 -23.109375 C 9.53125 -23.222656 10.296875 -23.28125 11.203125 -23.28125 C 12.117188 -23.28125 12.890625 -23.222656 13.515625 -23.109375 Z M 7.265625 -9.078125 L 14.953125 -9.078125 L 11.015625 -19.828125 Z M 7.265625 -9.078125 "/></g></g></g><g fill="#ecece2" fill-opacity="1"><g transform="translate(391.338453, 52.72225)"><g><path d="M 16.71875 0.296875 L 6.171875 -10.890625 L 6.171875 -0.046875 C 5.890625 0.046875 5.429688 0.117188 4.796875 0.171875 C 4.160156 0.234375 3.46875 0.21875 2.71875 0.125 C 2.6875 -3.382812 2.65625 -7.039062 2.625 -10.84375 C 2.601562 -14.644531 2.550781 -18.601562 2.46875 -22.71875 C 3.675781 -23.1875 4.910156 -23.390625 6.171875 -23.328125 L 6.171875 -12.09375 L 16.203125 -23.375 C 17.523438 -23.375 18.734375 -23.144531 19.828125 -22.6875 L 9.9375 -11.96875 L 20.78125 -0.34375 C 20.289062 -0.144531 19.671875 0.015625 18.921875 0.140625 C 18.171875 0.273438 17.4375 0.328125 16.71875 0.296875 Z M 16.71875 0.296875 "/></g></g></g><g fill="#ecece2" fill-opacity="1"><g transform="translate(427.924316, 52.72225)"><g><path d="M 2.71875 0 C 2.6875 -3.488281 2.65625 -7.125 2.625 -10.90625 C 2.601562 -14.695312 2.550781 -18.625 2.46875 -22.6875 C 3.007812 -22.820312 3.617188 -22.925781 4.296875 -23 C 4.972656 -23.070312 5.890625 -23.109375 7.046875 -23.109375 L 17.578125 -23.109375 C 17.671875 -22.710938 17.71875 -22.207031 17.71875 -21.59375 C 17.71875 -20.988281 17.671875 -20.488281 17.578125 -20.09375 L 6.171875 -20.09375 L 6.171875 -13.171875 L 15.984375 -13.171875 C 16.066406 -12.773438 16.109375 -12.285156 16.109375 -11.703125 C 16.109375 -11.128906 16.066406 -10.640625 15.984375 -10.234375 L 6.171875 -10.234375 L 6.171875 -3.03125 L 17.84375 -3.03125 C 17.957031 -2.625 18.015625 -2.117188 18.015625 -1.515625 C 18.015625 -0.910156 17.957031 -0.40625 17.84375 0 Z M 2.71875 0 "/></g></g></g></svg>