<svg xmlns="http://www.w3.org/2000/svg" xmlns:xlink="http://www.w3.org/1999/xlink" width="871" zoomAndPan="magnify" viewBox="0 0 653.25 91.5" height="122" preserveAspectRatio="xMidYMid meet" version="1.0"><defs><g/></defs><g fill="#ecece2" fill-opacity="1"><g transform="translate(257.224873, 52.72225)"><g><path d="M 2.71875 0 C 2.6875 -3.488281 2.65625 -7.132812 2.625 -10.9375 C 2.601562 -14.738281 2.550781 -18.695312 2.46875 -22.8125 C 3.53125 -23.039062 4.726562 -23.21875 6.0625 -23.34375 C 7.40625 -23.476562 8.785156 -23.546875 10.203125 -23.546875 C 14.234375 -23.546875 17.289062 -22.53125 19.375 -20.5 C 21.46875 -18.46875 22.515625 -15.535156 22.515625 -11.703125 C 22.515625 -7.898438 21.5 -5 19.46875 -3 C 17.4375 -1 14.488281 0 10.625 0 Z M 6.171875 -3.03125 L 10.890625 -3.03125 C 13.128906 -3.03125 14.972656 -3.390625 16.421875 -4.109375 C 17.253906 -5.109375 17.847656 -6.226562 18.203125 -7.46875 C 18.566406 -8.707031 18.75 -10.117188 18.75 -11.703125 C 18.75 -14.554688 18.015625 -16.738281 16.546875 -18.25 C 15.078125 -19.757812 12.84375 -20.515625 9.84375 -20.515625 C 8.78125 -20.515625 7.898438 -20.484375 7.203125 -20.421875 C 6.515625 -20.367188 6.171875 -20.34375 6.171875 -20.34375 Z M 6.171875 -3.03125 "/></g></g></g><g fill="#ecece2" fill-opacity="1"><g transform="translate(296.920326, 52.72225)"><g><path d="M 13 0.609375 C 10.46875 0.609375 8.34375 0.0976562 6.625 -0.921875 C 4.914062 -1.953125 3.628906 -3.390625 2.765625 -5.234375 C 1.898438 -7.078125 1.46875 -9.191406 1.46875 -11.578125 C 1.46875 -15.441406 2.492188 -18.429688 4.546875 -20.546875 C 6.609375 -22.660156 9.472656 -23.71875 13.140625 -23.71875 C 15.671875 -23.71875 17.789062 -23.207031 19.5 -22.1875 C 21.21875 -21.164062 22.507812 -19.742188 23.375 -17.921875 C 24.238281 -16.109375 24.671875 -13.992188 24.671875 -11.578125 C 24.671875 -7.722656 23.644531 -4.726562 21.59375 -2.59375 C 19.550781 -0.457031 16.6875 0.609375 13 0.609375 Z M 13.515625 -2.46875 C 14.472656 -2.46875 15.382812 -2.566406 16.25 -2.765625 C 17.113281 -2.960938 17.875 -3.234375 18.53125 -3.578125 C 19.164062 -4.441406 19.726562 -5.519531 20.21875 -6.8125 C 20.707031 -8.113281 20.953125 -9.703125 20.953125 -11.578125 C 20.953125 -14.429688 20.203125 -16.660156 18.703125 -18.265625 C 17.203125 -19.878906 15.171875 -20.6875 12.609375 -20.6875 C 11.660156 -20.6875 10.753906 -20.578125 9.890625 -20.359375 C 9.023438 -20.148438 8.265625 -19.890625 7.609375 -19.578125 C 6.972656 -18.679688 6.410156 -17.59375 5.921875 -16.3125 C 5.429688 -15.03125 5.1875 -13.453125 5.1875 -11.578125 C 5.1875 -8.703125 5.925781 -6.460938 7.40625 -4.859375 C 8.894531 -3.265625 10.929688 -2.46875 13.515625 -2.46875 Z M 13.515625 -2.46875 "/></g></g></g><g fill="#ecece2" fill-opacity="1"><g transform="translate(338.775224, 52.72225)"><g><path d="M 12.78125 0.609375 C 10.332031 0.609375 8.265625 0.0976562 6.578125 -0.921875 C 4.898438 -1.953125 3.628906 -3.390625 2.765625 -5.234375 C 1.898438 -7.078125 1.46875 -9.191406 1.46875 -11.578125 C 1.46875 -15.441406 2.488281 -18.429688 4.53125 -20.546875 C 6.582031 -22.660156 9.4375 -23.71875 13.09375 -23.71875 C 15.800781 -23.71875 18.03125 -23.171875 19.78125 -22.078125 C 19.613281 -20.921875 19.171875 -19.925781 18.453125 -19.09375 C 16.804688 -20.039062 14.929688 -20.515625 12.828125 -20.515625 C 11.796875 -20.515625 10.820312 -20.414062 9.90625 -20.21875 C 9 -20.019531 8.203125 -19.742188 7.515625 -19.390625 C 6.878906 -18.585938 6.332031 -17.566406 5.875 -16.328125 C 5.414062 -15.085938 5.1875 -13.503906 5.1875 -11.578125 C 5.1875 -8.816406 5.882812 -6.617188 7.28125 -4.984375 C 8.675781 -3.359375 10.710938 -2.546875 13.390625 -2.546875 C 14.367188 -2.546875 15.316406 -2.675781 16.234375 -2.9375 C 17.160156 -3.195312 17.984375 -3.554688 18.703125 -4.015625 C 18.960938 -3.640625 19.207031 -3.1875 19.4375 -2.65625 C 19.664062 -2.125 19.828125 -1.65625 19.921875 -1.25 C 19.023438 -0.644531 17.945312 -0.1875 16.6875 0.125 C 15.4375 0.445312 14.132812 0.609375 12.78125 0.609375 Z M 12.78125 0.609375 "/></g></g></g><g fill="#ecece2" fill-opacity="1"><g transform="translate(375.361095, 52.72225)"><g><path d="M 2.71875 0 C 2.6875 -3.488281 2.65625 -7.125 2.625 -10.90625 C 2.601562 -14.695312 2.550781 -18.625 2.46875 -22.6875 C 3.007812 -22.820312 3.617188 -22.925781 4.296875 -23 C 4.972656 -23.070312 5.890625 -23.109375 7.046875 -23.109375 L 17.578125 -23.109375 C 17.671875 -22.710938 17.71875 -22.207031 17.71875 -21.59375 C 17.71875 -20.988281 17.671875 -20.488281 17.578125 -20.09375 L 6.171875 -20.09375 L 6.171875 -13.171875 L 15.984375 -13.171875 C 16.066406 -12.773438 16.109375 -12.285156 16.109375 -11.703125 C 16.109375 -11.128906 16.066406 -10.640625 15.984375 -10.234375 L 6.171875 -10.234375 L 6.171875 -3.03125 L 17.84375 -3.03125 C 17.957031 -2.625 18.015625 -2.117188 18.015625 -1.515625 C 18.015625 -0.910156 17.957031 -0.40625 17.84375 0 Z M 2.71875 0 "/></g></g></g></svg>