<svg xmlns="http://www.w3.org/2000/svg" xmlns:xlink="http://www.w3.org/1999/xlink" width="341" zoomAndPan="magnify" viewBox="0 0 255.75 290.250005" height="387" preserveAspectRatio="xMidYMid meet" version="1.0"><defs><g/><clipPath id="58a42f27e5"><path d="M 0.203125 0 L 255.296875 0 L 255.296875 289.5 L 0.203125 289.5 Z M 0.203125 0 " clip-rule="nonzero"/></clipPath><clipPath id="6c2603cfc1"><path d="M 0.203125 0 L 255.246094 0 L 255.246094 289 L 0.203125 289 Z M 0.203125 0 " clip-rule="nonzero"/></clipPath><clipPath id="61d8fdc602"><path d="M 70.273438 29.777344 L 185.476562 29.777344 L 185.476562 144.980469 L 70.273438 144.980469 Z M 70.273438 29.777344 " clip-rule="nonzero"/></clipPath><clipPath id="ef81e7fd4b"><path d="M 34 162.050781 L 221.683594 162.050781 L 221.683594 191.976562 L 34 191.976562 Z M 34 162.050781 " clip-rule="nonzero"/></clipPath></defs><g clip-path="url(#58a42f27e5)"><path fill="#ffffff" d="M 0.203125 0 L 255.296875 0 L 255.296875 289.5 L 0.203125 289.5 Z M 0.203125 0 " fill-opacity="1" fill-rule="nonzero"/></g><g clip-path="url(#6c2603cfc1)"><path fill="#dff3e8" d="M 0.203125 0 L 255.246094 0 L 255.246094 288.910156 L 0.203125 288.910156 Z M 0.203125 0 " fill-opacity="1" fill-rule="nonzero"/></g><g clip-path="url(#61d8fdc602)"><path fill="#14272c" d="M 168.34375 46.605469 C 157.496094 35.753906 143.066406 29.777344 127.722656 29.777344 C 112.375 29.777344 97.949219 35.753906 87.097656 46.605469 C 76.25 57.453125 70.273438 71.882812 70.273438 87.226562 C 70.273438 102.570312 76.25 117 87.097656 127.851562 C 97.949219 138.699219 112.375 144.675781 127.722656 144.675781 C 143.066406 144.675781 157.496094 138.699219 168.34375 127.851562 C 179.195312 117 185.171875 102.574219 185.171875 87.226562 C 185.171875 71.882812 179.195312 57.453125 168.34375 46.605469 Z M 168.34375 46.605469 " fill-opacity="1" fill-rule="nonzero"/></g><path fill="#ffffff" d="M 141.441406 59.941406 C 141.890625 60.390625 142.316406 60.859375 142.722656 61.351562 C 143.125 61.84375 143.503906 62.351562 143.855469 62.878906 C 144.207031 63.410156 144.535156 63.953125 144.835938 64.515625 C 145.132812 65.074219 145.40625 65.648438 145.648438 66.234375 C 145.890625 66.820312 146.105469 67.417969 146.289062 68.027344 C 146.472656 68.636719 146.628906 69.25 146.753906 69.875 C 146.875 70.5 146.96875 71.125 147.03125 71.757812 C 147.09375 72.390625 147.125 73.023438 147.125 73.660156 C 147.125 74.296875 147.09375 74.929688 147.03125 75.5625 C 146.96875 76.195312 146.875 76.820312 146.753906 77.445312 C 146.628906 78.070312 146.472656 78.683594 146.289062 79.292969 C 146.105469 79.902344 145.890625 80.5 145.648438 81.085938 C 145.40625 81.671875 145.132812 82.246094 144.835938 82.804688 C 144.535156 83.367188 144.207031 83.910156 143.855469 84.441406 C 143.503906 84.96875 143.125 85.476562 142.722656 85.96875 C 142.316406 86.460938 141.890625 86.929688 141.441406 87.378906 C 140.992188 87.828125 140.523438 88.253906 140.03125 88.660156 C 139.539062 89.0625 139.03125 89.441406 138.503906 89.792969 C 137.972656 90.144531 137.429688 90.472656 136.867188 90.773438 C 136.308594 91.070312 135.734375 91.34375 135.148438 91.585938 C 134.5625 91.828125 133.964844 92.042969 133.355469 92.226562 C 132.746094 92.410156 132.132812 92.566406 131.507812 92.691406 C 130.886719 92.8125 130.257812 92.90625 129.625 92.96875 C 128.992188 93.03125 128.359375 93.0625 127.722656 93.0625 C 127.085938 93.0625 126.453125 93.03125 125.820312 92.96875 C 125.1875 92.90625 124.5625 92.8125 123.9375 92.691406 C 123.3125 92.566406 122.699219 92.410156 122.089844 92.226562 C 121.480469 92.042969 120.886719 91.828125 120.296875 91.585938 C 119.710938 91.34375 119.136719 91.070312 118.578125 90.773438 C 118.015625 90.472656 117.472656 90.144531 116.941406 89.792969 C 116.414062 89.441406 115.90625 89.0625 115.414062 88.660156 C 114.921875 88.253906 114.453125 87.828125 114.003906 87.378906 C 113.554688 86.929688 113.128906 86.460938 112.722656 85.96875 C 112.320312 85.476562 111.941406 84.96875 111.589844 84.441406 C 111.238281 83.910156 110.910156 83.367188 110.609375 82.804688 C 110.3125 82.246094 110.039062 81.671875 109.796875 81.085938 C 109.554688 80.5 109.339844 79.902344 109.15625 79.292969 C 108.972656 78.683594 108.816406 78.070312 108.691406 77.445312 C 108.570312 76.820312 108.476562 76.195312 108.414062 75.5625 C 108.351562 74.929688 108.320312 74.296875 108.320312 73.660156 C 108.320312 73.023438 108.351562 72.390625 108.414062 71.757812 C 108.476562 71.125 108.570312 70.5 108.691406 69.875 C 108.816406 69.25 108.972656 68.636719 109.15625 68.027344 C 109.339844 67.417969 109.554688 66.820312 109.796875 66.234375 C 110.039062 65.648438 110.3125 65.074219 110.609375 64.515625 C 110.910156 63.953125 111.238281 63.410156 111.589844 62.878906 C 111.941406 62.351562 112.320312 61.84375 112.722656 61.351562 C 113.128906 60.859375 113.554688 60.390625 114.003906 59.941406 C 114.453125 59.492188 114.921875 59.066406 115.414062 58.660156 C 115.90625 58.257812 116.414062 57.878906 116.941406 57.527344 C 117.472656 57.175781 118.015625 56.847656 118.578125 56.546875 C 119.136719 56.25 119.710938 55.976562 120.296875 55.734375 C 120.886719 55.492188 121.480469 55.277344 122.089844 55.09375 C 122.699219 54.910156 123.3125 54.753906 123.9375 54.628906 C 124.5625 54.507812 125.1875 54.414062 125.820312 54.351562 C 126.453125 54.289062 127.085938 54.257812 127.722656 54.257812 C 128.359375 54.257812 128.992188 54.289062 129.625 54.351562 C 130.257812 54.414062 130.886719 54.507812 131.507812 54.628906 C 132.132812 54.753906 132.746094 54.910156 133.355469 55.09375 C 133.964844 55.277344 134.5625 55.492188 135.148438 55.734375 C 135.734375 55.976562 136.308594 56.25 136.867188 56.546875 C 137.429688 56.847656 137.972656 57.175781 138.503906 57.527344 C 139.03125 57.878906 139.539062 58.257812 140.03125 58.660156 C 140.523438 59.066406 140.992188 59.492188 141.441406 59.941406 Z M 141.441406 59.941406 " fill-opacity="1" fill-rule="nonzero"/><path fill="#ffffff" d="M 128.285156 101.683594 L 127.164062 101.683594 C 111.308594 101.683594 97.957031 112.386719 93.933594 126.960938 C 103.046875 134.722656 114.84375 139.410156 127.722656 139.410156 C 140.597656 139.410156 152.398438 134.722656 161.511719 126.960938 C 157.488281 112.390625 144.136719 101.683594 128.28125 101.683594 Z M 128.285156 101.683594 " fill-opacity="1" fill-rule="nonzero"/><g clip-path="url(#ef81e7fd4b)"><path fill="#14272c" d="M 64.609375 173.984375 L 57.703125 180.71875 C 57.558594 180.859375 57.492188 181.0625 57.527344 181.257812 L 59.15625 190.769531 C 59.242188 191.269531 58.71875 191.648438 58.269531 191.414062 L 49.730469 186.921875 C 49.550781 186.828125 49.339844 186.828125 49.164062 186.921875 L 40.621094 191.414062 C 40.171875 191.648438 39.648438 191.269531 39.734375 190.769531 L 41.367188 181.257812 C 41.402344 181.0625 41.335938 180.859375 41.191406 180.71875 L 34.28125 173.984375 C 33.917969 173.628906 34.117188 173.015625 34.617188 172.941406 L 44.167969 171.554688 C 44.367188 171.527344 44.539062 171.402344 44.628906 171.21875 L 48.898438 162.566406 C 49.121094 162.113281 49.769531 162.113281 49.992188 162.566406 L 54.265625 171.21875 C 54.351562 171.402344 54.523438 171.523438 54.722656 171.554688 L 64.273438 172.941406 C 64.773438 173.015625 64.972656 173.628906 64.613281 173.984375 Z M 103.410156 172.941406 L 93.859375 171.554688 C 93.660156 171.527344 93.488281 171.402344 93.402344 171.21875 L 89.128906 162.566406 C 88.90625 162.113281 88.257812 162.113281 88.035156 162.566406 L 83.765625 171.21875 C 83.675781 171.402344 83.503906 171.523438 83.304688 171.554688 L 73.753906 172.941406 C 73.253906 173.015625 73.054688 173.628906 73.417969 173.984375 L 80.328125 180.71875 C 80.472656 180.859375 80.535156 181.0625 80.503906 181.257812 L 78.871094 190.769531 C 78.785156 191.269531 79.308594 191.648438 79.757812 191.414062 L 88.296875 186.921875 C 88.476562 186.828125 88.6875 186.828125 88.867188 186.921875 L 97.40625 191.414062 C 97.855469 191.648438 98.378906 191.269531 98.292969 190.769531 L 96.660156 181.257812 C 96.628906 181.0625 96.691406 180.859375 96.835938 180.71875 L 103.746094 173.984375 C 104.109375 173.628906 103.910156 173.015625 103.410156 172.941406 Z M 142.546875 172.941406 L 133 171.554688 C 132.800781 171.527344 132.628906 171.402344 132.539062 171.21875 L 128.269531 162.566406 C 128.042969 162.113281 127.394531 162.113281 127.171875 162.566406 L 122.902344 171.21875 C 122.8125 171.402344 122.640625 171.523438 122.441406 171.554688 L 112.894531 172.941406 C 112.390625 173.015625 112.191406 173.628906 112.554688 173.984375 L 119.464844 180.71875 C 119.609375 180.859375 119.671875 181.0625 119.640625 181.257812 L 118.007812 190.769531 C 117.921875 191.269531 118.445312 191.648438 118.894531 191.414062 L 127.433594 186.921875 C 127.613281 186.828125 127.824219 186.828125 128.003906 186.921875 L 136.542969 191.414062 C 136.992188 191.648438 137.515625 191.269531 137.429688 190.769531 L 135.796875 181.257812 C 135.765625 181.0625 135.832031 180.859375 135.972656 180.71875 L 142.882812 173.984375 C 143.246094 173.628906 143.046875 173.015625 142.546875 172.941406 Z M 181.683594 172.941406 L 172.136719 171.554688 C 171.9375 171.527344 171.765625 171.402344 171.675781 171.21875 L 167.40625 162.566406 C 167.179688 162.113281 166.535156 162.113281 166.308594 162.566406 L 162.039062 171.21875 C 161.949219 171.402344 161.777344 171.523438 161.578125 171.554688 L 152.03125 172.941406 C 151.53125 173.015625 151.328125 173.628906 151.691406 173.984375 L 158.601562 180.71875 C 158.746094 180.859375 158.8125 181.0625 158.777344 181.257812 L 157.144531 190.769531 C 157.058594 191.269531 157.585938 191.648438 158.03125 191.414062 L 166.574219 186.921875 C 166.75 186.828125 166.964844 186.828125 167.140625 186.921875 L 175.683594 191.414062 C 176.128906 191.648438 176.652344 191.269531 176.566406 190.769531 L 174.9375 181.257812 C 174.902344 181.0625 174.96875 180.859375 175.113281 180.71875 L 182.019531 173.984375 C 182.382812 173.628906 182.183594 173.015625 181.683594 172.941406 Z M 221.160156 173.984375 C 221.523438 173.628906 221.324219 173.015625 220.824219 172.941406 L 211.273438 171.554688 C 211.074219 171.527344 210.902344 171.402344 210.8125 171.21875 L 206.542969 162.566406 C 206.320312 162.113281 205.671875 162.113281 205.449219 162.566406 L 201.175781 171.21875 C 201.089844 171.402344 200.914062 171.523438 200.71875 171.554688 L 191.167969 172.941406 C 190.667969 173.015625 190.46875 173.628906 190.828125 173.984375 L 197.738281 180.71875 C 197.882812 180.859375 197.949219 181.0625 197.914062 181.257812 L 196.285156 190.769531 C 196.199219 191.269531 196.722656 191.648438 197.167969 191.414062 L 205.710938 186.921875 C 205.886719 186.828125 206.101562 186.828125 206.277344 186.921875 L 214.820312 191.414062 C 215.265625 191.648438 215.789062 191.269531 215.707031 190.769531 L 214.074219 181.257812 C 214.039062 181.0625 214.105469 180.859375 214.25 180.71875 Z M 221.160156 173.984375 " fill-opacity="1" fill-rule="nonzero"/></g><g fill="#14272c" fill-opacity="1"><g transform="translate(66.46949, 245.215197)"><g><path d="M 5.75 -19.109375 L 5.75 0 L 1.390625 0 L 1.390625 -19.109375 Z M 5.75 -19.109375 "/></g></g></g><g fill="#14272c" fill-opacity="1"><g transform="translate(74.757917, 245.215197)"><g><path d="M 5.75 -11.859375 L 5.75 0 L 1.390625 0 L 1.390625 -19.109375 L 5.75 -19.109375 L 13.34375 -7.25 L 13.390625 -7.25 L 13.390625 -19.109375 L 17.734375 -19.109375 L 17.734375 0 L 13.390625 0 L 5.78125 -11.859375 Z M 5.75 -11.859375 "/></g></g></g><g fill="#14272c" fill-opacity="1"><g transform="translate(95.038549, 245.215197)"><g><path d="M 11.5625 -3.9375 C 12.21875 -3.9375 12.859375 -4.035156 13.484375 -4.234375 C 14.109375 -4.429688 14.566406 -4.625 14.859375 -4.8125 L 15.3125 -5.125 L 17.15625 -1.40625 C 17.09375 -1.363281 17.003906 -1.300781 16.890625 -1.21875 C 16.785156 -1.144531 16.535156 -1.003906 16.140625 -0.796875 C 15.753906 -0.585938 15.335938 -0.40625 14.890625 -0.25 C 14.441406 -0.09375 13.851562 0.0390625 13.125 0.15625 C 12.40625 0.28125 11.660156 0.34375 10.890625 0.34375 C 9.109375 0.34375 7.421875 -0.0859375 5.828125 -0.953125 C 4.242188 -1.828125 2.960938 -3.03125 1.984375 -4.5625 C 1.015625 -6.09375 0.53125 -7.742188 0.53125 -9.515625 C 0.53125 -10.859375 0.816406 -12.144531 1.390625 -13.375 C 1.960938 -14.613281 2.722656 -15.671875 3.671875 -16.546875 C 4.617188 -17.429688 5.722656 -18.132812 6.984375 -18.65625 C 8.253906 -19.1875 9.554688 -19.453125 10.890625 -19.453125 C 12.117188 -19.453125 13.253906 -19.304688 14.296875 -19.015625 C 15.335938 -18.722656 16.078125 -18.425781 16.515625 -18.125 L 17.15625 -17.6875 L 15.3125 -13.984375 C 15.195312 -14.078125 15.03125 -14.1875 14.8125 -14.3125 C 14.601562 -14.445312 14.171875 -14.625 13.515625 -14.84375 C 12.867188 -15.0625 12.21875 -15.171875 11.5625 -15.171875 C 10.507812 -15.171875 9.566406 -15 8.734375 -14.65625 C 7.898438 -14.3125 7.238281 -13.863281 6.75 -13.3125 C 6.257812 -12.757812 5.882812 -12.160156 5.625 -11.515625 C 5.375 -10.878906 5.25 -10.226562 5.25 -9.5625 C 5.25 -8.113281 5.789062 -6.8125 6.875 -5.65625 C 7.96875 -4.507812 9.53125 -3.9375 11.5625 -3.9375 Z M 11.5625 -3.9375 "/></g></g></g><g fill="#14272c" fill-opacity="1"><g transform="translate(113.629158, 245.215197)"><g><path d="M 1.390625 -19.109375 L 8.21875 -19.109375 C 10.050781 -19.109375 11.546875 -18.613281 12.703125 -17.625 C 13.867188 -16.644531 14.453125 -15.25 14.453125 -13.4375 C 14.453125 -12.03125 14.097656 -10.847656 13.390625 -9.890625 C 12.691406 -8.941406 11.738281 -8.273438 10.53125 -7.890625 L 17.109375 0 L 11.578125 0 L 5.75 -7.546875 L 5.75 0 L 1.390625 0 Z M 5.75 -10.625 L 6.25 -10.625 C 6.65625 -10.625 6.992188 -10.628906 7.265625 -10.640625 C 7.546875 -10.660156 7.863281 -10.71875 8.21875 -10.8125 C 8.570312 -10.90625 8.859375 -11.035156 9.078125 -11.203125 C 9.296875 -11.378906 9.476562 -11.628906 9.625 -11.953125 C 9.78125 -12.273438 9.859375 -12.664062 9.859375 -13.125 C 9.859375 -13.59375 9.78125 -13.988281 9.625 -14.3125 C 9.476562 -14.632812 9.296875 -14.878906 9.078125 -15.046875 C 8.859375 -15.222656 8.570312 -15.351562 8.21875 -15.4375 C 7.863281 -15.53125 7.546875 -15.582031 7.265625 -15.59375 C 6.992188 -15.613281 6.65625 -15.625 6.25 -15.625 L 5.75 -15.625 Z M 5.75 -10.625 "/></g></g></g><g fill="#14272c" fill-opacity="1"><g transform="translate(131.363182, 245.215197)"><g><path d="M 1.296875 -22.59375 L 6 -26.671875 L 8.109375 -24.015625 L 2.59375 -20.8125 Z M 5.75 -19.109375 L 5.75 0 L 1.390625 0 L 1.390625 -19.109375 Z M 5.75 -19.109375 "/></g></g></g><g fill="#14272c" fill-opacity="1"><g transform="translate(139.651609, 245.215197)"><g><path d="M 7.359375 0 L -0.640625 -19.109375 L 4.265625 -19.109375 L 9.078125 -6.546875 L 13.890625 -19.109375 L 18.796875 -19.109375 L 10.796875 0 Z M 7.359375 0 "/></g></g></g><g fill="#14272c" fill-opacity="1"><g transform="translate(158.959899, 245.215197)"><g><path d="M 12.3125 -19.109375 L 12.3125 -15.28125 L 5.75 -15.28125 L 5.75 -11.484375 L 12.046875 -11.484375 L 12.046875 -7.671875 L 5.75 -7.671875 L 5.75 -3.828125 L 12.3125 -3.828125 L 12.3125 0 L 1.390625 0 L 1.390625 -19.109375 Z M 12.3125 -19.109375 "/></g></g></g><g fill="#14272c" fill-opacity="1"><g transform="translate(173.545391, 245.215197)"><g><path d="M 5.75 -19.109375 L 5.75 -3.828125 L 12.3125 -3.828125 L 12.3125 0 L 1.390625 0 L 1.390625 -19.109375 Z M 5.75 -19.109375 "/></g></g></g></svg>