<svg xmlns="http://www.w3.org/2000/svg" xmlns:xlink="http://www.w3.org/1999/xlink" width="1366" zoomAndPan="magnify" viewBox="0 0 1024.5 576" height="768" preserveAspectRatio="xMidYMid meet" version="1.0"><defs><g/><clipPath id="d1fbc9f12b"><path d="M 0 0.140625 L 1024 0.140625 L 1024 575.859375 L 0 575.859375 Z M 0 0.140625 " clip-rule="nonzero"/></clipPath><clipPath id="0085725b24"><path d="M 123 129 L 142.613281 129 L 142.613281 154 L 123 154 Z M 123 129 " clip-rule="nonzero"/></clipPath><clipPath id="735d851db3"><path d="M 953 99 L 995.726562 99 L 995.726562 162 L 953 162 Z M 953 99 " clip-rule="nonzero"/></clipPath><clipPath id="f1d25b22ab"><path d="M 891.621094 129 L 911 129 L 911 154 L 891.621094 154 Z M 891.621094 129 " clip-rule="nonzero"/></clipPath></defs><g clip-path="url(#d1fbc9f12b)"><path fill="#ffffff" d="M 0 0.140625 L 1024 0.140625 L 1024 575.859375 L 0 575.859375 Z M 0 0.140625 " fill-opacity="1" fill-rule="nonzero"/><path fill="#1f3f47" d="M 0 0.140625 L 1024 0.140625 L 1024 575.859375 L 0 575.859375 Z M 0 0.140625 " fill-opacity="1" fill-rule="nonzero"/></g><path fill="#403d3d" d="M 139.066406 134.953125 C 139.035156 131.605469 138.214844 128.207031 136.550781 125.636719 C 136.050781 124.871094 135.832031 123.949219 136 123.050781 C 137.410156 115.578125 135.617188 108.238281 131.019531 102.269531 C 128.472656 95.5625 121.507812 91.800781 114.863281 89.304688 C 97.199219 82.660156 78.453125 81.28125 53.261719 90.246094 C 45.910156 98.792969 40.324219 107.949219 40.035156 119.433594 C 39.746094 130.917969 44.878906 144.519531 53.609375 151.453125 C 63.433594 159.253906 74.976562 160.957031 87.304688 161.578125 C 94.796875 161.957031 101.601562 161.671875 110.332031 158.203125 C 111.574219 157.707031 112.867188 157.355469 114.175781 157.097656 C 118.511719 156.238281 123.070312 155.351562 127.183594 153.292969 C 127.785156 152.992188 128.378906 152.660156 128.957031 152.304688 " fill-opacity="1" fill-rule="nonzero"/><path fill="#403d3d" d="M 105.070312 116.238281 C 116.9375 114.605469 130.085938 110.5625 135.621094 92.871094 C 140.851562 76.15625 129.511719 55.347656 121.109375 47.117188 C 106.703125 33.011719 79.773438 29.242188 61.367188 46.246094 C 52.34375 54.582031 39.417969 74.332031 42.648438 91.179688 C 44.589844 101.296875 52.839844 112.699219 78.4375 115.550781 C 80.972656 115.835938 97.851562 117.230469 105.070312 116.238281 Z M 105.070312 116.238281 " fill-opacity="1" fill-rule="nonzero"/><path fill="#ffffff" d="M 101.214844 116.796875 C 112.332031 117.46875 123.167969 111.761719 129.648438 104.425781 C 134.914062 98.464844 136.691406 92.191406 136.507812 85.144531 C 136.324219 78.101562 137.761719 76.375 134.820312 71.175781 C 132.027344 66.230469 125.742188 62.351562 120.945312 64.800781 C 116.148438 67.25 112.460938 71.828125 111.054688 77.082031 C 110.300781 79.894531 110.265625 83.167969 112.066406 85.449219 C 109.101562 85.535156 106.132812 85.617188 103.164062 85.703125 C 103.75 78.859375 100.703125 72.058594 95.378906 68.378906 C 90.054688 64.695312 82.695312 64.296875 77.023438 67.382812 C 70.851562 70.957031 62.066406 76.824219 61.445312 83.59375 C 60.828125 90.359375 58.769531 102.8125 72.324219 110.917969 C 84.46875 116.667969 90.195312 116.128906 101.214844 116.796875 Z M 101.214844 116.796875 " fill-opacity="1" fill-rule="nonzero"/><path fill="#fd9808" d="M 103.667969 84.535156 C 102.480469 84.875 101.359375 85.539062 100.855469 86.5 C 100.316406 87.519531 100.5625 88.714844 101.183594 89.675781 C 101.804688 90.636719 102.761719 91.410156 103.703125 92.167969 C 104.855469 93.097656 106.21875 94.089844 107.839844 93.972656 C 108.882812 93.898438 109.808594 93.363281 110.589844 92.769531 C 111.859375 91.808594 112.902344 90.636719 113.632812 89.347656 C 114.070312 88.582031 114.402344 87.730469 114.25 86.902344 C 114.035156 85.730469 112.863281 84.824219 111.546875 84.386719 C 110.226562 83.949219 104.859375 84.199219 103.667969 84.535156 Z M 103.667969 84.535156 " fill-opacity="1" fill-rule="nonzero"/><path fill="#ed9184" d="M 79.292969 94.390625 C 79.292969 94.914062 79.195312 95.414062 78.996094 95.898438 C 78.796875 96.378906 78.511719 96.804688 78.144531 97.175781 C 77.777344 97.542969 77.351562 97.828125 76.871094 98.027344 C 76.390625 98.226562 75.890625 98.328125 75.371094 98.328125 C 74.851562 98.328125 74.351562 98.226562 73.871094 98.027344 C 73.390625 97.828125 72.964844 97.542969 72.597656 97.175781 C 72.230469 96.804688 71.945312 96.378906 71.746094 95.898438 C 71.546875 95.414062 71.449219 94.914062 71.449219 94.390625 C 71.449219 93.871094 71.546875 93.367188 71.746094 92.886719 C 71.945312 92.402344 72.230469 91.976562 72.597656 91.609375 C 72.964844 91.238281 73.390625 90.953125 73.871094 90.753906 C 74.351562 90.554688 74.851562 90.453125 75.371094 90.453125 C 75.890625 90.453125 76.390625 90.554688 76.871094 90.753906 C 77.351562 90.953125 77.777344 91.238281 78.144531 91.609375 C 78.511719 91.976562 78.796875 92.402344 78.996094 92.886719 C 79.195312 93.367188 79.292969 93.871094 79.292969 94.390625 Z M 79.292969 94.390625 " fill-opacity="1" fill-rule="nonzero"/><path fill="#000000" d="M 84.796875 87.179688 C 83.179688 87.761719 81.464844 88.417969 80.453125 89.8125 C 80.101562 90.300781 79.847656 90.917969 80.011719 91.5 C 80.179688 92.105469 80.777344 92.511719 81.390625 92.636719 C 82.007812 92.761719 82.640625 92.65625 83.257812 92.539062 C 84.605469 92.285156 85.945312 91.980469 87.238281 91.53125 C 87.984375 91.269531 88.734375 90.945312 89.296875 90.390625 C 89.863281 89.835938 90.210938 89 90 88.234375 C 89.769531 87.394531 88.925781 86.84375 88.074219 86.695312 C 87.21875 86.546875 86.316406 86.632812 84.796875 87.179688 Z M 84.796875 87.179688 " fill-opacity="1" fill-rule="nonzero"/><path fill="#000000" d="M 128.449219 84.957031 C 130.082031 85.492188 131.816406 86.09375 132.867188 87.460938 C 133.234375 87.9375 133.507812 88.546875 133.363281 89.132812 C 133.210938 89.742188 132.625 90.167969 132.015625 90.3125 C 131.402344 90.457031 130.765625 90.367188 130.144531 90.269531 C 128.792969 90.054688 127.445312 89.792969 126.136719 89.378906 C 125.382812 89.140625 124.625 88.839844 124.042969 88.300781 C 123.464844 87.761719 123.089844 86.9375 123.277344 86.167969 C 123.484375 85.324219 124.308594 84.746094 125.160156 84.570312 C 126.007812 84.398438 126.910156 84.457031 128.449219 84.957031 Z M 128.449219 84.957031 " fill-opacity="1" fill-rule="nonzero"/><path fill="#000000" d="M 80.183594 161.867188 C 80.152344 161.867188 80.125 161.867188 80.09375 161.863281 C 68.414062 160.574219 59.691406 157.371094 52.648438 151.773438 C 44.050781 144.945312 38.902344 133.125 39.207031 120.917969 C 39.375 114.328125 41.5625 107.089844 45.535156 99.980469 C 45.761719 99.574219 46.273438 99.429688 46.675781 99.660156 C 47.082031 99.886719 47.226562 100.398438 47 100.804688 C 43.15625 107.675781 41.042969 114.644531 40.886719 120.960938 C 40.59375 132.648438 45.5 143.949219 53.6875 150.453125 C 60.476562 155.84375 68.925781 158.9375 80.277344 160.1875 C 80.734375 160.238281 81.066406 160.65625 81.019531 161.117188 C 80.972656 161.546875 80.605469 161.867188 80.183594 161.867188 Z M 80.183594 161.867188 " fill-opacity="1" fill-rule="nonzero"/><path fill="#000000" d="M 96.527344 162.363281 C 96.097656 162.363281 95.730469 162.03125 95.691406 161.589844 C 95.652344 161.128906 95.996094 160.722656 96.457031 160.683594 C 101.082031 160.296875 105.394531 159.257812 110.023438 157.417969 C 111.238281 156.9375 112.542969 156.5625 114.015625 156.269531 L 114.144531 156.246094 C 118.417969 155.398438 122.839844 154.527344 126.808594 152.539062 C 127.390625 152.246094 127.96875 151.925781 128.527344 151.582031 C 128.921875 151.34375 129.4375 151.464844 129.679688 151.863281 C 129.921875 152.261719 129.796875 152.777344 129.402344 153.019531 C 128.800781 153.390625 128.179688 153.734375 127.558594 154.046875 C 123.386719 156.136719 118.851562 157.03125 114.46875 157.898438 L 114.339844 157.921875 C 112.96875 158.195312 111.757812 158.542969 110.640625 158.984375 C 105.855469 160.886719 101.390625 161.960938 96.597656 162.359375 C 96.574219 162.363281 96.550781 162.363281 96.527344 162.363281 Z M 96.527344 162.363281 " fill-opacity="1" fill-rule="nonzero"/><path fill="#000000" d="M 139.066406 135.796875 C 138.605469 135.796875 138.230469 135.425781 138.226562 134.960938 C 138.195312 131.5625 137.347656 128.414062 135.847656 126.097656 C 135.210938 125.117188 134.972656 123.980469 135.175781 122.894531 C 136.136719 117.789062 136.144531 110.152344 130.726562 102.757812 C 130.453125 102.382812 130.53125 101.855469 130.90625 101.578125 C 131.277344 101.304688 131.804688 101.382812 132.078125 101.757812 C 136.585938 107.910156 138.273438 115.527344 136.828125 123.207031 C 136.703125 123.863281 136.855469 124.566406 137.253906 125.179688 C 138.929688 127.761719 139.871094 131.230469 139.90625 134.945312 C 139.910156 135.410156 139.539062 135.792969 139.074219 135.796875 C 139.070312 135.796875 139.070312 135.796875 139.066406 135.796875 Z M 139.066406 135.796875 " fill-opacity="1" fill-rule="nonzero"/><path fill="#fd9808" d="M 129.390625 152.191406 C 132.734375 150.925781 137.625 147.273438 140.09375 143.148438 C 140.996094 141.640625 141.730469 139.898438 141.503906 138.140625 C 141.292969 136.53125 140.015625 134.992188 138.480469 134.886719 C 138.300781 134.875 138.207031 134.695312 138.296875 134.535156 C 139.042969 133.207031 138.746094 131.3125 137.566406 130.347656 C 136.273438 129.292969 133.339844 131.207031 132.003906 132.085938 C 124.488281 142.960938 119.109375 149.945312 129.390625 152.191406 Z M 129.390625 152.191406 " fill-opacity="1" fill-rule="nonzero"/><g clip-path="url(#0085725b24)"><path fill="#000000" d="M 129.292969 153.027344 C 128.097656 153.027344 126.90625 152.632812 125.890625 151.863281 C 124.03125 150.453125 123.191406 148.148438 123.699219 145.851562 C 125.320312 138.519531 130.464844 130.773438 134.710938 129.273438 C 136.359375 128.695312 137.457031 129.179688 138.09375 129.691406 C 139.363281 130.71875 139.851562 132.609375 139.347656 134.207031 C 140.859375 134.703125 142.101562 136.238281 142.335938 138.035156 C 142.550781 139.695312 142.050781 141.511719 140.8125 143.582031 C 139.394531 145.945312 135.871094 150.230469 131.953125 152.347656 C 131.113281 152.800781 130.199219 153.027344 129.292969 153.027344 Z M 136.140625 130.695312 C 135.902344 130.695312 135.617188 130.742188 135.269531 130.863281 C 131.921875 132.042969 126.960938 138.859375 125.339844 146.214844 C 124.972656 147.859375 125.574219 149.511719 126.902344 150.519531 C 128.175781 151.488281 129.769531 151.617188 131.160156 150.863281 C 134.75 148.921875 138.105469 144.835938 139.375 142.714844 C 140.410156 140.980469 140.835938 139.519531 140.671875 138.25 C 140.503906 136.953125 139.472656 135.800781 138.421875 135.726562 C 138.050781 135.703125 137.722656 135.492188 137.550781 135.167969 C 137.375 134.839844 137.378906 134.449219 137.566406 134.121094 C 138.121094 133.136719 137.875 131.679688 137.039062 131.003906 C 136.929688 130.914062 136.660156 130.695312 136.140625 130.695312 Z M 139.027344 134.949219 Z M 139.027344 134.949219 " fill-opacity="1" fill-rule="nonzero"/></g><path fill="#fd9808" d="M 94.769531 162.976562 C 89.210938 167.445312 81.628906 163.496094 77.851562 158.28125 C 76.566406 156.5 75.652344 154.234375 76.132812 152.066406 C 76.613281 149.898438 78.917969 148.121094 81.007812 148.46875 C 80.480469 146.535156 81.347656 144.292969 83.015625 143.273438 C 84.679688 142.25 86.996094 142.546875 88.441406 143.636719 C 88.925781 142.125 90.488281 141.148438 92.023438 141.148438 C 93.558594 141.148438 95.015625 142.003906 96.03125 143.199219 C 97.046875 144.394531 97.664062 145.898438 98.082031 147.429688 C 99.480469 152.53125 99.789062 158.941406 94.769531 162.976562 Z M 94.769531 162.976562 " fill-opacity="1" fill-rule="nonzero"/><path fill="#000000" d="M 89.273438 165.761719 C 88.808594 165.761719 88.332031 165.726562 87.851562 165.664062 C 83.964844 165.140625 79.871094 162.5 77.175781 158.773438 C 76.207031 157.4375 74.675781 154.765625 75.316406 151.886719 C 75.804688 149.679688 77.847656 147.835938 80.023438 147.605469 C 79.910156 145.582031 80.921875 143.566406 82.578125 142.554688 C 84.132812 141.601562 86.320312 141.558594 88.085938 142.433594 C 88.910156 141.136719 90.433594 140.304688 92.019531 140.304688 C 92.023438 140.304688 92.023438 140.304688 92.023438 140.304688 C 93.710938 140.308594 95.402344 141.164062 96.667969 142.652344 C 97.636719 143.792969 98.363281 145.28125 98.890625 147.207031 C 100.878906 154.464844 99.636719 160.144531 95.292969 163.632812 C 93.550781 165.039062 91.492188 165.761719 89.273438 165.761719 Z M 85.375 143.484375 C 84.679688 143.484375 84.003906 143.652344 83.453125 143.992188 C 82.300781 144.695312 81.582031 146.1875 81.707031 147.621094 C 81.742188 148.035156 81.609375 148.453125 81.339844 148.761719 C 81.078125 149.066406 80.714844 149.246094 80.316406 149.269531 C 78.804688 149.363281 77.296875 150.699219 76.953125 152.25 C 76.457031 154.484375 77.730469 156.675781 78.53125 157.785156 C 80.933594 161.097656 84.679688 163.535156 88.078125 163.992188 C 90.402344 164.308594 92.472656 163.742188 94.246094 162.320312 C 99.019531 158.484375 98.527344 152.226562 97.273438 147.65625 C 96.8125 145.972656 96.195312 144.691406 95.390625 143.746094 C 94.457031 142.648438 93.199219 141.992188 92.023438 141.992188 C 92.023438 141.992188 92.019531 141.992188 92.019531 141.992188 C 90.972656 141.992188 89.933594 142.574219 89.441406 143.441406 C 89.039062 144.144531 88.179688 144.398438 87.476562 144.015625 C 86.824219 143.660156 86.089844 143.484375 85.375 143.484375 Z M 85.375 143.484375 " fill-opacity="1" fill-rule="nonzero"/><path fill="#000000" d="M 46.695312 118.683594 C 46.65625 118.683594 46.617188 118.679688 46.578125 118.671875 C 46.117188 118.609375 45.796875 118.183594 45.863281 117.722656 L 46.957031 109.867188 C 47.019531 109.40625 47.445312 109.085938 47.902344 109.152344 C 48.363281 109.214844 48.683594 109.640625 48.617188 110.101562 L 47.523438 117.957031 C 47.464844 118.378906 47.105469 118.683594 46.695312 118.683594 Z M 46.695312 118.683594 " fill-opacity="1" fill-rule="nonzero"/><path fill="#000000" d="M 53.875 120.589844 C 53.867188 120.589844 53.863281 120.589844 53.859375 120.589844 C 53.394531 120.582031 53.027344 120.199219 53.035156 119.734375 C 53.101562 116.105469 53.789062 112.542969 55.082031 109.148438 C 55.246094 108.714844 55.730469 108.496094 56.164062 108.664062 C 56.597656 108.828125 56.8125 109.316406 56.648438 109.75 C 55.425781 112.960938 54.773438 116.328125 54.710938 119.765625 C 54.703125 120.222656 54.328125 120.589844 53.875 120.589844 Z M 53.875 120.589844 " fill-opacity="1" fill-rule="nonzero"/><path fill="#000000" d="M 50.667969 137.691406 C 50.355469 137.691406 50.054688 137.515625 49.910156 137.210938 C 48.097656 133.386719 47.347656 129.132812 47.734375 124.914062 C 47.777344 124.449219 48.179688 124.101562 48.648438 124.152344 C 49.109375 124.195312 49.449219 124.605469 49.40625 125.066406 C 49.046875 128.984375 49.742188 132.933594 51.425781 136.488281 C 51.625 136.910156 51.445312 137.410156 51.027344 137.613281 C 50.910156 137.667969 50.789062 137.691406 50.667969 137.691406 Z M 50.667969 137.691406 " fill-opacity="1" fill-rule="nonzero"/><path fill="#000000" d="M 103.300781 49.460938 C 102.914062 49.460938 102.570312 49.191406 102.480469 48.800781 L 101.09375 42.558594 C 100.992188 42.105469 101.277344 41.652344 101.730469 41.550781 C 102.179688 41.453125 102.628906 41.738281 102.730469 42.191406 L 104.121094 48.433594 C 104.21875 48.886719 103.933594 49.335938 103.484375 49.4375 C 103.421875 49.453125 103.359375 49.460938 103.300781 49.460938 Z M 103.300781 49.460938 " fill-opacity="1" fill-rule="nonzero"/><path fill="#000000" d="M 94.015625 52.269531 C 93.601562 52.269531 93.242188 51.960938 93.183594 51.539062 L 92.089844 43.207031 C 92.03125 42.746094 92.351562 42.324219 92.8125 42.261719 C 93.269531 42.203125 93.691406 42.527344 93.753906 42.988281 L 94.847656 51.316406 C 94.910156 51.78125 94.585938 52.203125 94.125 52.261719 C 94.089844 52.269531 94.050781 52.269531 94.015625 52.269531 Z M 94.015625 52.269531 " fill-opacity="1" fill-rule="nonzero"/><path fill="#000000" d="M 99.351562 64.222656 C 98.941406 64.222656 98.585938 63.921875 98.523438 63.507812 L 97.183594 54.703125 C 97.113281 54.242188 97.429688 53.8125 97.886719 53.742188 C 98.347656 53.675781 98.773438 53.988281 98.84375 54.449219 L 100.179688 63.253906 C 100.25 63.710938 99.9375 64.140625 99.476562 64.210938 C 99.433594 64.21875 99.394531 64.222656 99.351562 64.222656 Z M 99.351562 64.222656 " fill-opacity="1" fill-rule="nonzero"/><path fill="#000000" d="M 106.699219 63.976562 C 106.28125 63.976562 105.917969 63.660156 105.867188 63.234375 L 105.042969 56.34375 C 104.984375 55.878906 105.3125 55.460938 105.773438 55.40625 C 106.234375 55.351562 106.652344 55.679688 106.707031 56.140625 L 107.53125 63.03125 C 107.589844 63.492188 107.257812 63.914062 106.800781 63.96875 C 106.765625 63.972656 106.730469 63.976562 106.699219 63.976562 Z M 106.699219 63.976562 " fill-opacity="1" fill-rule="nonzero"/><path fill="#000000" d="M 81.058594 116.632812 C 81.035156 116.632812 81.011719 116.632812 80.988281 116.632812 C 79.734375 116.527344 78.804688 116.441406 78.347656 116.390625 C 51.5625 113.40625 43.703125 101.121094 41.824219 91.339844 C 38.480469 73.898438 51.6875 54.042969 60.800781 45.625 C 79.867188 28.011719 107.253906 32.375 121.695312 46.515625 C 130.742188 55.375 141.679688 76.316406 136.421875 93.125 C 133.53125 102.351562 128.414062 108.738281 120.773438 112.644531 C 120.359375 112.855469 119.855469 112.691406 119.648438 112.277344 C 119.4375 111.863281 119.601562 111.355469 120.011719 111.144531 C 127.230469 107.453125 132.074219 101.394531 134.820312 92.617188 C 140.050781 75.90625 128.089844 55.128906 120.523438 47.71875 C 106.628906 34.113281 80.277344 29.917969 61.9375 46.867188 C 52.4375 55.644531 40.425781 75.144531 43.472656 91.023438 C 45.242188 100.246094 52.761719 111.84375 78.53125 114.714844 C 78.980469 114.765625 79.894531 114.851562 81.125 114.953125 C 81.585938 114.992188 81.929688 115.398438 81.894531 115.859375 C 81.855469 116.300781 81.492188 116.632812 81.058594 116.632812 Z M 81.058594 116.632812 " fill-opacity="1" fill-rule="nonzero"/><path fill="#000000" d="M 107.574219 94.824219 C 105.8125 94.824219 104.386719 93.800781 103.175781 92.824219 C 102.242188 92.074219 101.183594 91.21875 100.480469 90.132812 C 99.621094 88.804688 99.484375 87.296875 100.113281 86.105469 C 100.675781 85.035156 101.890625 84.167969 103.441406 83.726562 C 104.710938 83.367188 110.238281 83.0625 111.808594 83.585938 C 113.597656 84.179688 114.820312 85.363281 115.074219 86.75 C 115.296875 87.941406 114.773438 89.042969 114.363281 89.765625 C 113.578125 91.144531 112.449219 92.414062 111.097656 93.441406 C 109.980469 94.289062 108.9375 94.738281 107.902344 94.8125 C 107.792969 94.820312 107.683594 94.824219 107.574219 94.824219 Z M 108.785156 84.992188 C 106.890625 84.992188 104.582031 85.152344 103.898438 85.347656 C 102.800781 85.660156 101.941406 86.234375 101.597656 86.890625 C 101.257812 87.539062 101.367188 88.40625 101.890625 89.21875 C 102.441406 90.074219 103.351562 90.804688 104.226562 91.511719 C 105.308594 92.382812 106.476562 93.226562 107.78125 93.132812 C 108.492188 93.082031 109.222656 92.753906 110.085938 92.097656 C 111.257812 91.207031 112.230469 90.113281 112.90625 88.929688 C 113.351562 88.144531 113.515625 87.550781 113.425781 87.054688 C 113.285156 86.304688 112.445312 85.570312 111.28125 85.183594 C 110.867188 85.046875 109.898438 84.992188 108.785156 84.992188 Z M 108.785156 84.992188 " fill-opacity="1" fill-rule="nonzero"/><path fill="#000000" d="M 83.121094 115.78125 C 83.058594 115.78125 83 115.777344 82.9375 115.761719 C 63.972656 111.578125 61.191406 99.636719 60.28125 95.714844 C 58.097656 86.347656 61.546875 76.980469 69.5 70.667969 C 76.992188 64.722656 86.644531 63.039062 93.527344 66.480469 C 100.375 69.902344 104.652344 77.65625 103.699219 84.917969 C 103.640625 85.382812 103.214844 85.703125 102.757812 85.644531 C 102.300781 85.582031 101.976562 85.160156 102.035156 84.699219 C 102.898438 78.128906 99.003906 71.101562 92.777344 67.984375 C 86.46875 64.832031 77.53125 66.441406 70.542969 71.988281 C 63.109375 77.886719 59.882812 86.613281 61.914062 95.332031 C 62.769531 99 65.367188 110.160156 83.296875 114.117188 C 83.75 114.21875 84.039062 114.667969 83.9375 115.121094 C 83.851562 115.511719 83.503906 115.78125 83.121094 115.78125 Z M 83.121094 115.78125 " fill-opacity="1" fill-rule="nonzero"/><path fill="#000000" d="M 111.695312 85.183594 C 111.335938 85.183594 111 84.949219 110.890625 84.585938 C 108.699219 77.355469 111.921875 68.839844 118.394531 64.773438 C 120.785156 63.269531 124.140625 62.96875 127.375 63.960938 C 131.210938 65.140625 134.34375 67.933594 135.96875 71.617188 C 136.15625 72.042969 135.964844 72.539062 135.539062 72.730469 C 135.117188 72.917969 134.621094 72.726562 134.433594 72.300781 C 133.007812 69.0625 130.253906 66.609375 126.882812 65.570312 C 124.109375 64.71875 121.269531 64.953125 119.285156 66.199219 C 113.433594 69.875 110.515625 77.570312 112.496094 84.09375 C 112.632812 84.539062 112.382812 85.007812 111.9375 85.144531 C 111.855469 85.171875 111.773438 85.183594 111.695312 85.183594 Z M 111.695312 85.183594 " fill-opacity="1" fill-rule="nonzero"/><path fill="#403d3d" d="M 126.207031 126.992188 C 126.457031 126.332031 126.816406 125.722656 126.988281 125.039062 C 127.386719 123.488281 127.832031 121.789062 128.582031 120.367188 C 128.882812 119.792969 129.226562 119.230469 129.539062 118.660156 C 129.769531 118.234375 130.066406 117.929688 130.417969 117.683594 C 130.070312 117.050781 129.535156 116.515625 128.851562 116.179688 C 117.007812 110.371094 115.738281 108.792969 105.640625 101.449219 C 103.957031 100.226562 101.644531 101.535156 101.773438 103.613281 C 102.453125 114.582031 107.863281 125.140625 116.28125 132.1875 C 117.140625 132.910156 117.925781 133.535156 118.679688 134.117188 C 118.929688 134.074219 119.179688 134.070312 119.421875 134.132812 C 119.472656 134.128906 119.511719 134.128906 119.539062 134.128906 C 119.6875 134.140625 119.820312 134.171875 119.949219 134.210938 C 120.257812 134.230469 120.554688 134.320312 120.8125 134.488281 C 120.851562 134.503906 120.890625 134.523438 120.929688 134.542969 C 121.070312 134.574219 121.210938 134.609375 121.253906 134.621094 C 121.449219 134.6875 121.679688 134.8125 121.898438 134.953125 C 121.964844 134.839844 122.027344 134.722656 122.097656 134.609375 C 122.554688 133.890625 123.078125 133.257812 123.457031 132.484375 C 124.011719 131.367188 124.742188 130.402344 125.398438 129.363281 C 125.660156 128.570312 125.914062 127.769531 126.207031 126.992188 Z M 126.207031 126.992188 " fill-opacity="1" fill-rule="nonzero"/><path fill="#000000" d="M 115.707031 132.167969 C 115.519531 132.167969 115.328125 132.101562 115.167969 131.96875 C 110.554688 128.082031 106.367188 121.960938 103.683594 115.175781 C 103.515625 114.742188 103.726562 114.253906 104.15625 114.082031 C 104.589844 113.910156 105.074219 114.121094 105.246094 114.550781 C 107.828125 121.085938 111.839844 126.964844 116.25 130.679688 C 116.601562 130.980469 116.648438 131.511719 116.351562 131.867188 C 116.183594 132.066406 115.949219 132.167969 115.707031 132.167969 Z M 115.707031 132.167969 " fill-opacity="1" fill-rule="nonzero"/><path fill="#000000" d="M 125.207031 114.980469 C 125.105469 114.980469 125.003906 114.964844 124.90625 114.925781 C 117.535156 112.074219 113.507812 108.839844 107.410156 103.945312 C 106.679688 103.359375 105.914062 102.746094 105.109375 102.105469 C 104.804688 101.859375 104.449219 101.789062 104.054688 101.898438 C 103.605469 102.023438 103.144531 101.757812 103.023438 101.308594 C 102.898438 100.859375 103.160156 100.398438 103.609375 100.273438 C 104.519531 100.023438 105.425781 100.207031 106.152344 100.785156 C 106.960938 101.429688 107.726562 102.042969 108.457031 102.628906 C 114.644531 107.597656 118.378906 110.59375 125.507812 113.355469 C 125.941406 113.519531 126.15625 114.007812 125.988281 114.441406 C 125.859375 114.777344 125.542969 114.980469 125.207031 114.980469 Z M 125.207031 114.980469 " fill-opacity="1" fill-rule="nonzero"/><path fill="#403d3d" d="M 82.960938 127.808594 C 82.6875 127.15625 82.3125 126.5625 82.113281 125.882812 C 81.667969 124.34375 81.167969 122.660156 80.371094 121.265625 C 80.050781 120.703125 79.6875 120.152344 79.359375 119.589844 C 79.113281 119.171875 78.808594 118.878906 78.449219 118.644531 C 78.777344 118 79.292969 117.449219 79.964844 117.089844 C 91.613281 110.898438 92.832031 109.277344 102.6875 101.605469 C 104.328125 100.328125 106.683594 101.558594 106.621094 103.644531 C 106.300781 114.625 101.234375 125.355469 93.050781 132.679688 C 92.214844 133.425781 91.449219 134.078125 90.714844 134.683594 C 90.464844 134.648438 90.214844 134.652344 89.972656 134.722656 C 89.921875 134.722656 89.882812 134.722656 89.855469 134.722656 C 89.710938 134.738281 89.578125 134.777344 89.449219 134.820312 C 89.140625 134.847656 88.847656 134.945312 88.59375 135.125 C 88.554688 135.140625 88.519531 135.160156 88.480469 135.179688 C 88.339844 135.21875 88.199219 135.257812 88.15625 135.273438 C 87.964844 135.347656 87.738281 135.476562 87.527344 135.625 C 87.457031 135.511719 87.386719 135.398438 87.3125 135.285156 C 86.835938 134.585938 86.292969 133.96875 85.886719 133.210938 C 85.296875 132.109375 84.535156 131.167969 83.847656 130.152344 C 83.558594 129.371094 83.28125 128.578125 82.960938 127.808594 Z M 82.960938 127.808594 " fill-opacity="1" fill-rule="nonzero"/><path fill="#000000" d="M 92.175781 133.828125 C 91.925781 133.828125 91.675781 133.714844 91.511719 133.503906 C 91.226562 133.136719 91.292969 132.605469 91.660156 132.320312 C 100.0625 125.785156 105.429688 112.769531 105.773438 103.960938 C 105.804688 103.101562 105.199219 102.40625 104.625 102.128906 C 104.328125 101.980469 103.753906 101.804688 103.234375 102.242188 C 102.453125 102.910156 101.707031 103.550781 100.996094 104.160156 C 94.125 110.054688 89.976562 113.613281 80.113281 117.175781 C 79.675781 117.332031 79.195312 117.105469 79.039062 116.667969 C 78.882812 116.230469 79.109375 115.746094 79.546875 115.589844 C 89.117188 112.132812 92.949219 108.847656 99.90625 102.878906 C 100.621094 102.265625 101.363281 101.628906 102.148438 100.960938 C 103.042969 100.199219 104.242188 100.066406 105.359375 100.613281 C 106.664062 101.25 107.503906 102.621094 107.449219 104.027344 C 107.09375 113.21875 101.476562 126.8125 92.691406 133.652344 C 92.535156 133.769531 92.355469 133.828125 92.175781 133.828125 Z M 92.175781 133.828125 " fill-opacity="1" fill-rule="nonzero"/><g fill="#dff3e8" fill-opacity="1"><g transform="translate(157.591933, 130.019233)"><g><path d="M 26.3125 -52.34375 L 46.171875 -20.34375 L 46.296875 -20.34375 L 51.375 -52.34375 L 64.984375 -52.34375 L 56.71875 0 L 43.109375 0 L 23.25 -32.078125 L 23.125 -32.078125 L 18.046875 0 L 4.4375 0 L 12.703125 -52.34375 Z M 26.3125 -52.34375 "/></g></g></g><g fill="#dff3e8" fill-opacity="1"><g transform="translate(217.213497, 130.019233)"><g><path d="M 64.359375 -31.234375 C 64.359375 -26.191406 62.898438 -20.960938 59.984375 -15.546875 C 57.066406 -10.128906 52.945312 -5.894531 47.625 -2.84375 C 42.300781 0.207031 36.582031 1.734375 30.46875 1.734375 C 23.113281 1.734375 17.144531 -0.425781 12.5625 -4.75 C 7.976562 -9.082031 5.6875 -14.789062 5.6875 -21.875 C 5.6875 -27.695312 7.222656 -33.070312 10.296875 -38 C 13.378906 -42.9375 17.570312 -46.847656 22.875 -49.734375 C 28.175781 -52.628906 33.648438 -54.078125 39.296875 -54.078125 C 43.785156 -54.078125 47.984375 -53.101562 51.890625 -51.15625 C 55.804688 -49.21875 58.863281 -46.523438 61.0625 -43.078125 C 63.257812 -39.628906 64.359375 -35.679688 64.359375 -31.234375 Z M 32.5625 -11.453125 C 35.707031 -11.453125 38.609375 -12.316406 41.265625 -14.046875 C 43.929688 -15.785156 46.050781 -18.03125 47.625 -20.78125 C 49.195312 -23.539062 49.984375 -26.265625 49.984375 -28.953125 C 49.984375 -32.285156 48.722656 -35.109375 46.203125 -37.421875 C 43.679688 -39.734375 40.660156 -40.890625 37.140625 -40.890625 C 34.410156 -40.890625 31.703125 -40.148438 29.015625 -38.671875 C 26.328125 -37.191406 24.160156 -35.203125 22.515625 -32.703125 C 20.878906 -30.203125 20.0625 -27.421875 20.0625 -24.359375 C 20.0625 -20.617188 21.226562 -17.53125 23.5625 -15.09375 C 25.90625 -12.664062 28.90625 -11.453125 32.5625 -11.453125 Z M 32.5625 -11.453125 "/></g></g></g><g fill="#dff3e8" fill-opacity="1"><g transform="translate(277.251509, 130.019233)"><g><path d="M 30.6875 -53.734375 C 36.28125 -53.734375 41.53125 -52.296875 46.4375 -49.421875 L 39.359375 -38.875 C 36.910156 -41.1875 34.085938 -42.34375 30.890625 -42.34375 C 29.222656 -42.34375 27.707031 -41.867188 26.34375 -40.921875 C 24.976562 -39.972656 24.296875 -38.804688 24.296875 -37.421875 C 24.296875 -36.398438 24.78125 -35.503906 25.75 -34.734375 C 26.726562 -33.972656 28.507812 -33.222656 31.09375 -32.484375 C 34.613281 -31.421875 37.160156 -30.390625 38.734375 -29.390625 C 40.304688 -28.398438 41.53125 -27.175781 42.40625 -25.71875 C 43.289062 -24.257812 43.734375 -22.441406 43.734375 -20.265625 C 43.734375 -17.117188 42.921875 -13.785156 41.296875 -10.265625 C 39.679688 -6.753906 37.035156 -3.957031 33.359375 -1.875 C 29.679688 0.207031 25.316406 1.296875 20.265625 1.390625 C 13.785156 1.390625 7.957031 -0.597656 2.78125 -4.578125 L 10.34375 -15.546875 C 13.957031 -11.941406 17.679688 -10.140625 21.515625 -10.140625 C 23.648438 -10.140625 25.445312 -10.691406 26.90625 -11.796875 C 28.363281 -12.910156 29.09375 -14.320312 29.09375 -16.03125 C 29.09375 -18.257812 26.867188 -19.972656 22.421875 -21.171875 C 17.054688 -22.648438 13.585938 -24.234375 12.015625 -25.921875 C 10.441406 -27.617188 9.65625 -29.878906 9.65625 -32.703125 C 9.65625 -38.617188 11.675781 -43.601562 15.71875 -47.65625 C 19.769531 -51.707031 24.757812 -53.734375 30.6875 -53.734375 Z M 30.6875 -53.734375 "/></g></g></g><g fill="#dff3e8" fill-opacity="1"><g transform="translate(318.410423, 130.019233)"><g><path d="M 30.6875 -53.734375 C 36.28125 -53.734375 41.53125 -52.296875 46.4375 -49.421875 L 39.359375 -38.875 C 36.910156 -41.1875 34.085938 -42.34375 30.890625 -42.34375 C 29.222656 -42.34375 27.707031 -41.867188 26.34375 -40.921875 C 24.976562 -39.972656 24.296875 -38.804688 24.296875 -37.421875 C 24.296875 -36.398438 24.78125 -35.503906 25.75 -34.734375 C 26.726562 -33.972656 28.507812 -33.222656 31.09375 -32.484375 C 34.613281 -31.421875 37.160156 -30.390625 38.734375 -29.390625 C 40.304688 -28.398438 41.53125 -27.175781 42.40625 -25.71875 C 43.289062 -24.257812 43.734375 -22.441406 43.734375 -20.265625 C 43.734375 -17.117188 42.921875 -13.785156 41.296875 -10.265625 C 39.679688 -6.753906 37.035156 -3.957031 33.359375 -1.875 C 29.679688 0.207031 25.316406 1.296875 20.265625 1.390625 C 13.785156 1.390625 7.957031 -0.597656 2.78125 -4.578125 L 10.34375 -15.546875 C 13.957031 -11.941406 17.679688 -10.140625 21.515625 -10.140625 C 23.648438 -10.140625 25.445312 -10.691406 26.90625 -11.796875 C 28.363281 -12.910156 29.09375 -14.320312 29.09375 -16.03125 C 29.09375 -18.257812 26.867188 -19.972656 22.421875 -21.171875 C 17.054688 -22.648438 13.585938 -24.234375 12.015625 -25.921875 C 10.441406 -27.617188 9.65625 -29.878906 9.65625 -32.703125 C 9.65625 -38.617188 11.675781 -43.601562 15.71875 -47.65625 C 19.769531 -51.707031 24.757812 -53.734375 30.6875 -53.734375 Z M 30.6875 -53.734375 "/></g></g></g><g fill="#dff3e8" fill-opacity="1"><g transform="translate(359.569326, 130.019233)"><g><path d="M 64.359375 -31.234375 C 64.359375 -26.191406 62.898438 -20.960938 59.984375 -15.546875 C 57.066406 -10.128906 52.945312 -5.894531 47.625 -2.84375 C 42.300781 0.207031 36.582031 1.734375 30.46875 1.734375 C 23.113281 1.734375 17.144531 -0.425781 12.5625 -4.75 C 7.976562 -9.082031 5.6875 -14.789062 5.6875 -21.875 C 5.6875 -27.695312 7.222656 -33.070312 10.296875 -38 C 13.378906 -42.9375 17.570312 -46.847656 22.875 -49.734375 C 28.175781 -52.628906 33.648438 -54.078125 39.296875 -54.078125 C 43.785156 -54.078125 47.984375 -53.101562 51.890625 -51.15625 C 55.804688 -49.21875 58.863281 -46.523438 61.0625 -43.078125 C 63.257812 -39.628906 64.359375 -35.679688 64.359375 -31.234375 Z M 32.5625 -11.453125 C 35.707031 -11.453125 38.609375 -12.316406 41.265625 -14.046875 C 43.929688 -15.785156 46.050781 -18.03125 47.625 -20.78125 C 49.195312 -23.539062 49.984375 -26.265625 49.984375 -28.953125 C 49.984375 -32.285156 48.722656 -35.109375 46.203125 -37.421875 C 43.679688 -39.734375 40.660156 -40.890625 37.140625 -40.890625 C 34.410156 -40.890625 31.703125 -40.148438 29.015625 -38.671875 C 26.328125 -37.191406 24.160156 -35.203125 22.515625 -32.703125 C 20.878906 -30.203125 20.0625 -27.421875 20.0625 -24.359375 C 20.0625 -20.617188 21.226562 -17.53125 23.5625 -15.09375 C 25.90625 -12.664062 28.90625 -11.453125 32.5625 -11.453125 Z M 32.5625 -11.453125 "/></g></g></g><g fill="#dff3e8" fill-opacity="1"><g transform="translate(419.607332, 130.019233)"><g><path d="M 30.6875 -53.734375 C 36.28125 -53.734375 41.53125 -52.296875 46.4375 -49.421875 L 39.359375 -38.875 C 36.910156 -41.1875 34.085938 -42.34375 30.890625 -42.34375 C 29.222656 -42.34375 27.707031 -41.867188 26.34375 -40.921875 C 24.976562 -39.972656 24.296875 -38.804688 24.296875 -37.421875 C 24.296875 -36.398438 24.78125 -35.503906 25.75 -34.734375 C 26.726562 -33.972656 28.507812 -33.222656 31.09375 -32.484375 C 34.613281 -31.421875 37.160156 -30.390625 38.734375 -29.390625 C 40.304688 -28.398438 41.53125 -27.175781 42.40625 -25.71875 C 43.289062 -24.257812 43.734375 -22.441406 43.734375 -20.265625 C 43.734375 -17.117188 42.921875 -13.785156 41.296875 -10.265625 C 39.679688 -6.753906 37.035156 -3.957031 33.359375 -1.875 C 29.679688 0.207031 25.316406 1.296875 20.265625 1.390625 C 13.785156 1.390625 7.957031 -0.597656 2.78125 -4.578125 L 10.34375 -15.546875 C 13.957031 -11.941406 17.679688 -10.140625 21.515625 -10.140625 C 23.648438 -10.140625 25.445312 -10.691406 26.90625 -11.796875 C 28.363281 -12.910156 29.09375 -14.320312 29.09375 -16.03125 C 29.09375 -18.257812 26.867188 -19.972656 22.421875 -21.171875 C 17.054688 -22.648438 13.585938 -24.234375 12.015625 -25.921875 C 10.441406 -27.617188 9.65625 -29.878906 9.65625 -32.703125 C 9.65625 -38.617188 11.675781 -43.601562 15.71875 -47.65625 C 19.769531 -51.707031 24.757812 -53.734375 30.6875 -53.734375 Z M 30.6875 -53.734375 "/></g></g></g><g fill="#dff3e8" fill-opacity="1"><g transform="translate(460.766235, 130.019233)"><g/></g></g><g fill="#dff3e8" fill-opacity="1"><g transform="translate(483.046013, 130.019233)"><g><path d="M 42.765625 -52.34375 L 40.953125 -40.8125 L 24.5 -40.8125 L 23.125 -32.078125 L 38.046875 -32.078125 L 36.234375 -20.546875 L 21.3125 -20.546875 L 18.046875 0 L 4.4375 0 L 12.703125 -52.34375 Z M 42.765625 -52.34375 "/></g></g></g><g fill="#dff3e8" fill-opacity="1"><g transform="translate(519.138089, 130.019233)"><g><path d="M 42.484375 -52.34375 L 40.6875 -40.8125 L 24.5 -40.8125 L 23.125 -32.078125 L 38.453125 -32.078125 L 36.65625 -20.546875 L 21.3125 -20.546875 L 19.859375 -11.53125 L 36.03125 -11.53125 L 34.21875 0 L 4.4375 0 L 12.703125 -52.34375 Z M 42.484375 -52.34375 "/></g></g></g><g fill="#dff3e8" fill-opacity="1"><g transform="translate(555.785457, 130.019233)"><g><path d="M 42.484375 -52.34375 L 40.6875 -40.8125 L 24.5 -40.8125 L 23.125 -32.078125 L 38.453125 -32.078125 L 36.65625 -20.546875 L 21.3125 -20.546875 L 19.859375 -11.53125 L 36.03125 -11.53125 L 34.21875 0 L 4.4375 0 L 12.703125 -52.34375 Z M 42.484375 -52.34375 "/></g></g></g><g fill="#dff3e8" fill-opacity="1"><g transform="translate(592.432803, 130.019233)"><g><path d="M 32.078125 -52.34375 C 36.421875 -52.34375 40.316406 -51.378906 43.765625 -49.453125 C 47.210938 -47.535156 49.921875 -44.890625 51.890625 -41.515625 C 53.859375 -38.140625 54.84375 -34.53125 54.84375 -30.6875 C 54.84375 -25.40625 53.414062 -20.390625 50.5625 -15.640625 C 47.71875 -10.898438 43.863281 -7.109375 39 -4.265625 C 34.144531 -1.421875 29.082031 0 23.8125 0 L 4.4375 0 L 12.703125 -52.34375 Z M 19.859375 -11.53125 L 22.5 -11.53125 C 28 -11.53125 32.378906 -13.160156 35.640625 -16.421875 C 38.910156 -19.679688 40.546875 -23.90625 40.546875 -29.09375 C 40.546875 -32.601562 39.445312 -35.429688 37.25 -37.578125 C 35.050781 -39.734375 31.773438 -40.8125 27.421875 -40.8125 L 24.5 -40.8125 Z M 19.859375 -11.53125 "/></g></g></g><g fill="#dff3e8" fill-opacity="1"><g transform="translate(643.10068, 130.019233)"><g><path d="M 32.421875 -52.34375 C 36.628906 -52.34375 39.910156 -51.5 42.265625 -49.8125 C 44.628906 -48.125 45.8125 -45.566406 45.8125 -42.140625 C 45.8125 -35.242188 43.242188 -30.546875 38.109375 -28.046875 L 38.109375 -27.90625 C 43.984375 -27.125 46.921875 -23.769531 46.921875 -17.84375 C 46.921875 -12.238281 45.007812 -7.863281 41.1875 -4.71875 C 37.375 -1.570312 32.226562 0 25.75 0 L 4.4375 0 L 12.703125 -52.34375 Z M 24.71875 -41.9375 L 23.125 -31.796875 L 24.921875 -31.796875 C 30.203125 -31.796875 32.84375 -33.851562 32.84375 -37.96875 C 32.84375 -39.3125 32.332031 -40.304688 31.3125 -40.953125 C 30.289062 -41.609375 28.554688 -41.9375 26.109375 -41.9375 Z M 19.71875 -10.40625 L 22.765625 -10.40625 C 26.609375 -10.40625 29.316406 -10.984375 30.890625 -12.140625 C 32.460938 -13.304688 33.25 -14.929688 33.25 -17.015625 C 33.25 -18.671875 32.644531 -19.859375 31.4375 -20.578125 C 30.238281 -21.296875 28.179688 -21.65625 25.265625 -21.65625 L 21.453125 -21.65625 Z M 19.71875 -10.40625 "/></g></g></g><g fill="#dff3e8" fill-opacity="1"><g transform="translate(688.562905, 130.019233)"><g><path d="M 42.96875 -52.34375 L 54.421875 0 L 39.921875 0 L 37.96875 -9.09375 L 19.234375 -9.09375 L 14.15625 0 L -0.28125 0 L 28.109375 -52.34375 Z M 24.640625 -19.5 L 35.953125 -19.5 L 33.046875 -36.171875 L 32.90625 -36.171875 Z M 24.640625 -19.5 "/></g></g></g><g fill="#dff3e8" fill-opacity="1"><g transform="translate(740.410556, 130.019233)"><g><path d="M 47.34375 -34.78125 C 46.28125 -36.632812 44.765625 -38.054688 42.796875 -39.046875 C 40.828125 -40.046875 38.664062 -40.546875 36.3125 -40.546875 C 31.914062 -40.546875 28.070312 -38.851562 24.78125 -35.46875 C 21.5 -32.09375 19.859375 -28.09375 19.859375 -23.46875 C 19.859375 -20 20.96875 -17.1875 23.1875 -15.03125 C 25.40625 -12.875 28.34375 -11.796875 32 -11.796875 C 34.21875 -11.796875 36.445312 -12.289062 38.6875 -13.28125 C 40.9375 -14.28125 42.921875 -15.640625 44.640625 -17.359375 L 42 -1.046875 C 41.03125 -0.722656 39.328125 -0.238281 36.890625 0.40625 C 34.460938 1.0625 32.046875 1.390625 29.640625 1.390625 C 25.429688 1.390625 21.5 0.476562 17.84375 -1.34375 C 14.1875 -3.175781 11.234375 -5.742188 8.984375 -9.046875 C 6.742188 -12.359375 5.597656 -16.21875 5.546875 -20.625 C 5.546875 -26.539062 7.003906 -32.007812 9.921875 -37.03125 C 12.835938 -42.050781 16.875 -46.085938 22.03125 -49.140625 C 27.195312 -52.203125 32.507812 -53.734375 37.96875 -53.734375 C 41.863281 -53.734375 45.867188 -52.851562 49.984375 -51.09375 Z M 47.34375 -34.78125 "/></g></g></g><g fill="#dff3e8" fill-opacity="1"><g transform="translate(784.692827, 130.019233)"><g><path d="M 26.3125 -52.34375 L 22.90625 -30.75 L 23.046875 -30.75 L 42.90625 -52.34375 L 59.765625 -52.34375 L 35.0625 -27.5625 L 53.390625 0 L 35.75 0 L 21.796875 -22.703125 L 21.65625 -22.703125 L 18.046875 0 L 4.4375 0 L 12.703125 -52.34375 Z M 26.3125 -52.34375 "/></g></g></g><g fill="#dff3e8" fill-opacity="1"><g transform="translate(835.777129, 130.019233)"><g><path d="M 30.6875 -53.734375 C 36.28125 -53.734375 41.53125 -52.296875 46.4375 -49.421875 L 39.359375 -38.875 C 36.910156 -41.1875 34.085938 -42.34375 30.890625 -42.34375 C 29.222656 -42.34375 27.707031 -41.867188 26.34375 -40.921875 C 24.976562 -39.972656 24.296875 -38.804688 24.296875 -37.421875 C 24.296875 -36.398438 24.78125 -35.503906 25.75 -34.734375 C 26.726562 -33.972656 28.507812 -33.222656 31.09375 -32.484375 C 34.613281 -31.421875 37.160156 -30.390625 38.734375 -29.390625 C 40.304688 -28.398438 41.53125 -27.175781 42.40625 -25.71875 C 43.289062 -24.257812 43.734375 -22.441406 43.734375 -20.265625 C 43.734375 -17.117188 42.921875 -13.785156 41.296875 -10.265625 C 39.679688 -6.753906 37.035156 -3.957031 33.359375 -1.875 C 29.679688 0.207031 25.316406 1.296875 20.265625 1.390625 C 13.785156 1.390625 7.957031 -0.597656 2.78125 -4.578125 L 10.34375 -15.546875 C 13.957031 -11.941406 17.679688 -10.140625 21.515625 -10.140625 C 23.648438 -10.140625 25.445312 -10.691406 26.90625 -11.796875 C 28.363281 -12.910156 29.09375 -14.320312 29.09375 -16.03125 C 29.09375 -18.257812 26.867188 -19.972656 22.421875 -21.171875 C 17.054688 -22.648438 13.585938 -24.234375 12.015625 -25.921875 C 10.441406 -27.617188 9.65625 -29.878906 9.65625 -32.703125 C 9.65625 -38.617188 11.675781 -43.601562 15.71875 -47.65625 C 19.769531 -51.707031 24.757812 -53.734375 30.6875 -53.734375 Z M 30.6875 -53.734375 "/></g></g></g><g fill="#dff3e8" fill-opacity="1"><g transform="translate(876.945381, 130.019233)"><g/></g></g><path fill="#403d3d" d="M 895.167969 134.953125 C 895.199219 131.605469 896.019531 128.207031 897.683594 125.636719 C 898.179688 124.871094 898.402344 123.949219 898.230469 123.050781 C 896.824219 115.578125 898.617188 108.238281 903.214844 102.269531 C 905.761719 95.5625 912.726562 91.800781 919.367188 89.304688 C 937.035156 82.660156 955.78125 81.28125 980.972656 90.246094 C 988.324219 98.792969 993.910156 107.949219 994.199219 119.433594 C 994.484375 130.917969 989.355469 144.519531 980.625 151.453125 C 970.800781 159.253906 959.257812 160.957031 946.929688 161.578125 C 939.4375 161.957031 932.632812 161.671875 923.902344 158.203125 C 922.660156 157.707031 921.367188 157.355469 920.058594 157.097656 C 915.722656 156.238281 911.164062 155.351562 907.050781 153.292969 C 906.449219 152.992188 905.855469 152.660156 905.277344 152.304688 " fill-opacity="1" fill-rule="nonzero"/><path fill="#403d3d" d="M 929.164062 116.238281 C 917.296875 114.605469 904.148438 110.5625 898.613281 92.871094 C 893.382812 76.15625 904.722656 55.347656 913.125 47.117188 C 927.53125 33.011719 954.460938 29.242188 972.867188 46.246094 C 981.890625 54.582031 994.816406 74.332031 991.585938 91.179688 C 989.644531 101.296875 981.394531 112.699219 955.796875 115.550781 C 953.261719 115.835938 936.382812 117.230469 929.164062 116.238281 Z M 929.164062 116.238281 " fill-opacity="1" fill-rule="nonzero"/><path fill="#ffffff" d="M 933.015625 116.796875 C 921.902344 117.46875 911.066406 111.761719 904.585938 104.425781 C 899.320312 98.464844 897.542969 92.191406 897.726562 85.144531 C 897.910156 78.101562 896.472656 76.375 899.410156 71.175781 C 902.207031 66.230469 908.492188 62.351562 913.289062 64.800781 C 918.085938 67.25 921.773438 71.828125 923.179688 77.082031 C 923.933594 79.894531 923.96875 83.167969 922.164062 85.449219 C 925.132812 85.535156 928.101562 85.617188 931.070312 85.703125 C 930.484375 78.859375 933.53125 72.058594 938.855469 68.378906 C 944.175781 64.695312 951.539062 64.296875 957.210938 67.382812 C 963.382812 70.957031 972.167969 76.824219 972.789062 83.59375 C 973.40625 90.359375 975.464844 102.8125 961.910156 110.917969 C 949.765625 116.667969 944.039062 116.128906 933.015625 116.796875 Z M 933.015625 116.796875 " fill-opacity="1" fill-rule="nonzero"/><path fill="#fd9808" d="M 930.566406 84.535156 C 931.753906 84.875 932.875 85.539062 933.378906 86.5 C 933.917969 87.519531 933.667969 88.714844 933.050781 89.675781 C 932.429688 90.636719 931.472656 91.410156 930.53125 92.167969 C 929.378906 93.097656 928.015625 94.089844 926.390625 93.972656 C 925.351562 93.898438 924.421875 93.363281 923.640625 92.769531 C 922.375 91.808594 921.332031 90.636719 920.601562 89.347656 C 920.164062 88.582031 919.832031 87.730469 919.984375 86.902344 C 920.199219 85.730469 921.371094 84.824219 922.6875 84.386719 C 924.007812 83.949219 929.375 84.199219 930.566406 84.535156 Z M 930.566406 84.535156 " fill-opacity="1" fill-rule="nonzero"/><path fill="#ed9184" d="M 954.941406 94.390625 C 954.941406 94.914062 955.039062 95.414062 955.238281 95.898438 C 955.4375 96.378906 955.722656 96.804688 956.089844 97.175781 C 956.457031 97.542969 956.882812 97.828125 957.363281 98.027344 C 957.84375 98.226562 958.34375 98.328125 958.863281 98.328125 C 959.382812 98.328125 959.882812 98.226562 960.363281 98.027344 C 960.84375 97.828125 961.269531 97.542969 961.636719 97.175781 C 962.003906 96.804688 962.289062 96.378906 962.488281 95.898438 C 962.6875 95.414062 962.785156 94.914062 962.785156 94.390625 C 962.785156 93.871094 962.6875 93.367188 962.488281 92.886719 C 962.289062 92.402344 962.003906 91.976562 961.636719 91.609375 C 961.269531 91.238281 960.84375 90.953125 960.363281 90.753906 C 959.882812 90.554688 959.382812 90.453125 958.863281 90.453125 C 958.34375 90.453125 957.84375 90.554688 957.363281 90.753906 C 956.882812 90.953125 956.457031 91.238281 956.089844 91.609375 C 955.722656 91.976562 955.4375 92.402344 955.238281 92.886719 C 955.039062 93.367188 954.941406 93.871094 954.941406 94.390625 Z M 954.941406 94.390625 " fill-opacity="1" fill-rule="nonzero"/><path fill="#000000" d="M 949.4375 87.179688 C 951.054688 87.761719 952.769531 88.417969 953.78125 89.8125 C 954.132812 90.300781 954.386719 90.917969 954.222656 91.5 C 954.054688 92.105469 953.457031 92.511719 952.84375 92.636719 C 952.226562 92.761719 951.59375 92.65625 950.976562 92.539062 C 949.628906 92.285156 948.289062 91.980469 946.996094 91.53125 C 946.25 91.269531 945.5 90.945312 944.9375 90.390625 C 944.371094 89.835938 944.023438 89 944.234375 88.234375 C 944.464844 87.394531 945.308594 86.84375 946.160156 86.695312 C 947.015625 86.546875 947.917969 86.632812 949.4375 87.179688 Z M 949.4375 87.179688 " fill-opacity="1" fill-rule="nonzero"/><path fill="#000000" d="M 905.785156 84.957031 C 904.152344 85.492188 902.417969 86.09375 901.367188 87.460938 C 901 87.9375 900.726562 88.546875 900.871094 89.132812 C 901.023438 89.742188 901.609375 90.167969 902.21875 90.3125 C 902.828125 90.457031 903.46875 90.367188 904.085938 90.269531 C 905.441406 90.054688 906.789062 89.792969 908.097656 89.378906 C 908.851562 89.140625 909.609375 88.839844 910.191406 88.300781 C 910.769531 87.761719 911.140625 86.9375 910.953125 86.167969 C 910.75 85.324219 909.925781 84.746094 909.074219 84.570312 C 908.226562 84.398438 907.324219 84.457031 905.785156 84.957031 Z M 905.785156 84.957031 " fill-opacity="1" fill-rule="nonzero"/><g clip-path="url(#735d851db3)"><path fill="#000000" d="M 954.050781 161.867188 C 954.078125 161.867188 954.109375 161.867188 954.140625 161.863281 C 965.820312 160.574219 974.539062 157.371094 981.585938 151.773438 C 990.179688 144.945312 995.332031 133.125 995.027344 120.917969 C 994.859375 114.328125 992.671875 107.089844 988.699219 99.980469 C 988.472656 99.574219 987.960938 99.429688 987.554688 99.660156 C 987.152344 99.886719 987.007812 100.398438 987.234375 100.804688 C 991.078125 107.675781 993.191406 114.644531 993.347656 120.960938 C 993.640625 132.648438 988.734375 143.949219 980.546875 150.453125 C 973.757812 155.84375 965.308594 158.9375 953.957031 160.1875 C 953.5 160.238281 953.164062 160.65625 953.214844 161.117188 C 953.261719 161.546875 953.628906 161.867188 954.050781 161.867188 Z M 954.050781 161.867188 " fill-opacity="1" fill-rule="nonzero"/></g><path fill="#000000" d="M 937.707031 162.363281 C 938.136719 162.363281 938.503906 162.03125 938.542969 161.589844 C 938.582031 161.128906 938.238281 160.722656 937.773438 160.683594 C 933.148438 160.296875 928.839844 159.257812 924.210938 157.417969 C 922.996094 156.9375 921.691406 156.5625 920.21875 156.269531 L 920.089844 156.246094 C 915.816406 155.398438 911.394531 154.527344 907.425781 152.539062 C 906.84375 152.246094 906.265625 151.925781 905.707031 151.582031 C 905.3125 151.34375 904.796875 151.464844 904.554688 151.863281 C 904.3125 152.261719 904.4375 152.777344 904.832031 153.019531 C 905.433594 153.390625 906.054688 153.734375 906.675781 154.046875 C 910.847656 156.136719 915.382812 157.03125 919.765625 157.898438 L 919.894531 157.921875 C 921.265625 158.195312 922.476562 158.542969 923.59375 158.984375 C 928.378906 160.886719 932.84375 161.960938 937.636719 162.359375 C 937.660156 162.363281 937.683594 162.363281 937.707031 162.363281 Z M 937.707031 162.363281 " fill-opacity="1" fill-rule="nonzero"/><path fill="#000000" d="M 895.167969 135.796875 C 895.628906 135.796875 896.003906 135.425781 896.007812 134.960938 C 896.039062 131.5625 896.882812 128.414062 898.386719 126.097656 C 899.023438 125.117188 899.261719 123.980469 899.054688 122.894531 C 898.097656 117.789062 898.089844 110.152344 903.507812 102.757812 C 903.78125 102.382812 903.703125 101.855469 903.328125 101.578125 C 902.957031 101.304688 902.429688 101.382812 902.15625 101.757812 C 897.648438 107.910156 895.960938 115.527344 897.40625 123.207031 C 897.53125 123.863281 897.378906 124.566406 896.980469 125.179688 C 895.304688 127.761719 894.363281 131.230469 894.328125 134.945312 C 894.324219 135.410156 894.695312 135.792969 895.160156 135.796875 C 895.164062 135.796875 895.164062 135.796875 895.167969 135.796875 Z M 895.167969 135.796875 " fill-opacity="1" fill-rule="nonzero"/><path fill="#fd9808" d="M 904.84375 152.191406 C 901.496094 150.925781 896.609375 147.273438 894.140625 143.148438 C 893.238281 141.640625 892.503906 139.898438 892.730469 138.140625 C 892.941406 136.53125 894.21875 134.992188 895.753906 134.886719 C 895.933594 134.875 896.027344 134.695312 895.9375 134.535156 C 895.191406 133.207031 895.488281 131.3125 896.667969 130.347656 C 897.960938 129.292969 900.894531 131.207031 902.230469 132.085938 C 909.746094 142.960938 915.125 149.945312 904.84375 152.191406 Z M 904.84375 152.191406 " fill-opacity="1" fill-rule="nonzero"/><g clip-path="url(#f1d25b22ab)"><path fill="#000000" d="M 904.941406 153.027344 C 906.136719 153.027344 907.328125 152.632812 908.34375 151.863281 C 910.203125 150.453125 911.042969 148.148438 910.535156 145.851562 C 908.914062 138.519531 903.769531 130.773438 899.523438 129.273438 C 897.875 128.695312 896.777344 129.179688 896.140625 129.691406 C 894.871094 130.71875 894.382812 132.609375 894.886719 134.207031 C 893.375 134.703125 892.132812 136.238281 891.898438 138.035156 C 891.683594 139.695312 892.183594 141.511719 893.421875 143.582031 C 894.835938 145.945312 898.363281 150.230469 902.277344 152.347656 C 903.121094 152.800781 904.03125 153.027344 904.941406 153.027344 Z M 898.09375 130.695312 C 898.332031 130.695312 898.617188 130.742188 898.964844 130.863281 C 902.3125 132.042969 907.269531 138.859375 908.894531 146.214844 C 909.257812 147.859375 908.660156 149.511719 907.332031 150.519531 C 906.058594 151.488281 904.464844 151.617188 903.074219 150.863281 C 899.484375 148.921875 896.128906 144.835938 894.859375 142.714844 C 893.824219 140.980469 893.398438 139.519531 893.5625 138.25 C 893.730469 136.953125 894.761719 135.800781 895.8125 135.726562 C 896.183594 135.703125 896.511719 135.492188 896.683594 135.167969 C 896.859375 134.839844 896.855469 134.449219 896.667969 134.121094 C 896.113281 133.136719 896.359375 131.679688 897.195312 131.003906 C 897.304688 130.914062 897.574219 130.695312 898.09375 130.695312 Z M 895.207031 134.949219 Z M 895.207031 134.949219 " fill-opacity="1" fill-rule="nonzero"/></g><path fill="#fd9808" d="M 939.464844 162.976562 C 945.023438 167.445312 952.605469 163.496094 956.382812 158.28125 C 957.667969 156.5 958.582031 154.234375 958.101562 152.066406 C 957.621094 149.898438 955.316406 148.121094 953.226562 148.46875 C 953.753906 146.535156 952.886719 144.292969 951.21875 143.273438 C 949.554688 142.25 947.238281 142.546875 945.792969 143.636719 C 945.308594 142.125 943.746094 141.148438 942.210938 141.148438 C 940.675781 141.148438 939.21875 142.003906 938.203125 143.199219 C 937.1875 144.394531 936.570312 145.898438 936.152344 147.429688 C 934.753906 152.53125 934.445312 158.941406 939.464844 162.976562 Z M 939.464844 162.976562 " fill-opacity="1" fill-rule="nonzero"/><path fill="#000000" d="M 944.960938 165.761719 C 945.425781 165.761719 945.902344 165.726562 946.378906 165.664062 C 950.269531 165.140625 954.363281 162.5 957.058594 158.773438 C 958.027344 157.4375 959.558594 154.765625 958.917969 151.886719 C 958.429688 149.679688 956.386719 147.835938 954.210938 147.605469 C 954.324219 145.582031 953.3125 143.566406 951.65625 142.554688 C 950.101562 141.601562 947.914062 141.558594 946.148438 142.433594 C 945.324219 141.136719 943.800781 140.304688 942.214844 140.304688 C 942.210938 140.304688 942.210938 140.304688 942.210938 140.304688 C 940.523438 140.308594 938.832031 141.164062 937.566406 142.652344 C 936.597656 143.792969 935.871094 145.28125 935.34375 147.207031 C 933.355469 154.464844 934.597656 160.144531 938.941406 163.632812 C 940.683594 165.039062 942.742188 165.761719 944.960938 165.761719 Z M 948.859375 143.484375 C 949.554688 143.484375 950.230469 143.652344 950.78125 143.992188 C 951.933594 144.695312 952.652344 146.1875 952.527344 147.621094 C 952.492188 148.035156 952.625 148.453125 952.894531 148.761719 C 953.15625 149.066406 953.519531 149.246094 953.917969 149.269531 C 955.429688 149.363281 956.9375 150.699219 957.28125 152.25 C 957.777344 154.484375 956.503906 156.675781 955.703125 157.785156 C 953.300781 161.097656 949.554688 163.535156 946.15625 163.992188 C 943.832031 164.308594 941.757812 163.742188 939.988281 162.320312 C 935.214844 158.484375 935.707031 152.226562 936.960938 147.65625 C 937.421875 145.972656 938.039062 144.691406 938.84375 143.746094 C 939.773438 142.648438 941.035156 141.992188 942.210938 141.992188 C 942.210938 141.992188 942.210938 141.992188 942.214844 141.992188 C 943.261719 141.992188 944.300781 142.574219 944.792969 143.441406 C 945.195312 144.144531 946.054688 144.398438 946.757812 144.015625 C 947.410156 143.660156 948.144531 143.484375 948.859375 143.484375 Z M 948.859375 143.484375 " fill-opacity="1" fill-rule="nonzero"/><path fill="#000000" d="M 987.539062 118.683594 C 987.578125 118.683594 987.617188 118.679688 987.65625 118.671875 C 988.113281 118.609375 988.433594 118.183594 988.371094 117.722656 L 987.277344 109.867188 C 987.214844 109.40625 986.789062 109.085938 986.332031 109.152344 C 985.871094 109.214844 985.550781 109.640625 985.617188 110.101562 L 986.710938 117.957031 C 986.769531 118.378906 987.128906 118.683594 987.539062 118.683594 Z M 987.539062 118.683594 " fill-opacity="1" fill-rule="nonzero"/><path fill="#000000" d="M 980.359375 120.589844 C 980.367188 120.589844 980.371094 120.589844 980.375 120.589844 C 980.839844 120.582031 981.207031 120.199219 981.199219 119.734375 C 981.132812 116.105469 980.445312 112.542969 979.152344 109.148438 C 978.988281 108.714844 978.503906 108.496094 978.070312 108.664062 C 977.636719 108.828125 977.421875 109.316406 977.585938 109.75 C 978.808594 112.960938 979.460938 116.328125 979.523438 119.765625 C 979.53125 120.222656 979.90625 120.589844 980.359375 120.589844 Z M 980.359375 120.589844 " fill-opacity="1" fill-rule="nonzero"/><path fill="#000000" d="M 983.566406 137.691406 C 983.878906 137.691406 984.179688 137.515625 984.324219 137.210938 C 986.136719 133.386719 986.886719 129.132812 986.5 124.914062 C 986.457031 124.449219 986.054688 124.101562 985.585938 124.152344 C 985.125 124.195312 984.785156 124.605469 984.828125 125.066406 C 985.1875 128.984375 984.492188 132.933594 982.808594 136.488281 C 982.609375 136.910156 982.789062 137.410156 983.207031 137.613281 C 983.324219 137.667969 983.445312 137.691406 983.566406 137.691406 Z M 983.566406 137.691406 " fill-opacity="1" fill-rule="nonzero"/><path fill="#000000" d="M 930.933594 49.460938 C 931.320312 49.460938 931.664062 49.191406 931.753906 48.800781 L 933.140625 42.558594 C 933.242188 42.105469 932.957031 41.652344 932.503906 41.550781 C 932.054688 41.453125 931.605469 41.738281 931.503906 42.191406 L 930.113281 48.433594 C 930.015625 48.886719 930.296875 49.335938 930.75 49.4375 C 930.8125 49.453125 930.875 49.460938 930.933594 49.460938 Z M 930.933594 49.460938 " fill-opacity="1" fill-rule="nonzero"/><path fill="#000000" d="M 940.21875 52.269531 C 940.632812 52.269531 940.992188 51.960938 941.050781 51.539062 L 942.144531 43.207031 C 942.203125 42.746094 941.882812 42.324219 941.421875 42.261719 C 940.964844 42.203125 940.542969 42.527344 940.480469 42.988281 L 939.386719 51.316406 C 939.324219 51.78125 939.648438 52.203125 940.105469 52.261719 C 940.144531 52.269531 940.179688 52.269531 940.21875 52.269531 Z M 940.21875 52.269531 " fill-opacity="1" fill-rule="nonzero"/><path fill="#000000" d="M 934.882812 64.222656 C 935.289062 64.222656 935.648438 63.921875 935.710938 63.507812 L 937.050781 54.703125 C 937.121094 54.242188 936.804688 53.8125 936.347656 53.742188 C 935.886719 53.675781 935.460938 53.988281 935.390625 54.449219 L 934.054688 63.253906 C 933.984375 63.710938 934.296875 64.140625 934.757812 64.210938 C 934.800781 64.21875 934.839844 64.222656 934.882812 64.222656 Z M 934.882812 64.222656 " fill-opacity="1" fill-rule="nonzero"/><path fill="#000000" d="M 927.535156 63.976562 C 927.953125 63.976562 928.316406 63.660156 928.367188 63.234375 L 929.191406 56.34375 C 929.246094 55.878906 928.917969 55.460938 928.460938 55.40625 C 928 55.351562 927.582031 55.679688 927.527344 56.140625 L 926.703125 63.03125 C 926.644531 63.492188 926.972656 63.914062 927.433594 63.96875 C 927.46875 63.972656 927.503906 63.976562 927.535156 63.976562 Z M 927.535156 63.976562 " fill-opacity="1" fill-rule="nonzero"/><path fill="#000000" d="M 953.175781 116.632812 C 953.199219 116.632812 953.222656 116.632812 953.246094 116.632812 C 954.5 116.527344 955.429688 116.441406 955.886719 116.390625 C 982.671875 113.40625 990.53125 101.121094 992.410156 91.339844 C 995.753906 73.898438 982.546875 54.042969 973.433594 45.625 C 954.367188 28.011719 926.980469 32.375 912.539062 46.515625 C 903.492188 55.375 892.554688 76.316406 897.8125 93.125 C 900.703125 102.351562 905.820312 108.738281 913.457031 112.644531 C 913.875 112.855469 914.378906 112.691406 914.585938 112.277344 C 914.796875 111.863281 914.632812 111.355469 914.222656 111.144531 C 907.003906 107.453125 902.160156 101.394531 899.414062 92.617188 C 894.183594 75.90625 906.144531 55.128906 913.710938 47.71875 C 927.605469 34.113281 953.957031 29.917969 972.296875 46.867188 C 981.796875 55.644531 993.808594 75.144531 990.761719 91.023438 C 988.992188 100.246094 981.472656 111.84375 955.703125 114.714844 C 955.253906 114.765625 954.339844 114.851562 953.109375 114.953125 C 952.644531 114.992188 952.300781 115.398438 952.339844 115.859375 C 952.375 116.300781 952.742188 116.632812 953.175781 116.632812 Z M 953.175781 116.632812 " fill-opacity="1" fill-rule="nonzero"/><path fill="#000000" d="M 926.660156 94.824219 C 928.417969 94.824219 929.847656 93.800781 931.058594 92.824219 C 931.992188 92.074219 933.050781 91.21875 933.753906 90.132812 C 934.613281 88.804688 934.75 87.296875 934.121094 86.105469 C 933.558594 85.035156 932.34375 84.167969 930.792969 83.726562 C 929.523438 83.367188 923.996094 83.0625 922.425781 83.585938 C 920.636719 84.179688 919.414062 85.363281 919.160156 86.75 C 918.9375 87.941406 919.460938 89.042969 919.871094 89.765625 C 920.65625 91.144531 921.785156 92.414062 923.136719 93.441406 C 924.253906 94.289062 925.296875 94.738281 926.332031 94.8125 C 926.441406 94.820312 926.550781 94.824219 926.660156 94.824219 Z M 925.449219 84.992188 C 927.34375 84.992188 929.652344 85.152344 930.335938 85.347656 C 931.433594 85.660156 932.292969 86.234375 932.636719 86.890625 C 932.976562 87.539062 932.867188 88.40625 932.34375 89.21875 C 931.789062 90.074219 930.882812 90.804688 930.007812 91.511719 C 928.921875 92.382812 927.757812 93.226562 926.453125 93.132812 C 925.742188 93.082031 925.011719 92.753906 924.148438 92.097656 C 922.976562 91.207031 922 90.113281 921.328125 88.929688 C 920.882812 88.144531 920.71875 87.550781 920.808594 87.054688 C 920.949219 86.304688 921.789062 85.570312 922.953125 85.183594 C 923.367188 85.046875 924.335938 84.992188 925.449219 84.992188 Z M 925.449219 84.992188 " fill-opacity="1" fill-rule="nonzero"/><path fill="#000000" d="M 951.113281 115.78125 C 951.175781 115.78125 951.234375 115.777344 951.296875 115.761719 C 970.261719 111.578125 973.039062 99.636719 973.953125 95.714844 C 976.136719 86.347656 972.6875 76.980469 964.734375 70.667969 C 957.242188 64.722656 947.589844 63.039062 940.707031 66.480469 C 933.859375 69.902344 929.582031 77.65625 930.535156 84.917969 C 930.59375 85.382812 931.019531 85.703125 931.476562 85.644531 C 931.933594 85.582031 932.257812 85.160156 932.199219 84.699219 C 931.335938 78.128906 935.230469 71.101562 941.457031 67.984375 C 947.765625 64.832031 956.699219 66.441406 963.691406 71.988281 C 971.125 77.886719 974.351562 86.613281 972.320312 95.332031 C 971.464844 99 968.867188 110.160156 950.933594 114.117188 C 950.484375 114.21875 950.195312 114.667969 950.296875 115.121094 C 950.382812 115.511719 950.730469 115.78125 951.113281 115.78125 Z M 951.113281 115.78125 " fill-opacity="1" fill-rule="nonzero"/><path fill="#000000" d="M 922.539062 85.183594 C 922.898438 85.183594 923.230469 84.949219 923.34375 84.585938 C 925.535156 77.355469 922.3125 68.839844 915.839844 64.773438 C 913.449219 63.269531 910.09375 62.96875 906.859375 63.960938 C 903.023438 65.140625 899.890625 67.933594 898.265625 71.617188 C 898.078125 72.042969 898.269531 72.539062 898.695312 72.730469 C 899.117188 72.917969 899.613281 72.726562 899.800781 72.300781 C 901.226562 69.0625 903.980469 66.609375 907.351562 65.570312 C 910.125 64.71875 912.964844 64.953125 914.949219 66.199219 C 920.800781 69.875 923.71875 77.570312 921.738281 84.09375 C 921.601562 84.539062 921.851562 85.007812 922.296875 85.144531 C 922.375 85.171875 922.460938 85.183594 922.539062 85.183594 Z M 922.539062 85.183594 " fill-opacity="1" fill-rule="nonzero"/><path fill="#403d3d" d="M 908.027344 126.992188 C 907.777344 126.332031 907.417969 125.722656 907.246094 125.039062 C 906.847656 123.488281 906.402344 121.789062 905.652344 120.367188 C 905.351562 119.792969 905.003906 119.230469 904.695312 118.660156 C 904.460938 118.234375 904.167969 117.929688 903.816406 117.683594 C 904.164062 117.050781 904.699219 116.515625 905.382812 116.179688 C 917.226562 110.371094 918.496094 108.792969 928.59375 101.449219 C 930.277344 100.226562 932.589844 101.535156 932.460938 103.613281 C 931.78125 114.582031 926.371094 125.140625 917.953125 132.1875 C 917.09375 132.910156 916.304688 133.535156 915.554688 134.117188 C 915.304688 134.074219 915.054688 134.070312 914.8125 134.132812 C 914.761719 134.128906 914.722656 134.128906 914.691406 134.128906 C 914.546875 134.140625 914.414062 134.171875 914.285156 134.210938 C 913.976562 134.230469 913.679688 134.320312 913.421875 134.488281 C 913.382812 134.503906 913.34375 134.523438 913.304688 134.542969 C 913.164062 134.574219 913.023438 134.609375 912.980469 134.621094 C 912.785156 134.6875 912.554688 134.8125 912.335938 134.953125 C 912.269531 134.839844 912.207031 134.722656 912.132812 134.609375 C 911.679688 133.890625 911.15625 133.257812 910.773438 132.484375 C 910.222656 131.367188 909.492188 130.402344 908.835938 129.363281 C 908.574219 128.570312 908.320312 127.769531 908.027344 126.992188 Z M 908.027344 126.992188 " fill-opacity="1" fill-rule="nonzero"/><path fill="#000000" d="M 918.527344 132.167969 C 918.714844 132.167969 918.90625 132.101562 919.066406 131.96875 C 923.679688 128.082031 927.863281 121.960938 930.546875 115.175781 C 930.71875 114.742188 930.507812 114.253906 930.078125 114.082031 C 929.644531 113.910156 929.160156 114.121094 928.988281 114.550781 C 926.40625 121.085938 922.394531 126.964844 917.984375 130.679688 C 917.632812 130.980469 917.585938 131.511719 917.882812 131.867188 C 918.050781 132.066406 918.285156 132.167969 918.527344 132.167969 Z M 918.527344 132.167969 " fill-opacity="1" fill-rule="nonzero"/><path fill="#000000" d="M 909.027344 114.980469 C 909.128906 114.980469 909.230469 114.964844 909.328125 114.925781 C 916.699219 112.074219 920.726562 108.839844 926.824219 103.945312 C 927.554688 103.359375 928.316406 102.746094 929.125 102.105469 C 929.429688 101.859375 929.785156 101.789062 930.179688 101.898438 C 930.628906 102.023438 931.089844 101.757812 931.210938 101.308594 C 931.335938 100.859375 931.070312 100.398438 930.625 100.273438 C 929.714844 100.023438 928.808594 100.207031 928.082031 100.785156 C 927.273438 101.429688 926.507812 102.042969 925.777344 102.628906 C 919.589844 107.597656 915.855469 110.59375 908.726562 113.355469 C 908.292969 113.519531 908.078125 114.007812 908.246094 114.441406 C 908.375 114.777344 908.691406 114.980469 909.027344 114.980469 Z M 909.027344 114.980469 " fill-opacity="1" fill-rule="nonzero"/><path fill="#403d3d" d="M 951.273438 127.808594 C 951.546875 127.15625 951.921875 126.5625 952.121094 125.882812 C 952.566406 124.34375 953.066406 122.660156 953.863281 121.265625 C 954.183594 120.703125 954.546875 120.152344 954.875 119.589844 C 955.121094 119.171875 955.425781 118.878906 955.785156 118.644531 C 955.457031 118 954.941406 117.449219 954.269531 117.089844 C 942.621094 110.898438 941.402344 109.277344 931.546875 101.605469 C 929.90625 100.328125 927.550781 101.558594 927.613281 103.644531 C 927.933594 114.625 933 125.355469 941.183594 132.679688 C 942.019531 133.425781 942.785156 134.078125 943.519531 134.683594 C 943.769531 134.648438 944.019531 134.652344 944.261719 134.722656 C 944.308594 134.722656 944.351562 134.722656 944.378906 134.722656 C 944.523438 134.738281 944.65625 134.777344 944.785156 134.820312 C 945.09375 134.847656 945.386719 134.945312 945.640625 135.125 C 945.679688 135.140625 945.714844 135.160156 945.753906 135.179688 C 945.894531 135.21875 946.035156 135.257812 946.078125 135.273438 C 946.265625 135.347656 946.496094 135.476562 946.707031 135.625 C 946.777344 135.511719 946.84375 135.398438 946.921875 135.285156 C 947.398438 134.585938 947.941406 133.96875 948.347656 133.210938 C 948.9375 132.109375 949.699219 131.167969 950.386719 130.152344 C 950.675781 129.371094 950.953125 128.578125 951.273438 127.808594 Z M 951.273438 127.808594 " fill-opacity="1" fill-rule="nonzero"/><path fill="#000000" d="M 942.058594 133.828125 C 942.308594 133.828125 942.554688 133.714844 942.722656 133.503906 C 943.007812 133.136719 942.9375 132.605469 942.574219 132.320312 C 934.171875 125.785156 928.800781 112.769531 928.460938 103.960938 C 928.429688 103.101562 929.03125 102.40625 929.609375 102.128906 C 929.90625 101.980469 930.480469 101.804688 931 102.242188 C 931.78125 102.910156 932.527344 103.550781 933.238281 104.160156 C 940.109375 110.054688 944.257812 113.613281 954.121094 117.175781 C 954.558594 117.332031 955.039062 117.105469 955.195312 116.667969 C 955.351562 116.230469 955.125 115.746094 954.6875 115.589844 C 945.113281 112.132812 941.285156 108.847656 934.328125 102.878906 C 933.613281 102.265625 932.871094 101.628906 932.085938 100.960938 C 931.1875 100.199219 929.988281 100.066406 928.875 100.613281 C 927.570312 101.25 926.730469 102.621094 926.785156 104.027344 C 927.140625 113.21875 932.757812 126.8125 941.542969 133.652344 C 941.699219 133.769531 941.878906 133.828125 942.058594 133.828125 Z M 942.058594 133.828125 " fill-opacity="1" fill-rule="nonzero"/></svg>