<svg xmlns="http://www.w3.org/2000/svg" xmlns:xlink="http://www.w3.org/1999/xlink" width="1366" zoomAndPan="magnify" viewBox="0 0 1024.5 576" height="768" preserveAspectRatio="xMidYMid meet" version="1.0"><defs><g/><clipPath id="f9b2b2f18e"><path d="M 0 0.140625 L 1024 0.140625 L 1024 575.859375 L 0 575.859375 Z M 0 0.140625 " clip-rule="nonzero"/></clipPath><clipPath id="15b6e12872"><path d="M 204 129 L 223.84375 129 L 223.84375 154 L 204 154 Z M 204 129 " clip-rule="nonzero"/></clipPath><clipPath id="e780c3f92d"><path d="M 843.15625 129 L 863 129 L 863 154 L 843.15625 154 Z M 843.15625 129 " clip-rule="nonzero"/></clipPath></defs><g clip-path="url(#f9b2b2f18e)"><path fill="#ffffff" d="M 0 0.140625 L 1024 0.140625 L 1024 575.859375 L 0 575.859375 Z M 0 0.140625 " fill-opacity="1" fill-rule="nonzero"/><path fill="#1f3f47" d="M 0 0.140625 L 1024 0.140625 L 1024 575.859375 L 0 575.859375 Z M 0 0.140625 " fill-opacity="1" fill-rule="nonzero"/></g><path fill="#403d3d" d="M 220.296875 134.953125 C 220.265625 131.605469 219.445312 128.207031 217.777344 125.636719 C 217.28125 124.871094 217.0625 123.949219 217.230469 123.050781 C 218.636719 115.578125 216.847656 108.238281 212.246094 102.269531 C 209.703125 95.5625 202.734375 91.800781 196.09375 89.304688 C 178.429688 82.660156 159.683594 81.28125 134.488281 90.246094 C 127.140625 98.792969 121.550781 107.949219 121.265625 119.433594 C 120.976562 130.917969 126.109375 144.519531 134.835938 151.453125 C 144.660156 159.253906 156.203125 160.957031 168.535156 161.578125 C 176.027344 161.957031 182.828125 161.671875 191.5625 158.203125 C 192.804688 157.707031 194.09375 157.355469 195.40625 157.097656 C 199.738281 156.238281 204.300781 155.351562 208.410156 153.292969 C 209.015625 152.992188 209.609375 152.660156 210.1875 152.304688 " fill-opacity="1" fill-rule="nonzero"/><path fill="#403d3d" d="M 186.296875 116.238281 C 198.167969 114.605469 211.3125 110.5625 216.847656 92.871094 C 222.078125 76.15625 210.738281 55.347656 202.335938 47.117188 C 187.933594 33.011719 161.003906 29.242188 142.597656 46.246094 C 133.574219 54.582031 120.644531 74.332031 123.878906 91.179688 C 125.820312 101.296875 134.066406 112.699219 159.667969 115.550781 C 162.199219 115.835938 179.078125 117.230469 186.296875 116.238281 Z M 186.296875 116.238281 " fill-opacity="1" fill-rule="nonzero"/><path fill="#ffffff" d="M 182.445312 116.796875 C 193.558594 117.46875 204.394531 111.761719 210.878906 104.425781 C 216.144531 98.464844 217.917969 92.191406 217.734375 85.144531 C 217.550781 78.101562 218.988281 76.375 216.050781 71.175781 C 213.253906 66.230469 206.972656 62.351562 202.175781 64.800781 C 197.375 67.25 193.6875 71.828125 192.28125 77.082031 C 191.527344 79.894531 191.496094 83.167969 193.296875 85.449219 C 190.328125 85.535156 187.359375 85.617188 184.394531 85.703125 C 184.976562 78.859375 181.929688 72.058594 176.609375 68.378906 C 171.285156 64.695312 163.925781 64.296875 158.253906 67.382812 C 152.082031 70.957031 143.292969 76.824219 142.675781 83.59375 C 142.054688 90.359375 139.996094 102.8125 153.554688 110.917969 C 165.699219 116.667969 171.421875 116.128906 182.445312 116.796875 Z M 182.445312 116.796875 " fill-opacity="1" fill-rule="nonzero"/><path fill="#fd9808" d="M 184.898438 84.535156 C 183.710938 84.875 182.585938 85.539062 182.082031 86.5 C 181.546875 87.519531 181.792969 88.714844 182.414062 89.675781 C 183.035156 90.636719 183.992188 91.410156 184.929688 92.167969 C 186.082031 93.097656 187.449219 94.089844 189.070312 93.972656 C 190.113281 93.898438 191.039062 93.363281 191.820312 92.769531 C 193.089844 91.808594 194.128906 90.636719 194.863281 89.347656 C 195.300781 88.582031 195.632812 87.730469 195.480469 86.902344 C 195.261719 85.730469 194.09375 84.824219 192.773438 84.386719 C 191.457031 83.949219 186.085938 84.199219 184.898438 84.535156 Z M 184.898438 84.535156 " fill-opacity="1" fill-rule="nonzero"/><path fill="#ed9184" d="M 160.523438 94.390625 C 160.523438 94.914062 160.421875 95.414062 160.222656 95.898438 C 160.023438 96.378906 159.742188 96.804688 159.375 97.175781 C 159.003906 97.542969 158.582031 97.828125 158.101562 98.027344 C 157.621094 98.226562 157.121094 98.328125 156.601562 98.328125 C 156.078125 98.328125 155.578125 98.226562 155.097656 98.027344 C 154.617188 97.828125 154.195312 97.542969 153.824219 97.175781 C 153.457031 96.804688 153.175781 96.378906 152.976562 95.898438 C 152.777344 95.414062 152.675781 94.914062 152.675781 94.390625 C 152.675781 93.871094 152.777344 93.367188 152.976562 92.886719 C 153.175781 92.402344 153.457031 91.976562 153.824219 91.609375 C 154.195312 91.238281 154.617188 90.953125 155.097656 90.753906 C 155.578125 90.554688 156.078125 90.453125 156.601562 90.453125 C 157.121094 90.453125 157.621094 90.554688 158.101562 90.753906 C 158.582031 90.953125 159.003906 91.238281 159.375 91.609375 C 159.742188 91.976562 160.023438 92.402344 160.222656 92.886719 C 160.421875 93.367188 160.523438 93.871094 160.523438 94.390625 Z M 160.523438 94.390625 " fill-opacity="1" fill-rule="nonzero"/><path fill="#000000" d="M 166.027344 87.179688 C 164.410156 87.761719 162.691406 88.417969 161.683594 89.8125 C 161.332031 90.300781 161.078125 90.917969 161.238281 91.5 C 161.410156 92.105469 162.007812 92.511719 162.621094 92.636719 C 163.234375 92.761719 163.871094 92.65625 164.488281 92.539062 C 165.832031 92.285156 167.175781 91.980469 168.46875 91.53125 C 169.214844 91.269531 169.964844 90.945312 170.527344 90.390625 C 171.089844 89.835938 171.4375 89 171.230469 88.234375 C 171 87.394531 170.15625 86.84375 169.304688 86.695312 C 168.449219 86.546875 167.546875 86.632812 166.027344 87.179688 Z M 166.027344 87.179688 " fill-opacity="1" fill-rule="nonzero"/><path fill="#000000" d="M 209.675781 84.957031 C 211.3125 85.492188 213.046875 86.09375 214.097656 87.460938 C 214.464844 87.9375 214.734375 88.546875 214.589844 89.132812 C 214.4375 89.742188 213.855469 90.167969 213.242188 90.3125 C 212.632812 90.457031 211.996094 90.367188 211.375 90.269531 C 210.023438 90.054688 208.671875 89.792969 207.367188 89.378906 C 206.613281 89.140625 205.855469 88.839844 205.273438 88.300781 C 204.691406 87.761719 204.320312 86.9375 204.507812 86.167969 C 204.714844 85.324219 205.539062 84.746094 206.386719 84.570312 C 207.234375 84.398438 208.140625 84.457031 209.675781 84.957031 Z M 209.675781 84.957031 " fill-opacity="1" fill-rule="nonzero"/><path fill="#000000" d="M 161.414062 161.867188 C 161.382812 161.867188 161.351562 161.867188 161.320312 161.863281 C 149.644531 160.574219 140.921875 157.371094 133.875 151.773438 C 125.28125 144.945312 120.132812 133.125 120.4375 120.917969 C 120.601562 114.328125 122.789062 107.089844 126.765625 99.980469 C 126.992188 99.574219 127.503906 99.429688 127.90625 99.660156 C 128.3125 99.886719 128.453125 100.398438 128.226562 100.804688 C 124.386719 107.675781 122.273438 114.644531 122.113281 120.960938 C 121.824219 132.648438 126.726562 143.949219 134.917969 150.453125 C 141.707031 155.84375 150.152344 158.9375 161.503906 160.1875 C 161.964844 160.238281 162.296875 160.65625 162.246094 161.117188 C 162.199219 161.546875 161.835938 161.867188 161.414062 161.867188 Z M 161.414062 161.867188 " fill-opacity="1" fill-rule="nonzero"/><path fill="#000000" d="M 177.757812 162.363281 C 177.324219 162.363281 176.957031 162.03125 176.921875 161.589844 C 176.882812 161.128906 177.226562 160.722656 177.6875 160.683594 C 182.3125 160.296875 186.625 159.257812 191.253906 157.417969 C 192.464844 156.9375 193.769531 156.5625 195.242188 156.269531 L 195.375 156.246094 C 199.648438 155.398438 204.066406 154.527344 208.039062 152.539062 C 208.617188 152.246094 209.195312 151.925781 209.757812 151.582031 C 210.152344 151.34375 210.667969 151.464844 210.910156 151.863281 C 211.152344 152.261719 211.027344 152.777344 210.628906 153.019531 C 210.03125 153.390625 209.410156 153.734375 208.785156 154.046875 C 204.613281 156.136719 200.082031 157.03125 195.699219 157.898438 L 195.566406 157.921875 C 194.195312 158.195312 192.988281 158.542969 191.871094 158.984375 C 187.082031 160.886719 182.621094 161.960938 177.828125 162.359375 C 177.804688 162.363281 177.78125 162.363281 177.757812 162.363281 Z M 177.757812 162.363281 " fill-opacity="1" fill-rule="nonzero"/><path fill="#000000" d="M 220.296875 135.796875 C 219.835938 135.796875 219.460938 135.425781 219.457031 134.960938 C 219.425781 131.5625 218.578125 128.414062 217.074219 126.097656 C 216.441406 125.117188 216.203125 123.980469 216.40625 122.894531 C 217.367188 117.789062 217.375 110.152344 211.957031 102.757812 C 211.679688 102.382812 211.761719 101.855469 212.132812 101.578125 C 212.507812 101.304688 213.03125 101.382812 213.308594 101.757812 C 217.8125 107.910156 219.5 115.527344 218.054688 123.207031 C 217.929688 123.863281 218.082031 124.566406 218.480469 125.179688 C 220.15625 127.761719 221.097656 131.230469 221.132812 134.945312 C 221.140625 135.410156 220.765625 135.792969 220.304688 135.796875 C 220.300781 135.796875 220.296875 135.796875 220.296875 135.796875 Z M 220.296875 135.796875 " fill-opacity="1" fill-rule="nonzero"/><path fill="#fd9808" d="M 210.617188 152.191406 C 213.964844 150.925781 218.851562 147.273438 221.320312 143.148438 C 222.226562 141.640625 222.960938 139.898438 222.730469 138.140625 C 222.523438 136.53125 221.242188 134.992188 219.710938 134.886719 C 219.53125 134.875 219.433594 134.695312 219.523438 134.535156 C 220.273438 133.207031 219.976562 131.3125 218.796875 130.347656 C 217.503906 129.292969 214.566406 131.207031 213.230469 132.085938 C 205.71875 142.960938 200.335938 149.945312 210.617188 152.191406 Z M 210.617188 152.191406 " fill-opacity="1" fill-rule="nonzero"/><g clip-path="url(#15b6e12872)"><path fill="#000000" d="M 210.523438 153.027344 C 209.324219 153.027344 208.136719 152.632812 207.121094 151.863281 C 205.261719 150.453125 204.421875 148.148438 204.929688 145.851562 C 206.546875 138.519531 211.695312 130.773438 215.941406 129.273438 C 217.585938 128.695312 218.6875 129.179688 219.320312 129.691406 C 220.59375 130.71875 221.082031 132.609375 220.578125 134.207031 C 222.085938 134.703125 223.332031 136.238281 223.5625 138.035156 C 223.777344 139.695312 223.28125 141.511719 222.039062 143.582031 C 220.625 145.945312 217.097656 150.230469 213.183594 152.347656 C 212.339844 152.800781 211.429688 153.027344 210.523438 153.027344 Z M 217.367188 130.695312 C 217.132812 130.695312 216.84375 130.742188 216.496094 130.863281 C 213.148438 132.042969 208.191406 138.859375 206.566406 146.214844 C 206.203125 147.859375 206.804688 149.511719 208.132812 150.519531 C 209.40625 151.488281 210.996094 151.617188 212.386719 150.863281 C 215.980469 148.921875 219.332031 144.835938 220.601562 142.714844 C 221.640625 140.980469 222.0625 139.519531 221.898438 138.25 C 221.730469 136.953125 220.703125 135.800781 219.652344 135.726562 C 219.277344 135.703125 218.953125 135.492188 218.777344 135.167969 C 218.601562 134.839844 218.609375 134.449219 218.792969 134.121094 C 219.351562 133.136719 219.105469 131.679688 218.269531 131.003906 C 218.15625 130.914062 217.886719 130.695312 217.367188 130.695312 Z M 220.253906 134.949219 Z M 220.253906 134.949219 " fill-opacity="1" fill-rule="nonzero"/></g><path fill="#fd9808" d="M 176 162.976562 C 170.441406 167.445312 162.859375 163.496094 159.082031 158.28125 C 157.792969 156.5 156.882812 154.234375 157.363281 152.066406 C 157.84375 149.898438 160.144531 148.121094 162.234375 148.46875 C 161.710938 146.535156 162.578125 144.292969 164.242188 143.273438 C 165.910156 142.25 168.226562 142.546875 169.671875 143.636719 C 170.152344 142.125 171.714844 141.148438 173.253906 141.148438 C 174.789062 141.148438 176.246094 142.003906 177.257812 143.199219 C 178.273438 144.394531 178.890625 145.898438 179.3125 147.429688 C 180.710938 152.53125 181.019531 158.941406 176 162.976562 Z M 176 162.976562 " fill-opacity="1" fill-rule="nonzero"/><path fill="#000000" d="M 170.503906 165.761719 C 170.035156 165.761719 169.5625 165.726562 169.082031 165.664062 C 165.191406 165.140625 161.101562 162.5 158.402344 158.773438 C 157.433594 157.4375 155.90625 154.765625 156.542969 151.886719 C 157.03125 149.679688 159.078125 147.835938 161.25 147.605469 C 161.136719 145.582031 162.152344 143.566406 163.804688 142.554688 C 165.363281 141.601562 167.550781 141.558594 169.316406 142.433594 C 170.140625 141.136719 171.660156 140.304688 173.25 140.304688 C 173.25 140.304688 173.253906 140.304688 173.253906 140.304688 C 174.9375 140.308594 176.632812 141.164062 177.898438 142.652344 C 178.863281 143.792969 179.589844 145.28125 180.121094 147.207031 C 182.109375 154.464844 180.863281 160.144531 176.523438 163.632812 C 174.777344 165.039062 172.71875 165.761719 170.503906 165.761719 Z M 166.605469 143.484375 C 165.90625 143.484375 165.234375 143.652344 164.679688 143.992188 C 163.53125 144.695312 162.8125 146.1875 162.933594 147.621094 C 162.96875 148.035156 162.835938 148.453125 162.570312 148.761719 C 162.308594 149.066406 161.945312 149.246094 161.546875 149.269531 C 160.035156 149.363281 158.523438 150.699219 158.179688 152.25 C 157.6875 154.484375 158.957031 156.675781 159.761719 157.785156 C 162.160156 161.097656 165.90625 163.535156 169.304688 163.992188 C 171.628906 164.308594 173.703125 163.742188 175.472656 162.320312 C 180.246094 158.484375 179.753906 152.226562 178.5 147.65625 C 178.039062 145.972656 177.425781 144.691406 176.621094 143.746094 C 175.6875 142.648438 174.429688 141.992188 173.25 141.992188 C 172.199219 141.992188 171.164062 142.574219 170.667969 143.441406 C 170.269531 144.144531 169.40625 144.398438 168.703125 144.015625 C 168.054688 143.660156 167.316406 143.484375 166.605469 143.484375 Z M 166.605469 143.484375 " fill-opacity="1" fill-rule="nonzero"/><path fill="#000000" d="M 127.925781 118.683594 C 127.886719 118.683594 127.847656 118.679688 127.808594 118.671875 C 127.347656 118.609375 127.027344 118.183594 127.09375 117.722656 L 128.183594 109.867188 C 128.25 109.40625 128.675781 109.085938 129.132812 109.152344 C 129.589844 109.214844 129.910156 109.640625 129.847656 110.101562 L 128.753906 117.957031 C 128.695312 118.378906 128.335938 118.683594 127.925781 118.683594 Z M 127.925781 118.683594 " fill-opacity="1" fill-rule="nonzero"/><path fill="#000000" d="M 135.101562 120.589844 C 135.097656 120.589844 135.089844 120.589844 135.085938 120.589844 C 134.625 120.582031 134.253906 120.199219 134.261719 119.734375 C 134.328125 116.105469 135.015625 112.542969 136.308594 109.148438 C 136.476562 108.714844 136.957031 108.496094 137.390625 108.664062 C 137.824219 108.828125 138.042969 109.316406 137.875 109.75 C 136.65625 112.960938 136.003906 116.328125 135.941406 119.765625 C 135.933594 120.222656 135.558594 120.589844 135.101562 120.589844 Z M 135.101562 120.589844 " fill-opacity="1" fill-rule="nonzero"/><path fill="#000000" d="M 131.898438 137.691406 C 131.582031 137.691406 131.28125 137.515625 131.140625 137.210938 C 129.328125 133.386719 128.574219 129.132812 128.964844 124.914062 C 129.007812 124.449219 129.410156 124.101562 129.878906 124.152344 C 130.339844 124.195312 130.679688 124.605469 130.636719 125.066406 C 130.273438 128.984375 130.972656 132.933594 132.65625 136.488281 C 132.855469 136.910156 132.675781 137.410156 132.257812 137.613281 C 132.140625 137.667969 132.019531 137.691406 131.898438 137.691406 Z M 131.898438 137.691406 " fill-opacity="1" fill-rule="nonzero"/><path fill="#000000" d="M 184.527344 49.460938 C 184.144531 49.460938 183.796875 49.191406 183.710938 48.800781 L 182.320312 42.558594 C 182.222656 42.105469 182.503906 41.652344 182.957031 41.550781 C 183.410156 41.453125 183.859375 41.738281 183.960938 42.191406 L 185.347656 48.433594 C 185.449219 48.886719 185.164062 49.335938 184.710938 49.4375 C 184.652344 49.453125 184.589844 49.460938 184.527344 49.460938 Z M 184.527344 49.460938 " fill-opacity="1" fill-rule="nonzero"/><path fill="#000000" d="M 175.246094 52.269531 C 174.832031 52.269531 174.46875 51.960938 174.414062 51.539062 L 173.320312 43.207031 C 173.257812 42.746094 173.582031 42.324219 174.042969 42.261719 C 174.5 42.203125 174.921875 42.527344 174.984375 42.988281 L 176.078125 51.316406 C 176.136719 51.78125 175.816406 52.203125 175.355469 52.261719 C 175.320312 52.269531 175.28125 52.269531 175.246094 52.269531 Z M 175.246094 52.269531 " fill-opacity="1" fill-rule="nonzero"/><path fill="#000000" d="M 180.578125 64.222656 C 180.171875 64.222656 179.816406 63.921875 179.75 63.507812 L 178.414062 54.703125 C 178.34375 54.242188 178.660156 53.8125 179.117188 53.742188 C 179.574219 53.675781 180.003906 53.988281 180.074219 54.449219 L 181.410156 63.253906 C 181.480469 63.710938 181.164062 64.140625 180.707031 64.210938 C 180.664062 64.21875 180.621094 64.222656 180.578125 64.222656 Z M 180.578125 64.222656 " fill-opacity="1" fill-rule="nonzero"/><path fill="#000000" d="M 187.925781 63.976562 C 187.507812 63.976562 187.148438 63.660156 187.097656 63.234375 L 186.269531 56.34375 C 186.214844 55.878906 186.542969 55.460938 187.003906 55.40625 C 187.460938 55.351562 187.882812 55.679688 187.9375 56.140625 L 188.761719 63.03125 C 188.816406 63.492188 188.488281 63.914062 188.027344 63.96875 C 187.996094 63.972656 187.960938 63.976562 187.925781 63.976562 Z M 187.925781 63.976562 " fill-opacity="1" fill-rule="nonzero"/><path fill="#000000" d="M 162.289062 116.632812 C 162.265625 116.632812 162.242188 116.632812 162.21875 116.632812 C 160.960938 116.527344 160.035156 116.441406 159.574219 116.390625 C 132.789062 113.40625 124.929688 101.121094 123.054688 91.339844 C 119.707031 73.898438 132.917969 54.042969 142.03125 45.625 C 161.09375 28.011719 188.484375 32.375 202.921875 46.515625 C 211.972656 55.375 222.910156 76.316406 217.648438 93.125 C 214.761719 102.351562 209.644531 108.738281 202.003906 112.644531 C 201.589844 112.855469 201.085938 112.691406 200.875 112.277344 C 200.664062 111.863281 200.828125 111.355469 201.242188 111.144531 C 208.460938 107.453125 213.304688 101.394531 216.050781 92.617188 C 221.277344 75.90625 209.316406 55.128906 201.75 47.71875 C 187.859375 34.113281 161.507812 29.917969 143.164062 46.867188 C 133.664062 55.644531 121.65625 75.144531 124.703125 91.023438 C 126.472656 100.246094 133.992188 111.84375 159.757812 114.714844 C 160.210938 114.765625 161.121094 114.851562 162.355469 114.953125 C 162.816406 114.992188 163.160156 115.398438 163.121094 115.859375 C 163.085938 116.300781 162.71875 116.632812 162.289062 116.632812 Z M 162.289062 116.632812 " fill-opacity="1" fill-rule="nonzero"/><path fill="#000000" d="M 188.804688 94.824219 C 187.042969 94.824219 185.617188 93.800781 184.40625 92.824219 C 183.472656 92.074219 182.410156 91.21875 181.710938 90.132812 C 180.851562 88.804688 180.714844 87.296875 181.339844 86.105469 C 181.90625 85.035156 183.117188 84.167969 184.671875 83.726562 C 185.9375 83.367188 191.464844 83.0625 193.039062 83.585938 C 194.828125 84.179688 196.046875 85.363281 196.304688 86.75 C 196.523438 87.941406 196.003906 89.042969 195.589844 89.765625 C 194.808594 91.144531 193.679688 92.414062 192.328125 93.441406 C 191.210938 94.289062 190.164062 94.738281 189.132812 94.8125 C 189.019531 94.820312 188.910156 94.824219 188.804688 94.824219 Z M 190.015625 84.992188 C 188.121094 84.992188 185.8125 85.152344 185.128906 85.347656 L 185.125 85.347656 C 184.03125 85.660156 183.171875 86.234375 182.824219 86.890625 C 182.484375 87.539062 182.59375 88.40625 183.117188 89.21875 C 183.671875 90.074219 184.578125 90.804688 185.457031 91.511719 C 186.539062 92.382812 187.707031 93.226562 189.011719 93.132812 C 189.722656 93.082031 190.453125 92.753906 191.316406 92.097656 C 192.484375 91.207031 193.460938 90.113281 194.132812 88.929688 C 194.578125 88.144531 194.746094 87.550781 194.652344 87.054688 C 194.515625 86.304688 193.675781 85.570312 192.511719 85.183594 C 192.097656 85.046875 191.125 84.992188 190.015625 84.992188 Z M 190.015625 84.992188 " fill-opacity="1" fill-rule="nonzero"/><path fill="#000000" d="M 164.347656 115.78125 C 164.289062 115.78125 164.226562 115.777344 164.167969 115.761719 C 145.203125 111.578125 142.421875 99.636719 141.507812 95.714844 C 139.328125 86.347656 142.773438 76.980469 150.730469 70.667969 C 158.222656 64.722656 167.875 63.039062 174.753906 66.480469 C 181.605469 69.902344 185.882812 77.65625 184.929688 84.917969 C 184.867188 85.382812 184.441406 85.703125 183.988281 85.644531 C 183.527344 85.582031 183.207031 85.160156 183.265625 84.699219 C 184.128906 78.128906 180.234375 71.101562 174.007812 67.984375 C 167.699219 64.832031 158.761719 66.441406 151.769531 71.988281 C 144.339844 77.886719 141.113281 86.613281 143.144531 95.332031 C 143.996094 99 146.59375 110.160156 164.527344 114.117188 C 164.980469 114.21875 165.265625 114.667969 165.167969 115.121094 C 165.082031 115.511719 164.734375 115.78125 164.347656 115.78125 Z M 164.347656 115.78125 " fill-opacity="1" fill-rule="nonzero"/><path fill="#000000" d="M 192.921875 85.183594 C 192.5625 85.183594 192.230469 84.949219 192.121094 84.585938 C 189.925781 77.355469 193.152344 68.839844 199.621094 64.773438 C 202.015625 63.269531 205.371094 62.96875 208.605469 63.960938 C 212.441406 65.140625 215.574219 67.933594 217.195312 71.617188 C 217.382812 72.042969 217.191406 72.539062 216.769531 72.730469 C 216.34375 72.917969 215.847656 72.726562 215.664062 72.300781 C 214.234375 69.0625 211.484375 66.609375 208.113281 65.570312 C 205.339844 64.71875 202.496094 64.953125 200.511719 66.199219 C 194.664062 69.875 191.746094 77.570312 193.726562 84.09375 C 193.859375 84.539062 193.609375 85.007812 193.167969 85.144531 C 193.085938 85.171875 193.003906 85.183594 192.921875 85.183594 Z M 192.921875 85.183594 " fill-opacity="1" fill-rule="nonzero"/><path fill="#403d3d" d="M 207.4375 126.992188 C 207.6875 126.332031 208.042969 125.722656 208.21875 125.039062 C 208.613281 123.488281 209.0625 121.789062 209.8125 120.367188 C 210.113281 119.792969 210.457031 119.230469 210.769531 118.660156 C 211 118.234375 211.296875 117.929688 211.648438 117.683594 C 211.300781 117.050781 210.765625 116.515625 210.082031 116.179688 C 198.238281 110.371094 196.96875 108.792969 186.867188 101.449219 C 185.1875 100.226562 182.871094 101.535156 183 103.613281 C 183.679688 114.582031 189.09375 125.140625 197.511719 132.1875 C 198.371094 132.910156 199.15625 133.535156 199.910156 134.117188 C 200.15625 134.074219 200.410156 134.070312 200.652344 134.132812 C 200.699219 134.128906 200.742188 134.128906 200.769531 134.128906 C 200.914062 134.140625 201.046875 134.171875 201.179688 134.210938 C 201.488281 134.230469 201.78125 134.320312 202.042969 134.488281 C 202.082031 134.503906 202.121094 134.523438 202.15625 134.542969 C 202.300781 134.574219 202.441406 134.609375 202.484375 134.621094 C 202.675781 134.6875 202.910156 134.8125 203.125 134.953125 C 203.195312 134.839844 203.257812 134.722656 203.328125 134.609375 C 203.785156 133.890625 204.304688 133.257812 204.6875 132.484375 C 205.242188 131.367188 205.972656 130.402344 206.625 129.363281 C 206.886719 128.570312 207.140625 127.769531 207.4375 126.992188 Z M 207.4375 126.992188 " fill-opacity="1" fill-rule="nonzero"/><path fill="#000000" d="M 196.9375 132.167969 C 196.746094 132.167969 196.554688 132.101562 196.398438 131.96875 C 191.785156 128.082031 187.597656 121.960938 184.914062 115.175781 C 184.742188 114.742188 184.953125 114.253906 185.386719 114.082031 C 185.816406 113.910156 186.304688 114.121094 186.476562 114.550781 C 189.058594 121.085938 193.070312 126.964844 197.476562 130.679688 C 197.832031 130.980469 197.878906 131.511719 197.578125 131.867188 C 197.414062 132.066406 197.175781 132.167969 196.9375 132.167969 Z M 196.9375 132.167969 " fill-opacity="1" fill-rule="nonzero"/><path fill="#000000" d="M 206.433594 114.980469 C 206.335938 114.980469 206.234375 114.964844 206.132812 114.925781 C 198.761719 112.074219 194.734375 108.839844 188.640625 103.945312 C 187.910156 103.359375 187.144531 102.746094 186.339844 102.105469 C 186.03125 101.859375 185.675781 101.789062 185.28125 101.898438 C 184.835938 102.023438 184.371094 101.757812 184.25 101.308594 C 184.128906 100.859375 184.390625 100.398438 184.839844 100.273438 C 185.75 100.023438 186.652344 100.207031 187.382812 100.785156 C 188.191406 101.429688 188.953125 102.042969 189.6875 102.628906 C 195.875 107.597656 199.609375 110.59375 206.738281 113.355469 C 207.167969 113.519531 207.386719 114.007812 207.21875 114.441406 C 207.089844 114.777344 206.773438 114.980469 206.433594 114.980469 Z M 206.433594 114.980469 " fill-opacity="1" fill-rule="nonzero"/><path fill="#403d3d" d="M 164.1875 127.808594 C 163.917969 127.15625 163.539062 126.5625 163.34375 125.882812 C 162.898438 124.34375 162.394531 122.660156 161.601562 121.265625 C 161.28125 120.703125 160.917969 120.152344 160.585938 119.589844 C 160.34375 119.171875 160.039062 118.878906 159.679688 118.644531 C 160.003906 118 160.519531 117.449219 161.191406 117.089844 C 172.84375 110.898438 174.058594 109.277344 183.914062 101.605469 C 185.554688 100.328125 187.910156 101.558594 187.851562 103.644531 C 187.527344 114.625 182.460938 125.355469 174.277344 132.679688 C 173.441406 133.425781 172.675781 134.078125 171.941406 134.683594 C 171.695312 134.648438 171.441406 134.652344 171.203125 134.722656 C 171.152344 134.722656 171.113281 134.722656 171.082031 134.722656 C 170.9375 134.738281 170.808594 134.777344 170.679688 134.820312 C 170.371094 134.847656 170.078125 134.945312 169.824219 135.125 C 169.785156 135.140625 169.746094 135.160156 169.710938 135.179688 C 169.570312 135.21875 169.429688 135.257812 169.386719 135.273438 C 169.195312 135.347656 168.96875 135.476562 168.753906 135.625 C 168.683594 135.511719 168.617188 135.398438 168.542969 135.285156 C 168.0625 134.585938 167.523438 133.96875 167.113281 133.210938 C 166.523438 132.109375 165.761719 131.167969 165.078125 130.152344 C 164.789062 129.371094 164.507812 128.578125 164.1875 127.808594 Z M 164.1875 127.808594 " fill-opacity="1" fill-rule="nonzero"/><path fill="#000000" d="M 173.40625 133.828125 C 173.15625 133.828125 172.90625 133.714844 172.742188 133.503906 C 172.457031 133.136719 172.523438 132.605469 172.890625 132.320312 C 181.289062 125.785156 186.660156 112.769531 187 103.960938 C 187.035156 103.101562 186.429688 102.40625 185.855469 102.128906 C 185.558594 101.980469 184.980469 101.804688 184.464844 102.242188 C 183.679688 102.910156 182.9375 103.550781 182.226562 104.160156 C 175.351562 110.054688 171.207031 113.613281 161.34375 117.175781 C 160.90625 117.332031 160.425781 117.105469 160.269531 116.667969 C 160.113281 116.230469 160.339844 115.746094 160.773438 115.589844 C 170.347656 112.132812 174.179688 108.847656 181.136719 102.878906 C 181.847656 102.265625 182.59375 101.628906 183.378906 100.960938 C 184.273438 100.199219 185.472656 100.066406 186.589844 100.613281 C 187.890625 101.25 188.730469 102.621094 188.675781 104.027344 C 188.324219 113.21875 182.707031 126.8125 173.917969 133.652344 C 173.765625 133.769531 173.585938 133.828125 173.40625 133.828125 Z M 173.40625 133.828125 " fill-opacity="1" fill-rule="nonzero"/><g fill="#dff3e8" fill-opacity="1"><g transform="translate(230.613554, 135.175361)"><g><path d="M 21.765625 -43.3125 L 38.203125 -16.828125 L 38.3125 -16.828125 L 42.5 -43.3125 L 53.765625 -43.3125 L 46.921875 0 L 35.671875 0 L 19.234375 -26.53125 L 19.125 -26.53125 L 14.9375 0 L 3.671875 0 L 10.515625 -43.3125 Z M 21.765625 -43.3125 "/></g></g></g><g fill="#dff3e8" fill-opacity="1"><g transform="translate(279.936486, 135.175361)"><g><path d="M 53.25 -25.84375 C 53.25 -21.675781 52.039062 -17.347656 49.625 -12.859375 C 47.207031 -8.378906 43.796875 -4.875 39.390625 -2.34375 C 34.992188 0.175781 30.269531 1.4375 25.21875 1.4375 C 19.125 1.4375 14.179688 -0.351562 10.390625 -3.9375 C 6.597656 -7.519531 4.703125 -12.238281 4.703125 -18.09375 C 4.703125 -22.914062 5.972656 -27.363281 8.515625 -31.4375 C 11.066406 -35.519531 14.535156 -38.757812 18.921875 -41.15625 C 23.304688 -43.550781 27.835938 -44.75 32.515625 -44.75 C 36.222656 -44.75 39.691406 -43.941406 42.921875 -42.328125 C 46.160156 -40.722656 48.691406 -38.492188 50.515625 -35.640625 C 52.335938 -32.785156 53.25 -29.519531 53.25 -25.84375 Z M 26.9375 -9.484375 C 29.539062 -9.484375 31.941406 -10.195312 34.140625 -11.625 C 36.347656 -13.0625 38.101562 -14.921875 39.40625 -17.203125 C 40.707031 -19.484375 41.359375 -21.734375 41.359375 -23.953125 C 41.359375 -26.710938 40.3125 -29.046875 38.21875 -30.953125 C 36.132812 -32.867188 33.640625 -33.828125 30.734375 -33.828125 C 28.472656 -33.828125 26.226562 -33.210938 24 -31.984375 C 21.78125 -30.765625 19.988281 -29.117188 18.625 -27.046875 C 17.269531 -24.984375 16.59375 -22.6875 16.59375 -20.15625 C 16.59375 -17.0625 17.5625 -14.507812 19.5 -12.5 C 21.4375 -10.488281 23.914062 -9.484375 26.9375 -9.484375 Z M 26.9375 -9.484375 "/></g></g></g><g fill="#dff3e8" fill-opacity="1"><g transform="translate(329.603931, 135.175361)"><g><path d="M 25.390625 -44.453125 C 30.023438 -44.453125 34.367188 -43.265625 38.421875 -40.890625 L 32.5625 -32.171875 C 30.53125 -34.078125 28.195312 -35.03125 25.5625 -35.03125 C 24.175781 -35.03125 22.921875 -34.640625 21.796875 -33.859375 C 20.671875 -33.078125 20.109375 -32.109375 20.109375 -30.953125 C 20.109375 -30.109375 20.507812 -29.367188 21.3125 -28.734375 C 22.113281 -28.109375 23.585938 -27.488281 25.734375 -26.875 C 28.640625 -26 30.742188 -25.148438 32.046875 -24.328125 C 33.347656 -23.503906 34.363281 -22.488281 35.09375 -21.28125 C 35.820312 -20.070312 36.1875 -18.566406 36.1875 -16.765625 C 36.1875 -14.160156 35.515625 -11.40625 34.171875 -8.5 C 32.835938 -5.59375 30.644531 -3.273438 27.59375 -1.546875 C 24.550781 0.171875 20.941406 1.070312 16.765625 1.15625 C 11.410156 1.15625 6.585938 -0.492188 2.296875 -3.796875 L 8.5625 -12.859375 C 11.539062 -9.878906 14.625 -8.390625 17.8125 -8.390625 C 19.570312 -8.390625 21.050781 -8.847656 22.25 -9.765625 C 23.457031 -10.679688 24.0625 -11.847656 24.0625 -13.265625 C 24.0625 -15.109375 22.222656 -16.523438 18.546875 -17.515625 C 14.109375 -18.742188 11.238281 -20.054688 9.9375 -21.453125 C 8.632812 -22.847656 7.984375 -24.710938 7.984375 -27.046875 C 7.984375 -31.953125 9.65625 -36.078125 13 -39.421875 C 16.351562 -42.773438 20.484375 -44.453125 25.390625 -44.453125 Z M 25.390625 -44.453125 "/></g></g></g><g fill="#dff3e8" fill-opacity="1"><g transform="translate(363.653329, 135.175361)"><g><path d="M 25.390625 -44.453125 C 30.023438 -44.453125 34.367188 -43.265625 38.421875 -40.890625 L 32.5625 -32.171875 C 30.53125 -34.078125 28.195312 -35.03125 25.5625 -35.03125 C 24.175781 -35.03125 22.921875 -34.640625 21.796875 -33.859375 C 20.671875 -33.078125 20.109375 -32.109375 20.109375 -30.953125 C 20.109375 -30.109375 20.507812 -29.367188 21.3125 -28.734375 C 22.113281 -28.109375 23.585938 -27.488281 25.734375 -26.875 C 28.640625 -26 30.742188 -25.148438 32.046875 -24.328125 C 33.347656 -23.503906 34.363281 -22.488281 35.09375 -21.28125 C 35.820312 -20.070312 36.1875 -18.566406 36.1875 -16.765625 C 36.1875 -14.160156 35.515625 -11.40625 34.171875 -8.5 C 32.835938 -5.59375 30.644531 -3.273438 27.59375 -1.546875 C 24.550781 0.171875 20.941406 1.070312 16.765625 1.15625 C 11.410156 1.15625 6.585938 -0.492188 2.296875 -3.796875 L 8.5625 -12.859375 C 11.539062 -9.878906 14.625 -8.390625 17.8125 -8.390625 C 19.570312 -8.390625 21.050781 -8.847656 22.25 -9.765625 C 23.457031 -10.679688 24.0625 -11.847656 24.0625 -13.265625 C 24.0625 -15.109375 22.222656 -16.523438 18.546875 -17.515625 C 14.109375 -18.742188 11.238281 -20.054688 9.9375 -21.453125 C 8.632812 -22.847656 7.984375 -24.710938 7.984375 -27.046875 C 7.984375 -31.953125 9.65625 -36.078125 13 -39.421875 C 16.351562 -42.773438 20.484375 -44.453125 25.390625 -44.453125 Z M 25.390625 -44.453125 "/></g></g></g><g fill="#dff3e8" fill-opacity="1"><g transform="translate(397.702718, 135.175361)"><g><path d="M 53.25 -25.84375 C 53.25 -21.675781 52.039062 -17.347656 49.625 -12.859375 C 47.207031 -8.378906 43.796875 -4.875 39.390625 -2.34375 C 34.992188 0.175781 30.269531 1.4375 25.21875 1.4375 C 19.125 1.4375 14.179688 -0.351562 10.390625 -3.9375 C 6.597656 -7.519531 4.703125 -12.238281 4.703125 -18.09375 C 4.703125 -22.914062 5.972656 -27.363281 8.515625 -31.4375 C 11.066406 -35.519531 14.535156 -38.757812 18.921875 -41.15625 C 23.304688 -43.550781 27.835938 -44.75 32.515625 -44.75 C 36.222656 -44.75 39.691406 -43.941406 42.921875 -42.328125 C 46.160156 -40.722656 48.691406 -38.492188 50.515625 -35.640625 C 52.335938 -32.785156 53.25 -29.519531 53.25 -25.84375 Z M 26.9375 -9.484375 C 29.539062 -9.484375 31.941406 -10.195312 34.140625 -11.625 C 36.347656 -13.0625 38.101562 -14.921875 39.40625 -17.203125 C 40.707031 -19.484375 41.359375 -21.734375 41.359375 -23.953125 C 41.359375 -26.710938 40.3125 -29.046875 38.21875 -30.953125 C 36.132812 -32.867188 33.640625 -33.828125 30.734375 -33.828125 C 28.472656 -33.828125 26.226562 -33.210938 24 -31.984375 C 21.78125 -30.765625 19.988281 -29.117188 18.625 -27.046875 C 17.269531 -24.984375 16.59375 -22.6875 16.59375 -20.15625 C 16.59375 -17.0625 17.5625 -14.507812 19.5 -12.5 C 21.4375 -10.488281 23.914062 -9.484375 26.9375 -9.484375 Z M 26.9375 -9.484375 "/></g></g></g><g fill="#dff3e8" fill-opacity="1"><g transform="translate(447.370158, 135.175361)"><g><path d="M 25.390625 -44.453125 C 30.023438 -44.453125 34.367188 -43.265625 38.421875 -40.890625 L 32.5625 -32.171875 C 30.53125 -34.078125 28.195312 -35.03125 25.5625 -35.03125 C 24.175781 -35.03125 22.921875 -34.640625 21.796875 -33.859375 C 20.671875 -33.078125 20.109375 -32.109375 20.109375 -30.953125 C 20.109375 -30.109375 20.507812 -29.367188 21.3125 -28.734375 C 22.113281 -28.109375 23.585938 -27.488281 25.734375 -26.875 C 28.640625 -26 30.742188 -25.148438 32.046875 -24.328125 C 33.347656 -23.503906 34.363281 -22.488281 35.09375 -21.28125 C 35.820312 -20.070312 36.1875 -18.566406 36.1875 -16.765625 C 36.1875 -14.160156 35.515625 -11.40625 34.171875 -8.5 C 32.835938 -5.59375 30.644531 -3.273438 27.59375 -1.546875 C 24.550781 0.171875 20.941406 1.070312 16.765625 1.15625 C 11.410156 1.15625 6.585938 -0.492188 2.296875 -3.796875 L 8.5625 -12.859375 C 11.539062 -9.878906 14.625 -8.390625 17.8125 -8.390625 C 19.570312 -8.390625 21.050781 -8.847656 22.25 -9.765625 C 23.457031 -10.679688 24.0625 -11.847656 24.0625 -13.265625 C 24.0625 -15.109375 22.222656 -16.523438 18.546875 -17.515625 C 14.109375 -18.742188 11.238281 -20.054688 9.9375 -21.453125 C 8.632812 -22.847656 7.984375 -24.710938 7.984375 -27.046875 C 7.984375 -31.953125 9.65625 -36.078125 13 -39.421875 C 16.351562 -42.773438 20.484375 -44.453125 25.390625 -44.453125 Z M 25.390625 -44.453125 "/></g></g></g><g fill="#dff3e8" fill-opacity="1"><g transform="translate(481.419546, 135.175361)"><g/></g></g><g fill="#dff3e8" fill-opacity="1"><g transform="translate(499.850864, 135.175361)"><g><path d="M 35.375 -43.3125 L 33.890625 -33.765625 L 20.28125 -33.765625 L 19.125 -26.53125 L 31.46875 -26.53125 L 29.984375 -17 L 17.640625 -17 L 14.9375 0 L 3.671875 0 L 10.515625 -43.3125 Z M 35.375 -43.3125 "/></g></g></g><g fill="#dff3e8" fill-opacity="1"><g transform="translate(529.708635, 135.175361)"><g><path d="M 35.15625 -43.3125 L 33.65625 -33.765625 L 20.28125 -33.765625 L 19.125 -26.53125 L 31.828125 -26.53125 L 30.328125 -17 L 17.640625 -17 L 16.421875 -9.53125 L 29.8125 -9.53125 L 28.3125 0 L 3.671875 0 L 10.515625 -43.3125 Z M 35.15625 -43.3125 "/></g></g></g><g fill="#dff3e8" fill-opacity="1"><g transform="translate(560.025781, 135.175361)"><g><path d="M 35.15625 -43.3125 L 33.65625 -33.765625 L 20.28125 -33.765625 L 19.125 -26.53125 L 31.828125 -26.53125 L 30.328125 -17 L 17.640625 -17 L 16.421875 -9.53125 L 29.8125 -9.53125 L 28.3125 0 L 3.671875 0 L 10.515625 -43.3125 Z M 35.15625 -43.3125 "/></g></g></g><g fill="#dff3e8" fill-opacity="1"><g transform="translate(590.342908, 135.175361)"><g><path d="M 26.53125 -43.3125 C 30.132812 -43.3125 33.363281 -42.515625 36.21875 -40.921875 C 39.070312 -39.335938 41.3125 -37.144531 42.9375 -34.34375 C 44.5625 -31.550781 45.375 -28.566406 45.375 -25.390625 C 45.375 -21.023438 44.195312 -16.878906 41.84375 -12.953125 C 39.488281 -9.023438 36.300781 -5.882812 32.28125 -3.53125 C 28.257812 -1.175781 24.066406 0 19.703125 0 L 3.671875 0 L 10.515625 -43.3125 Z M 16.421875 -9.53125 L 18.609375 -9.53125 C 23.160156 -9.53125 26.785156 -10.878906 29.484375 -13.578125 C 32.191406 -16.285156 33.546875 -19.78125 33.546875 -24.0625 C 33.546875 -26.976562 32.632812 -29.320312 30.8125 -31.09375 C 29 -32.875 26.289062 -33.765625 22.6875 -33.765625 L 20.28125 -33.765625 Z M 16.421875 -9.53125 "/></g></g></g><g fill="#dff3e8" fill-opacity="1"><g transform="translate(632.258754, 135.175361)"><g><path d="M 26.828125 -43.3125 C 30.304688 -43.3125 33.019531 -42.609375 34.96875 -41.203125 C 36.925781 -39.804688 37.90625 -37.691406 37.90625 -34.859375 C 37.90625 -29.160156 35.78125 -25.273438 31.53125 -23.203125 L 31.53125 -23.09375 C 36.394531 -22.4375 38.828125 -19.660156 38.828125 -14.765625 C 38.828125 -10.128906 37.242188 -6.507812 34.078125 -3.90625 C 30.921875 -1.300781 26.664062 0 21.3125 0 L 3.671875 0 L 10.515625 -43.3125 Z M 20.453125 -34.6875 L 19.125 -26.3125 L 20.625 -26.3125 C 24.988281 -26.3125 27.171875 -28.015625 27.171875 -31.421875 C 27.171875 -32.523438 26.75 -33.34375 25.90625 -33.875 C 25.0625 -34.414062 23.625 -34.6875 21.59375 -34.6875 Z M 16.3125 -8.609375 L 18.84375 -8.609375 C 22.019531 -8.609375 24.257812 -9.085938 25.5625 -10.046875 C 26.863281 -11.003906 27.515625 -12.347656 27.515625 -14.078125 C 27.515625 -15.453125 27.015625 -16.4375 26.015625 -17.03125 C 25.023438 -17.625 23.320312 -17.921875 20.90625 -17.921875 L 17.75 -17.921875 Z M 16.3125 -8.609375 "/></g></g></g><g fill="#dff3e8" fill-opacity="1"><g transform="translate(669.868137, 135.175361)"><g><path d="M 35.546875 -43.3125 L 45.03125 0 L 33.03125 0 L 31.421875 -7.53125 L 15.90625 -7.53125 L 11.71875 0 L -0.234375 0 L 23.265625 -43.3125 Z M 20.390625 -16.140625 L 29.75 -16.140625 L 27.34375 -29.921875 L 27.21875 -29.921875 Z M 20.390625 -16.140625 "/></g></g></g><g fill="#dff3e8" fill-opacity="1"><g transform="translate(712.759969, 135.175361)"><g><path d="M 39.171875 -28.78125 C 38.285156 -30.3125 37.03125 -31.488281 35.40625 -32.3125 C 33.78125 -33.132812 31.992188 -33.546875 30.046875 -33.546875 C 26.398438 -33.546875 23.21875 -32.144531 20.5 -29.34375 C 17.78125 -26.550781 16.421875 -23.238281 16.421875 -19.40625 C 16.421875 -16.539062 17.335938 -14.21875 19.171875 -12.4375 C 21.015625 -10.65625 23.453125 -9.765625 26.484375 -9.765625 C 28.316406 -9.765625 30.160156 -10.175781 32.015625 -11 C 33.878906 -11.820312 35.519531 -12.941406 36.9375 -14.359375 L 34.75 -0.859375 C 33.945312 -0.585938 32.539062 -0.1875 30.53125 0.34375 C 28.519531 0.882812 26.519531 1.15625 24.53125 1.15625 C 21.039062 1.15625 17.78125 0.398438 14.75 -1.109375 C 11.726562 -2.628906 9.289062 -4.757812 7.4375 -7.5 C 5.582031 -10.238281 4.632812 -13.425781 4.59375 -17.0625 C 4.59375 -21.957031 5.796875 -26.484375 8.203125 -30.640625 C 10.617188 -34.796875 13.960938 -38.132812 18.234375 -40.65625 C 22.503906 -43.1875 26.898438 -44.453125 31.421875 -44.453125 C 34.640625 -44.453125 37.953125 -43.726562 41.359375 -42.28125 Z M 39.171875 -28.78125 "/></g></g></g><g fill="#dff3e8" fill-opacity="1"><g transform="translate(749.393217, 135.175361)"><g><path d="M 21.765625 -43.3125 L 18.953125 -25.4375 L 19.0625 -25.4375 L 35.5 -43.3125 L 49.453125 -43.3125 L 29 -22.796875 L 44.171875 0 L 29.578125 0 L 18.03125 -18.78125 L 17.921875 -18.78125 L 14.9375 0 L 3.671875 0 L 10.515625 -43.3125 Z M 21.765625 -43.3125 "/></g></g></g><g fill="#dff3e8" fill-opacity="1"><g transform="translate(791.653557, 135.175361)"><g><path d="M 25.390625 -44.453125 C 30.023438 -44.453125 34.367188 -43.265625 38.421875 -40.890625 L 32.5625 -32.171875 C 30.53125 -34.078125 28.195312 -35.03125 25.5625 -35.03125 C 24.175781 -35.03125 22.921875 -34.640625 21.796875 -33.859375 C 20.671875 -33.078125 20.109375 -32.109375 20.109375 -30.953125 C 20.109375 -30.109375 20.507812 -29.367188 21.3125 -28.734375 C 22.113281 -28.109375 23.585938 -27.488281 25.734375 -26.875 C 28.640625 -26 30.742188 -25.148438 32.046875 -24.328125 C 33.347656 -23.503906 34.363281 -22.488281 35.09375 -21.28125 C 35.820312 -20.070312 36.1875 -18.566406 36.1875 -16.765625 C 36.1875 -14.160156 35.515625 -11.40625 34.171875 -8.5 C 32.835938 -5.59375 30.644531 -3.273438 27.59375 -1.546875 C 24.550781 0.171875 20.941406 1.070312 16.765625 1.15625 C 11.410156 1.15625 6.585938 -0.492188 2.296875 -3.796875 L 8.5625 -12.859375 C 11.539062 -9.878906 14.625 -8.390625 17.8125 -8.390625 C 19.570312 -8.390625 21.050781 -8.847656 22.25 -9.765625 C 23.457031 -10.679688 24.0625 -11.847656 24.0625 -13.265625 C 24.0625 -15.109375 22.222656 -16.523438 18.546875 -17.515625 C 14.109375 -18.742188 11.238281 -20.054688 9.9375 -21.453125 C 8.632812 -22.847656 7.984375 -24.710938 7.984375 -27.046875 C 7.984375 -31.953125 9.65625 -36.078125 13 -39.421875 C 16.351562 -42.773438 20.484375 -44.453125 25.390625 -44.453125 Z M 25.390625 -44.453125 "/></g></g></g><g fill="#dff3e8" fill-opacity="1"><g transform="translate(825.710678, 135.175361)"><g/></g></g><path fill="#403d3d" d="M 846.703125 134.953125 C 846.734375 131.605469 847.554688 128.207031 849.21875 125.636719 C 849.71875 124.871094 849.9375 123.949219 849.769531 123.050781 C 848.363281 115.578125 850.152344 108.238281 854.75 102.269531 C 857.296875 95.5625 864.261719 91.800781 870.90625 89.304688 C 888.570312 82.660156 907.316406 81.28125 932.507812 90.246094 C 939.859375 98.792969 945.449219 107.949219 945.734375 119.433594 C 946.023438 130.917969 940.890625 144.519531 932.160156 151.453125 C 922.339844 159.253906 910.792969 160.957031 898.464844 161.578125 C 890.972656 161.957031 884.167969 161.671875 875.4375 158.203125 C 874.195312 157.707031 872.902344 157.355469 871.59375 157.097656 C 867.261719 156.238281 862.699219 155.351562 858.585938 153.292969 C 857.984375 152.992188 857.390625 152.660156 856.8125 152.304688 " fill-opacity="1" fill-rule="nonzero"/><path fill="#403d3d" d="M 880.699219 116.238281 C 868.832031 114.605469 855.683594 110.5625 850.148438 92.871094 C 844.917969 76.15625 856.261719 55.347656 864.660156 47.117188 C 879.066406 33.011719 905.996094 29.242188 924.402344 46.246094 C 933.425781 54.582031 946.351562 74.332031 943.121094 91.179688 C 941.179688 101.296875 932.929688 112.699219 907.332031 115.550781 C 904.800781 115.835938 887.917969 117.230469 880.699219 116.238281 Z M 880.699219 116.238281 " fill-opacity="1" fill-rule="nonzero"/><path fill="#ffffff" d="M 884.554688 116.796875 C 873.441406 117.46875 862.601562 111.761719 856.121094 104.425781 C 850.855469 98.464844 849.082031 92.191406 849.261719 85.144531 C 849.445312 78.101562 848.007812 76.375 850.949219 71.175781 C 853.742188 66.230469 860.027344 62.351562 864.824219 64.800781 C 869.621094 67.25 873.308594 71.828125 874.71875 77.082031 C 875.472656 79.894531 875.503906 83.167969 873.703125 85.449219 C 876.667969 85.535156 879.636719 85.617188 882.605469 85.703125 C 882.023438 78.859375 885.066406 72.058594 890.390625 68.378906 C 895.714844 64.695312 903.074219 64.296875 908.746094 67.382812 C 914.917969 70.957031 923.703125 76.824219 924.324219 83.59375 C 924.941406 90.359375 927 102.8125 913.445312 110.917969 C 901.300781 116.667969 895.578125 116.128906 884.554688 116.796875 Z M 884.554688 116.796875 " fill-opacity="1" fill-rule="nonzero"/><path fill="#fd9808" d="M 882.101562 84.535156 C 883.289062 84.875 884.410156 85.539062 884.914062 86.5 C 885.453125 87.519531 885.207031 88.714844 884.585938 89.675781 C 883.964844 90.636719 883.007812 91.410156 882.066406 92.167969 C 880.914062 93.097656 879.550781 94.089844 877.929688 93.972656 C 876.886719 93.898438 875.960938 93.363281 875.179688 92.769531 C 873.910156 91.808594 872.867188 90.636719 872.136719 89.347656 C 871.699219 88.582031 871.367188 87.730469 871.519531 86.902344 C 871.738281 85.730469 872.90625 84.824219 874.222656 84.386719 C 875.542969 83.949219 880.910156 84.199219 882.101562 84.535156 Z M 882.101562 84.535156 " fill-opacity="1" fill-rule="nonzero"/><path fill="#ed9184" d="M 906.476562 94.390625 C 906.476562 94.914062 906.578125 95.414062 906.773438 95.898438 C 906.972656 96.378906 907.257812 96.804688 907.625 97.175781 C 907.992188 97.542969 908.417969 97.828125 908.898438 98.027344 C 909.378906 98.226562 909.878906 98.328125 910.398438 98.328125 C 910.917969 98.328125 911.417969 98.226562 911.902344 98.027344 C 912.382812 97.828125 912.804688 97.542969 913.171875 97.175781 C 913.539062 96.804688 913.824219 96.378906 914.023438 95.898438 C 914.222656 95.414062 914.320312 94.914062 914.320312 94.390625 C 914.320312 93.871094 914.222656 93.367188 914.023438 92.886719 C 913.824219 92.402344 913.539062 91.976562 913.171875 91.609375 C 912.804688 91.238281 912.382812 90.953125 911.902344 90.753906 C 911.417969 90.554688 910.917969 90.453125 910.398438 90.453125 C 909.878906 90.453125 909.378906 90.554688 908.898438 90.753906 C 908.417969 90.953125 907.992188 91.238281 907.625 91.609375 C 907.257812 91.976562 906.972656 92.402344 906.773438 92.886719 C 906.578125 93.367188 906.476562 93.871094 906.476562 94.390625 Z M 906.476562 94.390625 " fill-opacity="1" fill-rule="nonzero"/><path fill="#000000" d="M 900.972656 87.179688 C 902.589844 87.761719 904.304688 88.417969 905.316406 89.8125 C 905.667969 90.300781 905.921875 90.917969 905.761719 91.5 C 905.589844 92.105469 904.992188 92.511719 904.378906 92.636719 C 903.765625 92.761719 903.128906 92.65625 902.511719 92.539062 C 901.164062 92.285156 899.824219 91.980469 898.53125 91.53125 C 897.785156 91.269531 897.035156 90.945312 896.472656 90.390625 C 895.90625 89.835938 895.558594 89 895.769531 88.234375 C 896 87.394531 896.84375 86.84375 897.695312 86.695312 C 898.550781 86.546875 899.453125 86.632812 900.972656 87.179688 Z M 900.972656 87.179688 " fill-opacity="1" fill-rule="nonzero"/><path fill="#000000" d="M 857.320312 84.957031 C 855.6875 85.492188 853.953125 86.09375 852.902344 87.460938 C 852.535156 87.9375 852.261719 88.546875 852.410156 89.132812 C 852.558594 89.742188 853.144531 90.167969 853.753906 90.3125 C 854.367188 90.457031 855.003906 90.367188 855.625 90.269531 C 856.976562 90.054688 858.324219 89.792969 859.632812 89.378906 C 860.386719 89.140625 861.144531 88.839844 861.726562 88.300781 C 862.304688 87.761719 862.679688 86.9375 862.492188 86.167969 C 862.285156 85.324219 861.460938 84.746094 860.613281 84.570312 C 859.761719 84.398438 858.859375 84.457031 857.320312 84.957031 Z M 857.320312 84.957031 " fill-opacity="1" fill-rule="nonzero"/><path fill="#000000" d="M 905.585938 161.867188 C 905.617188 161.867188 905.648438 161.867188 905.679688 161.863281 C 917.355469 160.574219 926.078125 157.371094 933.125 151.773438 C 941.71875 144.945312 946.867188 133.125 946.5625 120.917969 C 946.398438 114.328125 944.207031 107.089844 940.234375 99.980469 C 940.007812 99.574219 939.496094 99.429688 939.09375 99.660156 C 938.6875 99.886719 938.542969 100.398438 938.769531 100.804688 C 942.613281 107.675781 944.726562 114.644531 944.882812 120.960938 C 945.175781 132.648438 940.269531 143.949219 932.082031 150.453125 C 925.292969 155.84375 916.84375 158.9375 905.496094 160.1875 C 905.035156 160.238281 904.703125 160.65625 904.753906 161.117188 C 904.800781 161.546875 905.164062 161.867188 905.585938 161.867188 Z M 905.585938 161.867188 " fill-opacity="1" fill-rule="nonzero"/><path fill="#000000" d="M 889.242188 162.363281 C 889.675781 162.363281 890.042969 162.03125 890.078125 161.589844 C 890.117188 161.128906 889.773438 160.722656 889.3125 160.683594 C 884.6875 160.296875 880.375 159.257812 875.746094 157.417969 C 874.535156 156.9375 873.226562 156.5625 871.757812 156.269531 L 871.625 156.246094 C 867.351562 155.398438 862.929688 154.527344 858.960938 152.539062 C 858.378906 152.246094 857.800781 151.925781 857.242188 151.582031 C 856.847656 151.34375 856.332031 151.464844 856.089844 151.863281 C 855.847656 152.261719 855.972656 152.777344 856.367188 153.019531 C 856.96875 153.390625 857.589844 153.734375 858.210938 154.046875 C 862.386719 156.136719 866.917969 157.03125 871.300781 157.898438 L 871.429688 157.921875 C 872.800781 158.195312 874.011719 158.542969 875.128906 158.984375 C 879.914062 160.886719 884.378906 161.960938 889.171875 162.359375 C 889.195312 162.363281 889.21875 162.363281 889.242188 162.363281 Z M 889.242188 162.363281 " fill-opacity="1" fill-rule="nonzero"/><path fill="#000000" d="M 846.703125 135.796875 C 847.164062 135.796875 847.539062 135.425781 847.542969 134.960938 C 847.574219 131.5625 848.421875 128.414062 849.921875 126.097656 C 850.558594 125.117188 850.796875 123.980469 850.59375 122.894531 C 849.632812 117.789062 849.625 110.152344 855.042969 102.757812 C 855.316406 102.382812 855.238281 101.855469 854.863281 101.578125 C 854.492188 101.304688 853.964844 101.382812 853.691406 101.757812 C 849.183594 107.910156 847.5 115.527344 848.945312 123.207031 C 849.066406 123.863281 848.914062 124.566406 848.515625 125.179688 C 846.84375 127.761719 845.898438 131.230469 845.863281 134.945312 C 845.859375 135.410156 846.234375 135.792969 846.695312 135.796875 C 846.699219 135.796875 846.703125 135.796875 846.703125 135.796875 Z M 846.703125 135.796875 " fill-opacity="1" fill-rule="nonzero"/><path fill="#fd9808" d="M 856.378906 152.191406 C 853.035156 150.925781 848.148438 147.273438 845.675781 143.148438 C 844.773438 141.640625 844.039062 139.898438 844.265625 138.140625 C 844.476562 136.53125 845.753906 134.992188 847.289062 134.886719 C 847.46875 134.875 847.5625 134.695312 847.472656 134.535156 C 846.726562 133.207031 847.023438 131.3125 848.203125 130.347656 C 849.496094 129.292969 852.433594 131.207031 853.765625 132.085938 C 861.28125 142.960938 866.660156 149.945312 856.378906 152.191406 Z M 856.378906 152.191406 " fill-opacity="1" fill-rule="nonzero"/><g clip-path="url(#e780c3f92d)"><path fill="#000000" d="M 856.476562 153.027344 C 857.671875 153.027344 858.863281 152.632812 859.878906 151.863281 C 861.738281 150.453125 862.578125 148.148438 862.070312 145.851562 C 860.449219 138.519531 855.304688 130.773438 851.058594 129.273438 C 849.410156 128.695312 848.3125 129.179688 847.679688 129.691406 C 846.40625 130.71875 845.917969 132.609375 846.421875 134.207031 C 844.910156 134.703125 843.667969 136.238281 843.433594 138.035156 C 843.21875 139.695312 843.71875 141.511719 844.957031 143.582031 C 846.375 145.945312 849.898438 150.230469 853.816406 152.347656 C 854.65625 152.800781 855.570312 153.027344 856.476562 153.027344 Z M 849.628906 130.695312 C 849.867188 130.695312 850.152344 130.742188 850.5 130.863281 C 853.847656 132.042969 858.808594 138.859375 860.433594 146.214844 C 860.796875 147.859375 860.195312 149.511719 858.867188 150.519531 C 857.59375 151.488281 856 151.617188 854.609375 150.863281 C 851.019531 148.921875 847.667969 144.835938 846.398438 142.714844 C 845.359375 140.980469 844.933594 139.519531 845.097656 138.25 C 845.265625 136.953125 846.296875 135.800781 847.347656 135.726562 C 847.71875 135.703125 848.046875 135.492188 848.21875 135.167969 C 848.394531 134.839844 848.390625 134.449219 848.203125 134.121094 C 847.648438 133.136719 847.894531 131.679688 848.730469 131.003906 C 848.839844 130.914062 849.113281 130.695312 849.628906 130.695312 Z M 846.742188 134.949219 Z M 846.742188 134.949219 " fill-opacity="1" fill-rule="nonzero"/></g><path fill="#fd9808" d="M 891 162.976562 C 896.558594 167.445312 904.140625 163.496094 907.917969 158.28125 C 909.207031 156.5 910.117188 154.234375 909.636719 152.066406 C 909.15625 149.898438 906.851562 148.121094 904.765625 148.46875 C 905.289062 146.535156 904.421875 144.292969 902.753906 143.273438 C 901.089844 142.25 898.773438 142.546875 897.328125 143.636719 C 896.84375 142.125 895.28125 141.148438 893.746094 141.148438 C 892.210938 141.148438 890.753906 142.003906 889.738281 143.199219 C 888.722656 144.394531 888.109375 145.898438 887.6875 147.429688 C 886.289062 152.53125 885.980469 158.941406 891 162.976562 Z M 891 162.976562 " fill-opacity="1" fill-rule="nonzero"/><path fill="#000000" d="M 896.496094 165.761719 C 896.960938 165.761719 897.4375 165.726562 897.917969 165.664062 C 901.804688 165.140625 905.898438 162.5 908.597656 158.773438 C 909.5625 157.4375 911.09375 154.765625 910.457031 151.886719 C 909.96875 149.679688 907.921875 147.835938 905.746094 147.605469 C 905.863281 145.582031 904.847656 143.566406 903.191406 142.554688 C 901.636719 141.601562 899.449219 141.558594 897.683594 142.433594 C 896.859375 141.136719 895.335938 140.304688 893.75 140.304688 C 893.746094 140.304688 893.746094 140.304688 893.746094 140.304688 C 892.058594 140.308594 890.367188 141.164062 889.101562 142.652344 C 888.132812 143.792969 887.40625 145.28125 886.878906 147.207031 C 884.890625 154.464844 886.132812 160.144531 890.476562 163.632812 C 892.21875 165.039062 894.28125 165.761719 896.496094 165.761719 Z M 900.394531 143.484375 C 901.089844 143.484375 901.765625 143.652344 902.320312 143.992188 C 903.46875 144.695312 904.1875 146.1875 904.0625 147.621094 C 904.027344 148.035156 904.160156 148.453125 904.429688 148.761719 C 904.691406 149.066406 905.054688 149.246094 905.453125 149.269531 C 906.964844 149.363281 908.472656 150.699219 908.816406 152.25 C 909.3125 154.484375 908.039062 156.675781 907.238281 157.785156 C 904.839844 161.097656 901.089844 163.535156 897.691406 163.992188 C 895.367188 164.308594 893.296875 163.742188 891.523438 162.320312 C 886.753906 158.484375 887.242188 152.226562 888.496094 147.65625 C 888.957031 145.972656 889.574219 144.691406 890.378906 143.746094 C 891.3125 142.648438 892.570312 141.992188 893.746094 141.992188 C 893.746094 141.992188 893.75 141.992188 893.75 141.992188 C 894.796875 141.992188 895.835938 142.574219 896.332031 143.441406 C 896.730469 144.144531 897.589844 144.398438 898.292969 144.015625 C 898.945312 143.660156 899.683594 143.484375 900.394531 143.484375 Z M 900.394531 143.484375 " fill-opacity="1" fill-rule="nonzero"/><path fill="#000000" d="M 939.074219 118.683594 C 939.113281 118.683594 939.152344 118.679688 939.191406 118.671875 C 939.652344 118.609375 939.972656 118.183594 939.90625 117.722656 L 938.8125 109.867188 C 938.75 109.40625 938.324219 109.085938 937.867188 109.152344 C 937.410156 109.214844 937.089844 109.640625 937.152344 110.101562 L 938.246094 117.957031 C 938.304688 118.378906 938.664062 118.683594 939.074219 118.683594 Z M 939.074219 118.683594 " fill-opacity="1" fill-rule="nonzero"/><path fill="#000000" d="M 931.898438 120.589844 C 931.902344 120.589844 931.90625 120.589844 931.914062 120.589844 C 932.375 120.582031 932.746094 120.199219 932.734375 119.734375 C 932.667969 116.105469 931.980469 112.542969 930.691406 109.148438 C 930.523438 108.714844 930.039062 108.496094 929.605469 108.664062 C 929.171875 108.828125 928.957031 109.316406 929.121094 109.75 C 930.34375 112.960938 930.996094 116.328125 931.058594 119.765625 C 931.066406 120.222656 931.441406 120.589844 931.898438 120.589844 Z M 931.898438 120.589844 " fill-opacity="1" fill-rule="nonzero"/><path fill="#000000" d="M 935.101562 137.691406 C 935.414062 137.691406 935.714844 137.515625 935.859375 137.210938 C 937.671875 133.386719 938.421875 129.132812 938.035156 124.914062 C 937.992188 124.449219 937.589844 124.101562 937.121094 124.152344 C 936.660156 124.195312 936.320312 124.605469 936.363281 125.066406 C 936.722656 128.984375 936.027344 132.933594 934.34375 136.488281 C 934.144531 136.910156 934.324219 137.410156 934.742188 137.613281 C 934.859375 137.667969 934.980469 137.691406 935.101562 137.691406 Z M 935.101562 137.691406 " fill-opacity="1" fill-rule="nonzero"/><path fill="#000000" d="M 882.46875 49.460938 C 882.855469 49.460938 883.203125 49.191406 883.289062 48.800781 L 884.675781 42.558594 C 884.777344 42.105469 884.492188 41.652344 884.042969 41.550781 C 883.589844 41.453125 883.140625 41.738281 883.039062 42.191406 L 881.652344 48.433594 C 881.550781 48.886719 881.835938 49.335938 882.285156 49.4375 C 882.347656 49.453125 882.410156 49.460938 882.46875 49.460938 Z M 882.46875 49.460938 " fill-opacity="1" fill-rule="nonzero"/><path fill="#000000" d="M 891.753906 52.269531 C 892.167969 52.269531 892.527344 51.960938 892.585938 51.539062 L 893.679688 43.207031 C 893.742188 42.746094 893.417969 42.324219 892.957031 42.261719 C 892.5 42.203125 892.078125 42.527344 892.015625 42.988281 L 890.921875 51.316406 C 890.859375 51.78125 891.183594 52.203125 891.644531 52.261719 C 891.679688 52.269531 891.71875 52.269531 891.753906 52.269531 Z M 891.753906 52.269531 " fill-opacity="1" fill-rule="nonzero"/><path fill="#000000" d="M 886.417969 64.222656 C 886.828125 64.222656 887.183594 63.921875 887.246094 63.507812 L 888.585938 54.703125 C 888.65625 54.242188 888.339844 53.8125 887.882812 53.742188 C 887.421875 53.675781 886.996094 53.988281 886.925781 54.449219 L 885.589844 63.253906 C 885.519531 63.710938 885.832031 64.140625 886.292969 64.210938 C 886.335938 64.21875 886.378906 64.222656 886.417969 64.222656 Z M 886.417969 64.222656 " fill-opacity="1" fill-rule="nonzero"/><path fill="#000000" d="M 879.070312 63.976562 C 879.488281 63.976562 879.851562 63.660156 879.902344 63.234375 L 880.726562 56.34375 C 880.785156 55.878906 880.457031 55.460938 879.996094 55.40625 C 879.535156 55.351562 879.117188 55.679688 879.0625 56.140625 L 878.238281 63.03125 C 878.183594 63.492188 878.511719 63.914062 878.96875 63.96875 C 879.003906 63.972656 879.039062 63.976562 879.070312 63.976562 Z M 879.070312 63.976562 " fill-opacity="1" fill-rule="nonzero"/><path fill="#000000" d="M 904.710938 116.632812 C 904.734375 116.632812 904.757812 116.632812 904.78125 116.632812 C 906.035156 116.527344 906.964844 116.441406 907.425781 116.390625 C 934.207031 113.40625 942.066406 101.121094 943.945312 91.339844 C 947.292969 73.898438 934.082031 54.042969 924.96875 45.625 C 905.902344 28.011719 878.515625 32.375 864.074219 46.515625 C 855.027344 55.375 844.089844 76.316406 849.347656 93.125 C 852.238281 102.351562 857.355469 108.738281 864.996094 112.644531 C 865.410156 112.855469 865.914062 112.691406 866.125 112.277344 C 866.332031 111.863281 866.167969 111.355469 865.757812 111.144531 C 858.539062 107.453125 853.695312 101.394531 850.949219 92.617188 C 845.71875 75.90625 857.683594 55.128906 865.246094 47.71875 C 879.140625 34.113281 905.492188 29.917969 923.832031 46.867188 C 933.332031 55.644531 945.34375 75.144531 942.296875 91.023438 C 940.527344 100.246094 933.007812 111.84375 907.238281 114.714844 C 906.789062 114.765625 905.875 114.851562 904.644531 114.953125 C 904.183594 114.992188 903.839844 115.398438 903.875 115.859375 C 903.914062 116.300781 904.28125 116.632812 904.710938 116.632812 Z M 904.710938 116.632812 " fill-opacity="1" fill-rule="nonzero"/><path fill="#000000" d="M 878.195312 94.824219 C 879.957031 94.824219 881.382812 93.800781 882.59375 92.824219 C 883.527344 92.074219 884.585938 91.21875 885.289062 90.132812 C 886.148438 88.804688 886.285156 87.296875 885.65625 86.105469 C 885.09375 85.035156 883.878906 84.167969 882.328125 83.726562 C 881.058594 83.367188 875.53125 83.0625 873.960938 83.585938 C 872.171875 84.179688 870.953125 85.363281 870.695312 86.75 C 870.476562 87.941406 870.996094 89.042969 871.40625 89.765625 C 872.191406 91.144531 873.320312 92.414062 874.671875 93.441406 C 875.789062 94.289062 876.832031 94.738281 877.867188 94.8125 C 877.976562 94.820312 878.085938 94.824219 878.195312 94.824219 Z M 876.984375 84.992188 C 878.878906 84.992188 881.1875 85.152344 881.871094 85.347656 C 882.96875 85.660156 883.828125 86.234375 884.175781 86.890625 C 884.515625 87.539062 884.402344 88.40625 883.878906 89.21875 C 883.328125 90.074219 882.421875 90.804688 881.542969 91.511719 C 880.460938 92.382812 879.292969 93.226562 877.988281 93.132812 C 877.277344 93.082031 876.546875 92.753906 875.683594 92.097656 C 874.511719 91.207031 873.539062 90.113281 872.867188 88.929688 C 872.417969 88.144531 872.253906 87.550781 872.34375 87.054688 C 872.484375 86.304688 873.324219 85.570312 874.488281 85.183594 C 874.902344 85.046875 875.871094 84.992188 876.984375 84.992188 Z M 876.984375 84.992188 " fill-opacity="1" fill-rule="nonzero"/><path fill="#000000" d="M 902.652344 115.78125 C 902.710938 115.78125 902.769531 115.777344 902.832031 115.761719 C 921.796875 111.578125 924.578125 99.636719 925.488281 95.714844 C 927.671875 86.347656 924.222656 76.980469 916.269531 70.667969 C 908.777344 64.722656 899.125 63.039062 892.246094 66.480469 C 885.394531 69.902344 881.117188 77.65625 882.070312 84.917969 C 882.128906 85.382812 882.558594 85.703125 883.011719 85.644531 C 883.46875 85.582031 883.792969 85.160156 883.734375 84.699219 C 882.871094 78.128906 886.765625 71.101562 892.992188 67.984375 C 899.300781 64.832031 908.238281 66.441406 915.226562 71.988281 C 922.660156 77.886719 925.886719 86.613281 923.855469 95.332031 C 923.003906 99 920.402344 110.160156 902.472656 114.117188 C 902.019531 114.21875 901.734375 114.667969 901.832031 115.121094 C 901.917969 115.511719 902.265625 115.78125 902.652344 115.78125 Z M 902.652344 115.78125 " fill-opacity="1" fill-rule="nonzero"/><path fill="#000000" d="M 874.074219 85.183594 C 874.433594 85.183594 874.769531 84.949219 874.878906 84.585938 C 877.070312 77.355469 873.847656 68.839844 867.378906 64.773438 C 864.984375 63.269531 861.628906 62.96875 858.394531 63.960938 C 854.558594 65.140625 851.425781 67.933594 849.800781 71.617188 C 849.613281 72.042969 849.804688 72.539062 850.230469 72.730469 C 850.652344 72.917969 851.148438 72.726562 851.335938 72.300781 C 852.765625 69.0625 855.515625 66.609375 858.886719 65.570312 C 861.660156 64.71875 864.5 64.953125 866.484375 66.199219 C 872.335938 69.875 875.253906 77.570312 873.273438 84.09375 C 873.136719 84.539062 873.386719 85.007812 873.832031 85.144531 C 873.914062 85.171875 873.996094 85.183594 874.074219 85.183594 Z M 874.074219 85.183594 " fill-opacity="1" fill-rule="nonzero"/><path fill="#403d3d" d="M 859.5625 126.992188 C 859.3125 126.332031 858.957031 125.722656 858.78125 125.039062 C 858.382812 123.488281 857.9375 121.789062 857.1875 120.367188 C 856.886719 119.792969 856.542969 119.230469 856.230469 118.660156 C 856 118.234375 855.703125 117.929688 855.351562 117.683594 C 855.699219 117.050781 856.234375 116.515625 856.917969 116.179688 C 868.761719 110.371094 870.03125 108.792969 880.128906 101.449219 C 881.8125 100.226562 884.125 101.535156 883.996094 103.613281 C 883.316406 114.582031 877.90625 125.140625 869.488281 132.1875 C 868.628906 132.910156 867.84375 133.535156 867.089844 134.117188 C 866.839844 134.074219 866.589844 134.070312 866.347656 134.132812 C 866.296875 134.128906 866.257812 134.128906 866.230469 134.128906 C 866.082031 134.140625 865.949219 134.171875 865.820312 134.210938 C 865.511719 134.230469 865.21875 134.320312 864.957031 134.488281 C 864.917969 134.503906 864.878906 134.523438 864.839844 134.542969 C 864.699219 134.574219 864.558594 134.609375 864.515625 134.621094 C 864.320312 134.6875 864.089844 134.8125 863.871094 134.953125 C 863.804688 134.839844 863.742188 134.722656 863.671875 134.609375 C 863.214844 133.890625 862.691406 133.257812 862.3125 132.484375 C 861.757812 131.367188 861.027344 130.402344 860.375 129.363281 C 860.109375 128.570312 859.859375 127.769531 859.5625 126.992188 Z M 859.5625 126.992188 " fill-opacity="1" fill-rule="nonzero"/><path fill="#000000" d="M 870.0625 132.167969 C 870.253906 132.167969 870.445312 132.101562 870.601562 131.96875 C 875.214844 128.082031 879.402344 121.960938 882.085938 115.175781 C 882.253906 114.742188 882.042969 114.253906 881.613281 114.082031 C 881.183594 113.910156 880.695312 114.121094 880.523438 114.550781 C 877.941406 121.085938 873.929688 126.964844 869.523438 130.679688 C 869.167969 130.980469 869.121094 131.511719 869.417969 131.867188 C 869.585938 132.066406 869.824219 132.167969 870.0625 132.167969 Z M 870.0625 132.167969 " fill-opacity="1" fill-rule="nonzero"/><path fill="#000000" d="M 860.5625 114.980469 C 860.664062 114.980469 860.765625 114.964844 860.867188 114.925781 C 868.234375 112.074219 872.261719 108.839844 878.359375 103.945312 C 879.089844 103.359375 879.855469 102.746094 880.660156 102.105469 C 880.964844 101.859375 881.324219 101.789062 881.71875 101.898438 C 882.164062 102.023438 882.625 101.757812 882.75 101.308594 C 882.871094 100.859375 882.609375 100.398438 882.160156 100.273438 C 881.25 100.023438 880.34375 100.207031 879.617188 100.785156 C 878.808594 101.429688 878.042969 102.042969 877.3125 102.628906 C 871.125 107.597656 867.390625 110.59375 860.261719 113.355469 C 859.828125 113.519531 859.613281 114.007812 859.78125 114.441406 C 859.910156 114.777344 860.226562 114.980469 860.5625 114.980469 Z M 860.5625 114.980469 " fill-opacity="1" fill-rule="nonzero"/><path fill="#403d3d" d="M 902.808594 127.808594 C 903.082031 127.15625 903.457031 126.5625 903.65625 125.882812 C 904.101562 124.34375 904.605469 122.660156 905.398438 121.265625 C 905.71875 120.703125 906.082031 120.152344 906.410156 119.589844 C 906.65625 119.171875 906.960938 118.878906 907.320312 118.644531 C 906.992188 118 906.476562 117.449219 905.804688 117.089844 C 894.15625 110.898438 892.9375 109.277344 883.082031 101.605469 C 881.441406 100.328125 879.085938 101.558594 879.148438 103.644531 C 879.472656 114.625 884.535156 125.355469 892.722656 132.679688 C 893.558594 133.425781 894.320312 134.078125 895.054688 134.683594 C 895.304688 134.648438 895.554688 134.652344 895.796875 134.722656 C 895.847656 134.722656 895.886719 134.722656 895.914062 134.722656 C 896.0625 134.738281 896.191406 134.777344 896.320312 134.820312 C 896.628906 134.847656 896.921875 134.945312 897.175781 135.125 C 897.214844 135.140625 897.25 135.160156 897.289062 135.179688 C 897.429688 135.21875 897.570312 135.257812 897.613281 135.273438 C 897.804688 135.347656 898.03125 135.476562 898.242188 135.625 C 898.316406 135.511719 898.382812 135.398438 898.457031 135.285156 C 898.933594 134.585938 899.476562 133.96875 899.882812 133.210938 C 900.476562 132.109375 901.238281 131.167969 901.921875 130.152344 C 902.210938 129.371094 902.488281 128.578125 902.808594 127.808594 Z M 902.808594 127.808594 " fill-opacity="1" fill-rule="nonzero"/><path fill="#000000" d="M 893.59375 133.828125 C 893.84375 133.828125 894.09375 133.714844 894.257812 133.503906 C 894.542969 133.136719 894.476562 132.605469 894.109375 132.320312 C 885.710938 125.785156 880.339844 112.769531 880 103.960938 C 879.964844 103.101562 880.570312 102.40625 881.144531 102.128906 C 881.441406 101.980469 882.015625 101.804688 882.535156 102.242188 C 883.320312 102.910156 884.0625 103.550781 884.773438 104.160156 C 891.644531 110.054688 895.792969 113.613281 905.65625 117.175781 C 906.09375 117.332031 906.574219 117.105469 906.730469 116.667969 C 906.886719 116.230469 906.660156 115.746094 906.226562 115.589844 C 896.652344 112.132812 892.820312 108.847656 885.863281 102.878906 C 885.152344 102.265625 884.40625 101.628906 883.621094 100.960938 C 882.726562 100.199219 881.527344 100.066406 880.410156 100.613281 C 879.105469 101.25 878.269531 102.621094 878.320312 104.027344 C 878.675781 113.21875 884.292969 126.8125 893.082031 133.652344 C 893.234375 133.769531 893.414062 133.828125 893.59375 133.828125 Z M 893.59375 133.828125 " fill-opacity="1" fill-rule="nonzero"/></svg>