<svg xmlns="http://www.w3.org/2000/svg" xmlns:xlink="http://www.w3.org/1999/xlink" width="871" zoomAndPan="magnify" viewBox="0 0 653.25 91.5" height="122" preserveAspectRatio="xMidYMid meet" version="1.0"><defs><g/></defs><g fill="#316e7d" fill-opacity="1"><g transform="translate(159.748264, 52.72225)"><g><path d="M 2.71875 0.09375 C 2.6875 -3.425781 2.65625 -7.078125 2.625 -10.859375 C 2.601562 -14.648438 2.550781 -18.632812 2.46875 -22.8125 C 3.53125 -23.039062 4.726562 -23.21875 6.0625 -23.34375 C 7.40625 -23.476562 8.785156 -23.546875 10.203125 -23.546875 C 13.109375 -23.546875 15.335938 -22.925781 16.890625 -21.6875 C 18.441406 -20.445312 19.21875 -18.644531 19.21875 -16.28125 C 19.21875 -11.300781 16.066406 -8.8125 9.765625 -8.8125 L 6.171875 -8.8125 L 6.171875 -0.09375 C 5.890625 0 5.429688 0.0703125 4.796875 0.125 C 4.160156 0.1875 3.46875 0.175781 2.71875 0.09375 Z M 6.171875 -11.796875 L 10.0625 -11.796875 C 11.90625 -11.796875 13.300781 -12.023438 14.25 -12.484375 C 15.09375 -13.347656 15.515625 -14.585938 15.515625 -16.203125 C 15.515625 -17.609375 15 -18.675781 13.96875 -19.40625 C 12.945312 -20.144531 11.515625 -20.515625 9.671875 -20.515625 C 8.609375 -20.515625 7.757812 -20.484375 7.125 -20.421875 C 6.488281 -20.367188 6.171875 -20.34375 6.171875 -20.34375 Z M 6.171875 -11.796875 "/></g></g></g><g fill="#316e7d" fill-opacity="1"><g transform="translate(195.599899, 52.72225)"><g><path d="M 13.515625 -23.109375 L 21.984375 -0.296875 C 21.472656 -0.0976562 20.867188 0.0703125 20.171875 0.21875 C 19.484375 0.363281 18.878906 0.421875 18.359375 0.390625 L 15.984375 -6.171875 L 6.21875 -6.171875 L 3.9375 0.390625 C 3.414062 0.421875 2.828125 0.363281 2.171875 0.21875 C 1.523438 0.0703125 0.945312 -0.0976562 0.4375 -0.296875 L 8.90625 -23.109375 C 9.53125 -23.222656 10.296875 -23.28125 11.203125 -23.28125 C 12.117188 -23.28125 12.890625 -23.222656 13.515625 -23.109375 Z M 7.265625 -9.078125 L 14.953125 -9.078125 L 11.015625 -19.828125 Z M 7.265625 -9.078125 "/></g></g></g><g fill="#316e7d" fill-opacity="1"><g transform="translate(233.740561, 52.72225)"><g><path d="M 13 0.609375 C 10.46875 0.609375 8.34375 0.0976562 6.625 -0.921875 C 4.914062 -1.953125 3.628906 -3.390625 2.765625 -5.234375 C 1.898438 -7.078125 1.46875 -9.191406 1.46875 -11.578125 C 1.46875 -15.441406 2.519531 -18.429688 4.625 -20.546875 C 6.726562 -22.660156 9.765625 -23.71875 13.734375 -23.71875 C 15.265625 -23.71875 16.71875 -23.546875 18.09375 -23.203125 C 19.476562 -22.859375 20.660156 -22.367188 21.640625 -21.734375 C 21.359375 -20.578125 20.898438 -19.566406 20.265625 -18.703125 C 18.472656 -19.910156 16.179688 -20.515625 13.390625 -20.515625 C 12.148438 -20.515625 11.046875 -20.414062 10.078125 -20.21875 C 9.117188 -20.019531 8.265625 -19.742188 7.515625 -19.390625 C 6.878906 -18.585938 6.332031 -17.566406 5.875 -16.328125 C 5.414062 -15.085938 5.1875 -13.503906 5.1875 -11.578125 C 5.1875 -8.785156 5.898438 -6.582031 7.328125 -4.96875 C 8.753906 -3.351562 10.832031 -2.546875 13.5625 -2.546875 C 14.65625 -2.546875 15.617188 -2.628906 16.453125 -2.796875 C 17.296875 -2.972656 18.078125 -3.207031 18.796875 -3.5 L 18.796875 -9.9375 L 12.65625 -9.9375 C 12.570312 -10.34375 12.53125 -10.851562 12.53125 -11.46875 C 12.53125 -12.09375 12.570312 -12.585938 12.65625 -12.953125 L 21.984375 -12.953125 L 21.984375 -1.8125 C 20.773438 -1.03125 19.441406 -0.429688 17.984375 -0.015625 C 16.535156 0.398438 14.875 0.609375 13 0.609375 Z M 13 0.609375 "/></g></g></g><g fill="#316e7d" fill-opacity="1"><g transform="translate(273.738341, 52.72225)"><g><path d="M 13.515625 -23.109375 L 21.984375 -0.296875 C 21.472656 -0.0976562 20.867188 0.0703125 20.171875 0.21875 C 19.484375 0.363281 18.878906 0.421875 18.359375 0.390625 L 15.984375 -6.171875 L 6.21875 -6.171875 L 3.9375 0.390625 C 3.414062 0.421875 2.828125 0.363281 2.171875 0.21875 C 1.523438 0.0703125 0.945312 -0.0976562 0.4375 -0.296875 L 8.90625 -23.109375 C 9.53125 -23.222656 10.296875 -23.28125 11.203125 -23.28125 C 12.117188 -23.28125 12.890625 -23.222656 13.515625 -23.109375 Z M 7.265625 -9.078125 L 14.953125 -9.078125 L 11.015625 -19.828125 Z M 7.265625 -9.078125 "/></g></g></g><g fill="#316e7d" fill-opacity="1"><g transform="translate(311.879003, 52.72225)"><g><path d="M 20.953125 -23.375 C 21.554688 -23.375 22.242188 -23.320312 23.015625 -23.21875 C 23.796875 -23.125 24.460938 -22.972656 25.015625 -22.765625 L 25.015625 -0.046875 C 24.753906 0.046875 24.304688 0.117188 23.671875 0.171875 C 23.035156 0.234375 22.34375 0.21875 21.59375 0.125 C 21.59375 -1.71875 21.585938 -3.703125 21.578125 -5.828125 C 21.566406 -7.960938 21.550781 -10.101562 21.53125 -12.25 C 21.519531 -14.394531 21.5 -16.40625 21.46875 -18.28125 L 14.953125 -7.90625 C 14.234375 -7.726562 13.5 -7.726562 12.75 -7.90625 L 6.140625 -18.3125 L 6.140625 -0.09375 C 5.847656 0 5.390625 0.0703125 4.765625 0.125 C 4.148438 0.1875 3.46875 0.175781 2.71875 0.09375 C 2.6875 -3.425781 2.65625 -7.085938 2.625 -10.890625 C 2.601562 -14.691406 2.550781 -18.648438 2.46875 -22.765625 C 3.039062 -22.992188 3.75 -23.160156 4.59375 -23.265625 C 5.445312 -23.367188 6.191406 -23.40625 6.828125 -23.375 L 13.90625 -12.140625 Z M 20.953125 -23.375 "/></g></g></g><g fill="#316e7d" fill-opacity="1"><g transform="translate(355.20233, 52.72225)"><g><path d="M 2.71875 0 C 2.6875 -3.488281 2.65625 -7.125 2.625 -10.90625 C 2.601562 -14.695312 2.550781 -18.625 2.46875 -22.6875 C 3.007812 -22.820312 3.617188 -22.925781 4.296875 -23 C 4.972656 -23.070312 5.890625 -23.109375 7.046875 -23.109375 L 17.578125 -23.109375 C 17.671875 -22.710938 17.71875 -22.207031 17.71875 -21.59375 C 17.71875 -20.988281 17.671875 -20.488281 17.578125 -20.09375 L 6.171875 -20.09375 L 6.171875 -13.171875 L 15.984375 -13.171875 C 16.066406 -12.773438 16.109375 -12.285156 16.109375 -11.703125 C 16.109375 -11.128906 16.066406 -10.640625 15.984375 -10.234375 L 6.171875 -10.234375 L 6.171875 -3.03125 L 17.84375 -3.03125 C 17.957031 -2.625 18.015625 -2.117188 18.015625 -1.515625 C 18.015625 -0.910156 17.957031 -0.40625 17.84375 0 Z M 2.71875 0 "/></g></g></g><g fill="#316e7d" fill-opacity="1"><g transform="translate(390.060624, 52.72225)"><g><path d="M 18.3125 -22.71875 C 18.894531 -22.957031 19.507812 -23.125 20.15625 -23.21875 C 20.800781 -23.320312 21.367188 -23.359375 21.859375 -23.328125 L 21.859375 -0.046875 C 21.546875 0.0664062 21.023438 0.140625 20.296875 0.171875 C 19.578125 0.203125 19.003906 0.1875 18.578125 0.125 L 5.96875 -17.71875 L 5.96875 -0.046875 C 5.707031 0.015625 5.257812 0.0703125 4.625 0.125 C 3.988281 0.1875 3.351562 0.175781 2.71875 0.09375 C 2.6875 -3.425781 2.65625 -7.085938 2.625 -10.890625 C 2.601562 -14.691406 2.550781 -18.648438 2.46875 -22.765625 C 3.675781 -23.222656 4.957031 -23.425781 6.3125 -23.375 L 18.578125 -6.09375 C 18.546875 -8.394531 18.507812 -11.019531 18.46875 -13.96875 C 18.425781 -16.925781 18.375 -19.84375 18.3125 -22.71875 Z M 18.3125 -22.71875 "/></g></g></g><g fill="#316e7d" fill-opacity="1"><g transform="translate(430.231171, 52.72225)"><g><path d="M 8.34375 0.09375 C 8.34375 -2.101562 8.332031 -4.367188 8.3125 -6.703125 C 8.300781 -9.035156 8.28125 -11.34375 8.25 -13.625 C 8.21875 -15.914062 8.175781 -18.070312 8.125 -20.09375 L 0.78125 -20.09375 C 0.6875 -20.488281 0.640625 -20.988281 0.640625 -21.59375 C 0.640625 -22.207031 0.6875 -22.710938 0.78125 -23.109375 L 19.140625 -23.109375 C 19.253906 -22.710938 19.3125 -22.207031 19.3125 -21.59375 C 19.3125 -20.988281 19.253906 -20.488281 19.140625 -20.09375 L 11.796875 -20.09375 L 11.796875 -0.09375 C 11.503906 0 11.039062 0.0703125 10.40625 0.125 C 9.78125 0.1875 9.09375 0.175781 8.34375 0.09375 Z M 8.34375 0.09375 "/></g></g></g><g fill="#316e7d" fill-opacity="1"><g transform="translate(465.866861, 52.72225)"><g><path d="M 13 0.609375 C 10.46875 0.609375 8.34375 0.0976562 6.625 -0.921875 C 4.914062 -1.953125 3.628906 -3.390625 2.765625 -5.234375 C 1.898438 -7.078125 1.46875 -9.191406 1.46875 -11.578125 C 1.46875 -15.441406 2.492188 -18.429688 4.546875 -20.546875 C 6.609375 -22.660156 9.472656 -23.71875 13.140625 -23.71875 C 15.671875 -23.71875 17.789062 -23.207031 19.5 -22.1875 C 21.21875 -21.164062 22.507812 -19.742188 23.375 -17.921875 C 24.238281 -16.109375 24.671875 -13.992188 24.671875 -11.578125 C 24.671875 -7.722656 23.644531 -4.726562 21.59375 -2.59375 C 19.550781 -0.457031 16.6875 0.609375 13 0.609375 Z M 13.515625 -2.46875 C 14.472656 -2.46875 15.382812 -2.566406 16.25 -2.765625 C 17.113281 -2.960938 17.875 -3.234375 18.53125 -3.578125 C 19.164062 -4.441406 19.726562 -5.519531 20.21875 -6.8125 C 20.707031 -8.113281 20.953125 -9.703125 20.953125 -11.578125 C 20.953125 -14.429688 20.203125 -16.660156 18.703125 -18.265625 C 17.203125 -19.878906 15.171875 -20.6875 12.609375 -20.6875 C 11.660156 -20.6875 10.753906 -20.578125 9.890625 -20.359375 C 9.023438 -20.148438 8.265625 -19.890625 7.609375 -19.578125 C 6.972656 -18.679688 6.410156 -17.59375 5.921875 -16.3125 C 5.429688 -15.03125 5.1875 -13.453125 5.1875 -11.578125 C 5.1875 -8.703125 5.925781 -6.460938 7.40625 -4.859375 C 8.894531 -3.265625 10.929688 -2.46875 13.515625 -2.46875 Z M 13.515625 -2.46875 "/></g></g></g></svg>